STARTFONT 2.1
COMMENT
COMMENT Converted from OpenType font "Catrinity-Regular.otf" by "otf2bdf 3.0".
COMMENT
FONT -FreeType-Catrinity-Medium-R-Normal--55-400-100-100-P-270-ISO10646-1
SIZE 40 100 100
FONTBOUNDINGBOX 127 73 -33 -22
STARTPROPERTIES 19
FOUNDRY "FreeType"
FAMILY_NAME "Catrinity"
WEIGHT_NAME "Medium"
SLANT "R"
SETWIDTH_NAME "Normal"
ADD_STYLE_NAME ""
PIXEL_SIZE 55
POINT_SIZE 400
RESOLUTION_X 100
RESOLUTION_Y 100
SPACING "P"
AVERAGE_WIDTH 270
CHARSET_REGISTRY "ISO10646"
CHARSET_ENCODING "1"
FONT_ASCENT 47
FONT_DESCENT 21
COPYRIGHT "Typeface © Alexander Lange. 2023. All Rights Reserved"
_OTF_FONTFILE "Catrinity-Regular.otf"
_OTF_PSNAME "Catrinity"
ENDPROPERTIES
CHARS 9984
STARTCHAR 0000
ENCODING 0
SWIDTH 0 0
DWIDTH 0 0
BBX 0 0 0 0
BITMAP
ENDCHAR
STARTCHAR 0008
ENCODING 8
SWIDTH 0 0
DWIDTH 0 0
BBX 0 0 0 0
BITMAP
ENDCHAR
STARTCHAR 0009
ENCODING 9
SWIDTH 234 0
DWIDTH 13 0
BBX 0 0 0 0
BITMAP
ENDCHAR
STARTCHAR 000D
ENCODING 13
SWIDTH 234 0
DWIDTH 13 0
BBX 0 0 0 0
BITMAP
ENDCHAR
STARTCHAR 001D
ENCODING 29
SWIDTH 0 0
DWIDTH 0 0
BBX 0 0 0 0
BITMAP
ENDCHAR
STARTCHAR 0020
ENCODING 32
SWIDTH 234 0
DWIDTH 13 0
BBX 0 0 0 0
BITMAP
ENDCHAR
STARTCHAR 0021
ENCODING 33
SWIDTH 162 0
DWIDTH 9 0
BBX 6 37 2 -1
BITMAP
78
78
78
78
78
78
78
78
78
78
78
78
78
78
78
78
78
78
78
78
78
78
78
78
78
00
00
00
00
00
00
78
FC
FC
FC
78
10
ENDCHAR
STARTCHAR 0022
ENCODING 34
SWIDTH 288 0
DWIDTH 16 0
BBX 11 11 3 25
BITMAP
F3E0
F3E0
F3E0
F3E0
F3E0
F3E0
F3E0
F3E0
F3E0
F3E0
F3E0
ENDCHAR
STARTCHAR 0023
ENCODING 35
SWIDTH 702 0
DWIDTH 39 0
BBX 34 36 3 0
BITMAP
001E007800
001E00F800
001E00F000
001E00F000
003E00F000
003C00F000
003C00F000
003C01F000
003C01E000
007C01E000
1FFFFFFFC0
3FFFFFFFC0
3FFFFFFFC0
3FFFFFFF80
007803C000
00F803C000
00F003C000
00F003C000
00F007C000
00F0078000
00F0078000
01F0078000
FFFFFFFF00
FFFFFFFF00
FFFFFFFE00
FFFFFFFE00
FFFFFFFE00
03C00F0000
03C00F0000
03C00F0000
03C01F0000
03C01E0000
07C01E0000
07801E0000
07801E0000
07803E0000
ENDCHAR
STARTCHAR 0024
ENCODING 36
SWIDTH 486 0
DWIDTH 27 0
BBX 21 46 3 -5
BITMAP
007800
007800
007800
007800
007800
03FE00
07FF00
0FFF80
1FFFC0
3F7FE0
3C79E0
7C79F0
7878F0
7878F0
787800
787800
7C7800
3E7800
3F7800
1FF800
0FF800
07FC00
03FF00
00FF80
007FC0
007FE0
007BF0
0079F8
0078F8
007878
007878
F07878
F07878
F07878
F878F8
7C78F8
7E7BF0
3FFFE0
1FFFC0
0FFF80
03FE00
007800
007800
007800
007800
007800
ENDCHAR
STARTCHAR 0025
ENCODING 37
SWIDTH 630 0
DWIDTH 35 0
BBX 30 37 3 -1
BITMAP
0FE0007C
3FF000F8
7FF801F0
7FFC03E0
F87C03E0
F03E07C0
F01E0F80
F01E0F80
F01E1F00
F83E3E00
FC7C3E00
7FFC7C00
3FF8F800
1FF1F000
07C1F000
0003E000
0007C000
0007C000
000F8000
001F0000
001F0000
003E0700
007C3FC0
00F87FE0
00F8FFF0
01F1FDF8
03E1F078
03E1E07C
07C1E03C
0F81E03C
0F81E07C
1F01F078
3E01FFF8
7C00FFF0
7C007FE0
F8003FC0
00000200
ENDCHAR
STARTCHAR 0026
ENCODING 38
SWIDTH 558 0
DWIDTH 31 0
BBX 25 37 3 -1
BITMAP
01FE0000
07FF0000
0FFF8000
1FFFC000
3F07E000
3E01E000
7C018000
78000000
78000000
78007800
78007800
7C007800
3C007800
3E007800
3F807800
1FFFFF80
0FFFFF80
1FFFFF80
3FFFFF80
3F007800
7C007800
78007800
F8007800
F0007800
F0007800
F0007800
F0007800
F0007800
F000F800
F800F800
7C01F800
7E03F800
3FFFFF80
1FFFFF80
0FFF7F80
03FE3F80
00200000
ENDCHAR
STARTCHAR 0027
ENCODING 39
SWIDTH 162 0
DWIDTH 9 0
BBX 4 11 3 25
BITMAP
F0
F0
F0
F0
F0
F0
F0
F0
F0
F0
F0
ENDCHAR
STARTCHAR 0028
ENCODING 40
SWIDTH 288 0
DWIDTH 16 0
BBX 11 47 3 -11
BITMAP
03E0
07C0
0780
0F80
0F00
1F00
1E00
3E00
3C00
3C00
7C00
7800
7800
7800
F800
F000
F000
F000
F000
F000
F000
F000
F000
F000
F000
F000
F000
F000
F000
F000
F000
F000
F800
7800
7800
7800
7C00
3C00
3C00
3E00
1E00
1F00
0F00
0F80
0780
07C0
03E0
ENDCHAR
STARTCHAR 0029
ENCODING 41
SWIDTH 288 0
DWIDTH 16 0
BBX 12 47 2 -11
BITMAP
F800
7C00
3E00
1E00
1F00
0F00
0F00
0780
0780
07C0
03C0
03C0
03C0
03E0
01E0
01E0
01E0
01E0
01E0
01E0
01E0
01F0
01F0
01F0
01F0
01F0
01E0
01E0
01E0
01E0
01E0
01E0
01E0
03E0
03C0
03C0
03C0
07C0
0780
0780
0F80
0F00
1F00
1E00
3E00
7C00
7800
ENDCHAR
STARTCHAR 002A
ENCODING 42
SWIDTH 432 0
DWIDTH 24 0
BBX 18 19 3 17
BITMAP
01E000
01E000
00E000
20E080
70E380
F8C7C0
FECFC0
1FDF00
07F800
01E000
07FC00
3FDF00
FCCFC0
78C7C0
70E180
20E080
00E000
01E000
01E000
ENDCHAR
STARTCHAR 002B
ENCODING 43
SWIDTH 522 0
DWIDTH 29 0
BBX 24 24 3 6
BITMAP
003C00
003C00
003C00
003C00
003C00
003C00
003C00
003C00
003C00
003C00
FFFFFF
FFFFFF
FFFFFF
FFFFFF
003C00
003C00
003C00
003C00
003C00
003C00
003C00
003C00
003C00
003C00
ENDCHAR
STARTCHAR 002C
ENCODING 44
SWIDTH 198 0
DWIDTH 11 0
BBX 8 14 2 -9
BITMAP
7C
7E
FE
7F
7F
13
03
03
06
06
0C
18
70
C0
ENDCHAR
STARTCHAR 002D
ENCODING 45
SWIDTH 324 0
DWIDTH 18 0
BBX 13 5 3 10
BITMAP
FFF8
FFF8
FFF8
FFF8
FFF8
ENDCHAR
STARTCHAR 002E
ENCODING 46
SWIDTH 198 0
DWIDTH 11 0
BBX 6 6 3 -1
BITMAP
78
FC
FC
FC
F8
20
ENDCHAR
STARTCHAR 002F
ENCODING 47
SWIDTH 396 0
DWIDTH 22 0
BBX 17 36 3 0
BITMAP
000780
000F80
000F00
000F00
001F00
001E00
003E00
003C00
003C00
007C00
007800
007800
00F800
00F000
00F000
01F000
01E000
03E000
03C000
03C000
07C000
078000
078000
0F8000
0F0000
0F0000
1F0000
1E0000
3E0000
3C0000
3C0000
7C0000
780000
780000
F80000
F00000
ENDCHAR
STARTCHAR 0030
ENCODING 48
SWIDTH 486 0
DWIDTH 27 0
BBX 21 37 3 -1
BITMAP
01FC00
03FE00
07FF00
0FFF80
1F07C0
1E03C0
3E01E0
3C01E0
7C00F0
7800F0
7800F0
F80078
F00078
F00078
F00078
F00078
F00078
F00078
F00078
F00078
F00078
F00078
F00078
F00078
F00078
7800F8
7800F0
7800F0
3C01F0
3C01E0
1E03E0
1F07C0
0FFF80
07FF80
03FF00
01FC00
002000
ENDCHAR
STARTCHAR 0031
ENCODING 49
SWIDTH 414 0
DWIDTH 23 0
BBX 17 36 3 0
BITMAP
03E000
03E000
03E000
03E000
0FE000
7FE000
FFE000
FFE000
FFE000
03E000
03E000
03E000
03E000
03E000
03E000
03E000
03E000
03E000
03E000
03E000
03E000
03E000
03E000
03E000
03E000
03E000
03E000
03E000
03E000
03E000
03E000
03E000
FFFF80
FFFF80
FFFF80
FFFF80
ENDCHAR
STARTCHAR 0032
ENCODING 50
SWIDTH 432 0
DWIDTH 24 0
BBX 19 36 3 0
BITMAP
07F800
0FFE00
3FFF00
3FFF80
7C0FC0
F807C0
F003C0
F003E0
F001E0
0001E0
0001E0
0003C0
0003C0
0007C0
000F80
000F80
001F00
003E00
00FC00
01F800
03F000
07E000
0F8000
1F0000
3E0000
3E0000
7C0000
780000
F80000
F00000
F00000
F00000
FFFFE0
FFFFE0
FFFFE0
FFFFE0
ENDCHAR
STARTCHAR 0033
ENCODING 51
SWIDTH 450 0
DWIDTH 25 0
BBX 20 37 3 -1
BITMAP
07F800
0FFE00
1FFF00
3FFF80
7C0FC0
F807C0
F803C0
F003E0
F001E0
0001E0
0001E0
0003E0
0003C0
0007C0
001F80
007F80
007F00
007F00
007F80
000FC0
0003E0
0001E0
0001F0
0000F0
0000F0
0000F0
0000F0
0000F0
3001F0
F001E0
F803E0
7C07C0
7FFFC0
3FFF80
1FFF00
07FC00
004000
ENDCHAR
STARTCHAR 0034
ENCODING 52
SWIDTH 540 0
DWIDTH 30 0
BBX 25 36 3 0
BITMAP
0003F000
0003F000
0007F000
000FF000
000FF000
001FF000
003EF000
007CF000
007CF000
00F8F000
01F0F000
01F0F000
03E0F000
07C0F000
0F80F000
0F80F000
1F00F000
3E00F000
3E00F000
7C00F000
F800F000
FFFFFF80
FFFFFF80
FFFFFF80
FFFFFF80
0000F000
0000F000
0000F000
0000F000
0000F000
0000F000
0000F000
0000F000
0000F000
0000F000
0000F000
ENDCHAR
STARTCHAR 0035
ENCODING 53
SWIDTH 450 0
DWIDTH 25 0
BBX 20 37 3 -1
BITMAP
1FFF80
1FFF80
3FFF80
3FFF80
3C0000
3C0000
3C0000
780000
780000
780000
784000
7FFC00
7FFE00
FFFF00
FFFF80
FC0FC0
F807C0
F003E0
3001E0
0001F0
0000F0
0000F0
0000F0
0000F0
0000F0
0000F0
0000F0
0001F0
3001E0
F003E0
F803C0
7C0FC0
7FFF80
3FFF00
1FFE00
07FC00
004000
ENDCHAR
STARTCHAR 0036
ENCODING 54
SWIDTH 486 0
DWIDTH 27 0
BBX 21 37 3 -1
BITMAP
00FF00
01FFC0
07FFE0
0FFFF0
0F81F0
1F00F0
3E0060
3C0000
7C0000
780000
780000
F80000
F00000
F00000
F00000
F1FC00
F7FF00
FFFFC0
FFFFE0
FF07E0
FC01F0
F800F8
F80078
F00078
F00078
F00078
780078
780078
780078
3C00F8
3E01F0
1F03F0
1FFFE0
0FFFC0
07FF80
01FE00
006000
ENDCHAR
STARTCHAR 0037
ENCODING 55
SWIDTH 504 0
DWIDTH 28 0
BBX 23 36 3 0
BITMAP
FFFFFE
FFFFFC
FFFFF8
FFFFF8
0000F0
0001F0
0001E0
0003C0
0007C0
000780
000F80
000F00
001F00
001E00
001E00
003E00
003C00
007C00
007800
007800
00F800
00F000
00F000
01F000
01F000
01E000
01E000
03E000
03E000
03C000
03C000
03C000
03C000
03C000
07C000
07C000
ENDCHAR
STARTCHAR 0038
ENCODING 56
SWIDTH 486 0
DWIDTH 27 0
BBX 21 37 3 -1
BITMAP
01FE00
07FF00
0FFF80
1FFFC0
3F07E0
3E01E0
7C01F0
7800F0
7800F0
7800F0
7800F0
7C00F0
3C01F0
3E03E0
1F8FE0
1FFFC0
0FFF80
1FFFC0
3FFFE0
3F07E0
7C01F0
7800F8
F80078
F00078
F00078
F00078
F00078
F00078
F00078
F800F8
7C01F0
7E03F0
3FFFE0
1FFFC0
0FFF80
03FE00
002000
ENDCHAR
STARTCHAR 0039
ENCODING 57
SWIDTH 486 0
DWIDTH 27 0
BBX 21 36 3 0
BITMAP
03FE00
0FFF80
1FFFC0
3FFFE0
7E03F0
7C01F0
F800F8
F00078
F00078
F00078
F00078
F00078
F00078
F00078
F800F8
7C01F0
7E03F0
3FFFF0
1FFFE0
0FFFE0
03FFE0
0003C0
0007C0
000780
000780
000F80
000F00
000F00
001F00
001E00
003E00
003E00
003C00
007C00
007800
007800
ENDCHAR
STARTCHAR 003A
ENCODING 58
SWIDTH 198 0
DWIDTH 11 0
BBX 6 26 3 0
BITMAP
F8
FC
FC
FC
78
00
00
00
00
00
00
00
00
00
00
00
00
00
00
00
78
FC
FC
FC
F8
20
ENDCHAR
STARTCHAR 003B
ENCODING 59
SWIDTH 198 0
DWIDTH 11 0
BBX 8 34 2 -8
BITMAP
7C
7E
7E
7E
3C
00
00
00
00
00
00
00
00
00
00
00
00
00
00
00
7C
7E
FE
7F
7F
13
03
03
06
06
0C
18
70
C0
ENDCHAR
STARTCHAR 003C
ENCODING 60
SWIDTH 522 0
DWIDTH 29 0
BBX 24 22 3 7
BITMAP
000001
00000F
00007F
0001FF
000FFF
007FF8
03FFC0
0FFF00
7FF800
FFC000
FE0000
FE0000
FFC000
FFF000
1FFE00
03FFC0
007FF8
001FFE
0003FF
00007F
00000F
000003
ENDCHAR
STARTCHAR 003D
ENCODING 61
SWIDTH 522 0
DWIDTH 29 0
BBX 24 14 3 11
BITMAP
FFFFFF
FFFFFF
FFFFFF
FFFFFF
000000
000000
000000
000000
000000
000000
FFFFFF
FFFFFF
FFFFFF
FFFFFF
ENDCHAR
STARTCHAR 003E
ENCODING 62
SWIDTH 522 0
DWIDTH 29 0
BBX 24 22 3 7
BITMAP
800000
F00000
FC0000
FF8000
FFF000
1FFE00
03FFC0
00FFF0
001FFE
0003FF
0000FF
00007F
0003FF
000FFF
007FF8
03FFC0
1FFE00
7FF800
FFC000
FE0000
F00000
C00000
ENDCHAR
STARTCHAR 003F
ENCODING 63
SWIDTH 432 0
DWIDTH 24 0
BBX 19 36 3 -1
BITMAP
07F800
0FFE00
3FFF00
3FFF80
7C0FC0
F807C0
F003C0
F003E0
F001E0
0001E0
0001E0
0003E0
0003C0
0007C0
0007C0
000F80
001F00
003F00
003E00
007C00
00F800
00F800
00F000
01F000
01E000
01E000
01E000
000000
000000
000000
000000
01E000
03F000
03F000
03F000
01E000
ENDCHAR
STARTCHAR 0040
ENCODING 64
SWIDTH 954 0
DWIDTH 53 0
BBX 45 48 4 -12
BITMAP
000001FF0000
00001FFFE000
00007FFFF800
0001FFFFFC00
0003FE01FE00
000FF0007F00
001F80001F80
003F00000FC0
007E000007C0
00F8000003E0
01F0004003E0
03E007F8F1F0
03C01FFDE1F0
07C07FFFE0F0
0F80FFFFE0F8
0F01F81FE0F8
1F01F00FE078
1E03E007C078
3E07C007C078
3C078007C078
3C0F8007C078
780F0007C078
780F000780F0
781F000780F0
781E000780F0
F81E000F80F0
F01E000F81F0
F01E000F01E0
F01F001F01E0
F01F003F03E0
F00F807F03C0
F80FC0FE07C0
F807FFFE0780
7807FFFE0F00
7803FFDE1F00
7C01FF1F7E00
7C00101FFC00
3E00001FF800
3F00000FF000
1F000003C000
1F8000000000
0FE000000000
07F800800000
03FF9FC00000
01FFFFC00000
007FFFC00000
001FFF800000
0000E0000000
ENDCHAR
STARTCHAR 0041
ENCODING 65
SWIDTH 630 0
DWIDTH 35 0
BBX 30 36 3 0
BITMAP
00078000
000FC000
000FC000
000FC000
001FE000
001FE000
003FE000
003DF000
003CF000
007CF800
00787800
00787800
00F87C00
00F03C00
00F03C00
01F03E00
01E01E00
03E01E00
03C01F00
03FFFF00
07FFFF80
07FFFF80
07FFFF80
0F8007C0
0F0003C0
0F0003C0
1F0003E0
1E0001E0
3E0001E0
3C0001F0
3C0000F0
7C0000F8
78000078
78000078
F800007C
F000003C
ENDCHAR
STARTCHAR 0042
ENCODING 66
SWIDTH 504 0
DWIDTH 28 0
BBX 23 36 3 0
BITMAP
FFFC00
FFFF80
FFFFC0
FFFFE0
F007F0
F001F0
F000F8
F00078
F00078
F00078
F00078
F00078
F000F8
F001F0
F003F0
FFFFE0
FFFFC0
FFFFE0
FFFFF0
F003F8
F000F8
F0007C
F0003C
F0003C
F0003C
F0003E
F0003C
F0003C
F0003C
F0007C
F000F8
F003F8
FFFFF0
FFFFE0
FFFF80
FFFE00
ENDCHAR
STARTCHAR 0043
ENCODING 67
SWIDTH 576 0
DWIDTH 32 0
BBX 27 37 3 -1
BITMAP
003FE000
00FFF800
01FFFE00
07FFFF00
07E03F80
0F800FC0
1F0007C0
3E0003E0
3E0001C0
7C000180
78000000
78000000
F8000000
F0000000
F0000000
F0000000
F0000000
F0000000
F0000000
F0000000
F0000000
F0000000
F0000000
F8000000
78000000
78000000
7C000180
3C0001C0
3E0003E0
1F0007C0
0F800FC0
0FE01F80
07FFFF00
03FFFE00
00FFFC00
007FF000
00020000
ENDCHAR
STARTCHAR 0044
ENCODING 68
SWIDTH 630 0
DWIDTH 35 0
BBX 30 36 3 0
BITMAP
FFFF8000
FFFFF000
FFFFFC00
FFFFFE00
0F00FF00
0F001F80
0F000FC0
0F0007E0
0F0003E0
0F0001F0
0F0000F0
0F0000F8
0F0000F8
0F000078
0F000078
0F000078
0F000078
0F00007C
0F00007C
0F00007C
0F000078
0F000078
0F000078
0F000078
0F0000F8
0F0000F0
0F0001F0
0F0003E0
0F0007E0
0F000FC0
0F001F80
0F007F80
FFFFFF00
FFFFFC00
FFFFF800
FFFFC000
ENDCHAR
STARTCHAR 0045
ENCODING 69
SWIDTH 504 0
DWIDTH 28 0
BBX 23 36 3 0
BITMAP
FFFFFE
FFFFFE
FFFFFE
FFFFFE
F00000
F00000
F00000
F00000
F00000
F00000
F00000
F00000
F00000
F00000
F00000
F00000
FFFFE0
FFFFE0
FFFFE0
FFFFE0
F00000
F00000
F00000
F00000
F00000
F00000
F00000
F00000
F00000
F00000
F00000
F00000
FFFFFE
FFFFFE
FFFFFE
FFFFFE
ENDCHAR
STARTCHAR 0046
ENCODING 70
SWIDTH 504 0
DWIDTH 28 0
BBX 23 36 3 0
BITMAP
FFFFFE
FFFFFE
FFFFFE
FFFFFE
F00000
F00000
F00000
F00000
F00000
F00000
F00000
F00000
F00000
F00000
F00000
F00000
FFFFE0
FFFFE0
FFFFE0
FFFFE0
F00000
F00000
F00000
F00000
F00000
F00000
F00000
F00000
F00000
F00000
F00000
F00000
F00000
F00000
F00000
F00000
ENDCHAR
STARTCHAR 0047
ENCODING 71
SWIDTH 576 0
DWIDTH 32 0
BBX 27 37 3 -1
BITMAP
003FE000
00FFF800
01FFFE00
07FFFF00
07E03F80
0F800FC0
1F0007C0
3E0003E0
3E0001C0
7C000180
78000000
78000000
F8000000
F0000000
F0000000
F0000000
F0000000
F007FFE0
F007FFE0
F007FFE0
F007FFE0
F00001E0
F00001E0
F80001E0
780001E0
780001E0
7C0001E0
3C0001E0
3E0003E0
1F0007C0
0F800FC0
0FE01F80
07FFFF00
03FFFE00
00FFFC00
007FF000
00020000
ENDCHAR
STARTCHAR 0048
ENCODING 72
SWIDTH 504 0
DWIDTH 28 0
BBX 23 36 3 0
BITMAP
F0003E
F0003E
F0003E
F0003E
F0003E
F0003E
F0003E
F0003E
F0003E
F0003E
F0003E
F0003E
F0003E
F0003E
F0003E
F0003E
FFFFFE
FFFFFE
FFFFFE
FFFFFE
F0003E
F0003E
F0003E
F0003E
F0003E
F0003E
F0003E
F0003E
F0003E
F0003E
F0003E
F0003E
F0003E
F0003E
F0003E
F0003E
ENDCHAR
STARTCHAR 0049
ENCODING 73
SWIDTH 306 0
DWIDTH 17 0
BBX 12 36 3 0
BITMAP
FFF0
FFF0
FFF0
FFF0
0F00
0F00
0F00
0F00
0F00
0F00
0F00
0F00
0F00
0F00
0F00
0F00
0F00
0F00
0F00
0F00
0F00
0F00
0F00
0F00
0F00
0F00
0F00
0F00
0F00
0F00
0F00
0F00
FFF0
FFF0
FFF0
FFF0
ENDCHAR
STARTCHAR 004A
ENCODING 74
SWIDTH 360 0
DWIDTH 20 0
BBX 15 37 3 -1
BITMAP
001E
001E
001E
001E
001E
001E
001E
001E
001E
001E
001E
001E
001E
001E
001E
001E
001E
001E
001E
001E
001E
001E
001E
001E
001E
001E
001E
001E
001E
F01E
F03E
F83C
7FFC
7FF8
3FF8
1FE0
0100
ENDCHAR
STARTCHAR 004B
ENCODING 75
SWIDTH 540 0
DWIDTH 30 0
BBX 24 36 3 0
BITMAP
F000F8
F000F8
F001F0
F003E0
F003E0
F007C0
F00F80
F00F80
F01F00
F03E00
F07C00
F07C00
F0F800
F1F000
F1F000
F3E000
F7E000
F7E000
FFF000
FFF800
FE7800
FE7C00
FC3E00
F81F00
F81F00
F00F80
F007C0
F007C0
F003E0
F001F0
F000F8
F000F8
F0007C
F0003E
F0003E
F0001F
ENDCHAR
STARTCHAR 004C
ENCODING 76
SWIDTH 504 0
DWIDTH 28 0
BBX 23 36 3 0
BITMAP
F00000
F00000
F00000
F00000
F00000
F00000
F00000
F00000
F00000
F00000
F00000
F00000
F00000
F00000
F00000
F00000
F00000
F00000
F00000
F00000
F00000
F00000
F00000
F00000
F00000
F00000
F00000
F00000
F00000
F00000
F00000
F00000
FFFFFE
FFFFFE
FFFFFE
FFFFFE
ENDCHAR
STARTCHAR 004D
ENCODING 77
SWIDTH 630 0
DWIDTH 35 0
BBX 30 36 3 0
BITMAP
F000003C
F800007C
F800007C
F800007C
FC0000FC
FC0000FC
FC0001FC
FE0001FC
FE0001FC
FE0003FC
FF0003FC
FF0003FC
FF8007FC
F78007BC
F78007BC
F7C00FBC
F3C00F3C
F3C01F3C
F3E01E3C
F1E01E3C
F1E03E3C
F1F03C3C
F0F03C3C
F0F87C3C
F078783C
F078783C
F07CF83C
F03CF03C
F03DF03C
F03FE03C
F01FE03C
F01FE03C
F01FC03C
F00FC03C
F00FC03C
F007803C
ENDCHAR
STARTCHAR 004E
ENCODING 78
SWIDTH 594 0
DWIDTH 33 0
BBX 28 36 3 0
BITMAP
F00000F0
F80000F0
F80000F0
FC0000F0
FE0000F0
FF0000F0
FF0000F0
FF8000F0
F7C000F0
F7C000F0
F3E000F0
F1F000F0
F1F000F0
F0F800F0
F07C00F0
F03E00F0
F03E00F0
F01F00F0
F00F80F0
F00F80F0
F007C0F0
F003E0F0
F003E0F0
F001F0F0
F000F8F0
F0007CF0
F0007CF0
F0003EF0
F0001FF0
F0001FF0
F0000FF0
F00007F0
F00007F0
F00003F0
F00001F0
F00000F0
ENDCHAR
STARTCHAR 004F
ENCODING 79
SWIDTH 630 0
DWIDTH 35 0
BBX 30 37 3 -1
BITMAP
003FE000
00FFF800
01FFFE00
07FFFF00
07E03F80
0F800FC0
1F0007C0
3E0003E0
3E0001E0
7C0001F0
780000F0
780000F8
F8000078
F0000078
F0000078
F0000078
F0000078
F000007C
F000007C
F000007C
F0000078
F0000078
F0000078
F8000078
780000F8
780000F0
7C0001F0
3C0001F0
3E0003E0
1F0007C0
0F800FC0
0FE01F80
07FFFF00
03FFFE00
00FFFC00
007FF000
00020000
ENDCHAR
STARTCHAR 0050
ENCODING 80
SWIDTH 468 0
DWIDTH 26 0
BBX 21 36 3 0
BITMAP
FFF800
FFFF00
FFFF80
FFFFC0
F00FE0
F003F0
F000F0
F000F8
F00078
F00078
F00078
F00078
F00078
F000F8
F001F0
F003F0
FFFFE0
FFFFC0
FFFF80
FFFE00
FFE000
F00000
F00000
F00000
F00000
F00000
F00000
F00000
F00000
F00000
F00000
F00000
F00000
F00000
F00000
F00000
ENDCHAR
STARTCHAR 0051
ENCODING 81
SWIDTH 630 0
DWIDTH 35 0
BBX 34 40 3 -4
BITMAP
003FE00000
00FFF80000
01FFFE0000
07FFFF0000
07E03F8000
0F800FC000
1F0007C000
3E0003E000
3E0001E000
7C0001F000
780000F000
780000F800
F800007800
F000007800
F000007800
F000007800
F000007800
F000007C00
F000007C00
F000007C00
F000007800
F000007800
F000007800
F803007800
781FE0F800
783FF0F000
7C7FF9F000
3C7FFDF000
3E307FE000
1F003FC000
0F801FC000
0FE01F8000
07FFFF0000
03FFFF8000
00FFFF8100
007FF7E7C0
000203FFC0
000003FF80
000000FF00
0000003C00
ENDCHAR
STARTCHAR 0052
ENCODING 82
SWIDTH 522 0
DWIDTH 29 0
BBX 24 36 3 0
BITMAP
FFF800
FFFF00
FFFF80
FFFFC0
F00FE0
F003F0
F000F0
F000F8
F00078
F00078
F00078
F00078
F00078
F000F8
F001F0
F003F0
FFFFE0
FFFFC0
FFFF80
FFFE00
FFFE00
F01F00
F00F00
F00F80
F007C0
F007C0
F003E0
F001E0
F001F0
F000F0
F000F8
F0007C
F0007C
F0003E
F0001E
F0001F
ENDCHAR
STARTCHAR 0053
ENCODING 83
SWIDTH 486 0
DWIDTH 27 0
BBX 21 37 3 -1
BITMAP
03FE00
07FF00
0FFF80
1FFFC0
3F07E0
3C01E0
7C01F0
7800F0
7800F0
780000
780000
7C0000
3E0000
3F0000
1F8000
0FE000
07FC00
03FF00
00FF80
001FC0
000FE0
0003F0
0001F8
0000F8
000078
000078
F00078
F00078
F00078
F800F8
7C00F8
7E03F0
3FFFE0
1FFFC0
0FFF80
03FF00
002000
ENDCHAR
STARTCHAR 0054
ENCODING 84
SWIDTH 504 0
DWIDTH 28 0
BBX 23 36 3 0
BITMAP
FFFFFE
FFFFFE
FFFFFE
FFFFFE
007800
007800
007800
007800
007800
007800
007800
007800
007800
007800
007800
007800
007800
007800
007800
007800
007800
007800
007800
007800
007800
007800
007800
007800
007800
007800
007800
007800
007800
007800
007800
007800
ENDCHAR
STARTCHAR 0055
ENCODING 85
SWIDTH 576 0
DWIDTH 32 0
BBX 27 37 3 -1
BITMAP
F00001E0
F00001E0
F00001E0
F00001E0
F00001E0
F00001E0
F00001E0
F00001E0
F00001E0
F00001E0
F00001E0
F00001E0
F00001E0
F00001E0
F00001E0
F00001E0
F00001E0
F00001E0
F00001E0
F00001E0
F00001E0
F00001E0
F00001E0
F00001E0
F00001E0
F00003E0
F00003C0
F80003C0
7C0007C0
7C000F80
3E001F80
1F807F00
0FFFFE00
07FFFC00
03FFF000
00FFE000
00040000
ENDCHAR
STARTCHAR 0056
ENCODING 86
SWIDTH 630 0
DWIDTH 35 0
BBX 30 36 3 0
BITMAP
F000003C
F800007C
78000078
78000078
7C0000F8
3C0000F0
3C0001F0
3E0001F0
1E0001E0
1E0003E0
1F0003C0
0F0003C0
0F8007C0
07800780
07800780
07C00F80
03C00F00
03C01F00
03E01F00
01E01E00
01E03E00
01F03C00
00F03C00
00F87C00
00787800
00787800
007CF800
003CF000
003DF000
003FE000
001FE000
001FE000
001FC000
000FC000
000FC000
00078000
ENDCHAR
STARTCHAR 0057
ENCODING 87
SWIDTH 864 0
DWIDTH 48 0
BBX 42 36 3 0
BITMAP
F0001E0003C0
F0001E0003C0
F8003F0007C0
78003F000780
78003F000780
78007F800780
7C007F800F80
3C007F800F00
3C007F800F00
3C00FFC00F00
3E00F3C01F00
1E00F3C01E00
1E00F3C01E00
1E01F3E01E00
0F01E1E03E00
0F01E1E03C00
0F01E1F03C00
0F83E0F07C00
0783C0F07800
0783C0F07800
0787C0F87800
07C78078F800
03C78078F000
03C78078F000
03CF807CF000
03EF003DF000
01EF003DE000
01EF003DE000
01FF001FE000
00FE001FE000
00FE001FC000
00FE001FC000
00FE000FC000
007C000F8000
007C000F8000
007C000F8000
ENDCHAR
STARTCHAR 0058
ENCODING 88
SWIDTH 630 0
DWIDTH 35 0
BBX 30 36 3 0
BITMAP
F800007C
7C0000F8
7C0001F0
3E0003E0
1F0003E0
1F0007C0
0F800F80
07C00F80
03E01F00
03E03E00
01F03E00
00F87C00
00F8F800
007DF000
003FF000
003FE000
001FC000
000FC000
000FC000
001FC000
001FE000
003FF000
007DF000
00F8F800
00F87C00
01F07C00
03E03E00
03E01F00
07C00F80
0F800F80
0F8007C0
1F0003E0
3E0003E0
7C0001F0
7C0000F8
F80000F8
ENDCHAR
STARTCHAR 0059
ENCODING 89
SWIDTH 630 0
DWIDTH 35 0
BBX 30 36 3 0
BITMAP
F800007C
7C0000F8
7C0001F0
3E0003E0
1F0003E0
1F0007C0
0F800F80
07C00F80
03E01F00
03E03E00
01F03E00
00F87C00
00F8F800
007DF000
003FF000
003FE000
001FC000
000FC000
00078000
00078000
00078000
00078000
00078000
00078000
00078000
00078000
00078000
00078000
00078000
00078000
00078000
00078000
00078000
00078000
00078000
00078000
ENDCHAR
STARTCHAR 005A
ENCODING 90
SWIDTH 522 0
DWIDTH 29 0
BBX 24 36 3 0
BITMAP
FFFFFF
FFFFFF
FFFFFF
FFFFFF
00001F
00003E
00003E
00007C
0000F8
0001F0
0001F0
0003E0
0007C0
0007C0
000F80
001F00
001F00
003E00
007C00
00F800
00F800
01F000
03E000
03E000
07C000
0F8000
0F8000
1F0000
3E0000
7C0000
7C0000
F80000
FFFFFF
FFFFFF
FFFFFF
FFFFFF
ENDCHAR
STARTCHAR 005B
ENCODING 91
SWIDTH 288 0
DWIDTH 16 0
BBX 11 47 3 -11
BITMAP
FFE0
FFE0
FFE0
FFE0
F000
F000
F000
F000
F000
F000
F000
F000
F000
F000
F000
F000
F000
F000
F000
F000
F000
F000
F000
F000
F000
F000
F000
F000
F000
F000
F000
F000
F000
F000
F000
F000
F000
F000
F000
F000
F000
F000
F000
FFE0
FFE0
FFE0
FFE0
ENDCHAR
STARTCHAR 005C
ENCODING 92
SWIDTH 396 0
DWIDTH 22 0
BBX 17 36 3 0
BITMAP
F00000
F80000
780000
780000
7C0000
3C0000
3C0000
3E0000
1E0000
1E0000
1F0000
0F0000
0F8000
078000
078000
07C000
03C000
03C000
03E000
01E000
01E000
01F000
00F000
00F800
007800
007800
007C00
003C00
003C00
003E00
001E00
001E00
001F00
000F00
000F80
000780
ENDCHAR
STARTCHAR 005D
ENCODING 93
SWIDTH 288 0
DWIDTH 16 0
BBX 11 47 3 -11
BITMAP
FFE0
FFE0
FFE0
FFE0
03E0
03E0
03E0
03E0
03E0
03E0
03E0
03E0
03E0
03E0
03E0
03E0
03E0
03E0
03E0
03E0
03E0
03E0
03E0
03E0
03E0
03E0
03E0
03E0
03E0
03E0
03E0
03E0
03E0
03E0
03E0
03E0
03E0
03E0
03E0
03E0
03E0
03E0
03E0
FFE0
FFE0
FFE0
FFE0
ENDCHAR
STARTCHAR 005E
ENCODING 94
SWIDTH 306 0
DWIDTH 17 0
BBX 12 11 3 25
BITMAP
0F00
1F00
1F80
3F80
3FC0
3FC0
7FC0
7BE0
79E0
F9E0
F1F0
ENDCHAR
STARTCHAR 005F
ENCODING 95
SWIDTH 504 0
DWIDTH 28 0
BBX 23 4 3 -4
BITMAP
FFFFFE
FFFFFE
FFFFFE
FFFFFE
ENDCHAR
STARTCHAR 0060
ENCODING 96
SWIDTH 252 0
DWIDTH 14 0
BBX 9 8 3 28
BITMAP
F800
7C00
3C00
1E00
0E00
0700
0300
0180
ENDCHAR
STARTCHAR 0061
ENCODING 97
SWIDTH 396 0
DWIDTH 22 0
BBX 17 26 3 -1
BITMAP
07F000
1FFC00
3FFE00
3FFF00
0C1F00
000F80
000780
000780
000780
000780
07FF80
1FFF80
3FFF80
7FFF80
FC0780
F80780
F00780
F00780
F00780
F00F80
F81F80
7FFF80
3FFF80
1FFF80
0FFF80
008000
ENDCHAR
STARTCHAR 0062
ENCODING 98
SWIDTH 486 0
DWIDTH 27 0
BBX 21 37 3 -1
BITMAP
F00000
F00000
F00000
F00000
F00000
F00000
F00000
F00000
F00000
F00000
F00000
F3FE00
F7FF00
FFFF80
FFFFC0
FF03E0
FC01F0
FC00F0
F800F8
F00078
F00078
F00078
F00078
F00078
F00078
F00078
F00078
F00078
F800F8
FC00F0
FC01F0
FE03E0
FFFFC0
FFFFC0
F7FF00
F3FE00
002000
ENDCHAR
STARTCHAR 0063
ENCODING 99
SWIDTH 450 0
DWIDTH 25 0
BBX 20 26 3 0
BITMAP
03FE00
07FF00
0FFF80
1FFFC0
3F03E0
7C01F0
7C00F0
F800C0
F00000
F00000
F00000
F00000
F00000
F00000
F00000
F00000
F00000
F800C0
7C00F0
7C01F0
3E03E0
1FFFC0
0FFFC0
07FF00
03FE00
002000
ENDCHAR
STARTCHAR 0064
ENCODING 100
SWIDTH 486 0
DWIDTH 27 0
BBX 21 37 3 -1
BITMAP
000078
000078
000078
000078
000078
000078
000078
000078
000078
000078
000078
03FE78
07FF78
0FFFF8
1FFFF8
3F03F8
7C01F8
7C00F8
F800F8
F00078
F00078
F00078
F00078
F00078
F00078
F00078
F00078
F00078
F800F8
7C00F8
7C01F8
3E03F8
1FFFF8
0FFFF8
07FF78
03FE78
002000
ENDCHAR
STARTCHAR 0065
ENCODING 101
SWIDTH 486 0
DWIDTH 27 0
BBX 21 26 3 0
BITMAP
03FE00
07FF00
0FFF80
1FFFC0
3E03E0
7C01F0
7C00F0
F800F8
F00078
FFFFF8
FFFFF8
FFFFF8
FFFFF8
F00000
F00000
F00000
F00000
F800C0
7C00F0
7C01F0
3E03E0
1FFFC0
0FFFC0
07FF00
03FE00
002000
ENDCHAR
STARTCHAR 0066
ENCODING 102
SWIDTH 306 0
DWIDTH 17 0
BBX 17 36 3 0
BITMAP
007F00
01FF80
03FF00
03FE00
07C200
078000
078000
078000
078000
078000
078000
078000
078000
FFF800
FFF800
FFF800
FFF800
078000
078000
078000
078000
078000
078000
078000
078000
078000
078000
078000
078000
078000
078000
078000
078000
078000
078000
078000
ENDCHAR
STARTCHAR 0067
ENCODING 103
SWIDTH 504 0
DWIDTH 28 0
BBX 25 36 3 -10
BITMAP
03FE0600
0FFF8F80
1FFFFF80
3FFFFF00
7E03FE00
F800F800
F8007800
F0007800
F0007800
F0007800
F0007800
F8007800
F800F800
7E03F000
3FFFF000
3FFFE000
7FFF8000
7BFE0000
F8000000
F8000000
7C000000
7FC00000
3FFF0000
0FFFE000
00FFF000
0003F800
0000F800
00007800
F0007800
F0007800
F800F800
7C01F800
7FFFF000
3FFFE000
1FFFC000
07FF0000
ENDCHAR
STARTCHAR 0068
ENCODING 104
SWIDTH 486 0
DWIDTH 27 0
BBX 21 36 3 0
BITMAP
F00000
F00000
F00000
F00000
F00000
F00000
F00000
F00000
F00000
F00000
F00000
F1FF00
F7FF80
FFFFC0
FFFFE0
FF01F0
FE01F0
FC00F0
F800F8
F80078
F00078
F00078
F00078
F00078
F00078
F00078
F00078
F00078
F00078
F00078
F00078
F00078
F00078
F00078
F00078
F00078
ENDCHAR
STARTCHAR 0069
ENCODING 105
SWIDTH 162 0
DWIDTH 9 0
BBX 6 35 2 0
BITMAP
30
F8
FC
FC
F8
78
00
00
00
00
78
78
78
78
78
78
78
78
78
78
78
78
78
78
78
78
78
78
78
78
78
78
78
78
78
ENDCHAR
STARTCHAR 006A
ENCODING 106
SWIDTH 162 0
DWIDTH 9 0
BBX 14 46 -6 -11
BITMAP
0030
00F8
00FC
00FC
00F8
0078
0000
0000
0000
0000
0078
0078
0078
0078
0078
0078
0078
0078
0078
0078
0078
0078
0078
0078
0078
0078
0078
0078
0078
0078
0078
0078
0078
0078
0078
0078
0078
0078
0078
0078
00F8
01F0
3FF0
7FE0
FFC0
3F80
ENDCHAR
STARTCHAR 006B
ENCODING 107
SWIDTH 432 0
DWIDTH 24 0
BBX 18 36 3 0
BITMAP
F00000
F00000
F00000
F00000
F00000
F00000
F00000
F00000
F00000
F00000
F00000
F01F00
F03E00
F07C00
F07C00
F0F800
F1F000
F3E000
F3E000
F7C000
FF8000
FF8000
FF8000
FFC000
FFE000
FFE000
F9F000
F0F800
F0F800
F07C00
F03E00
F01F00
F01F00
F00F80
F007C0
F007C0
ENDCHAR
STARTCHAR 006C
ENCODING 108
SWIDTH 234 0
DWIDTH 13 0
BBX 8 36 3 0
BITMAP
F0
F0
F0
F0
F0
F0
F0
F0
F0
F0
F0
F0
F0
F0
F0
F0
F0
F0
F0
F0
F0
F0
F0
F0
F0
F0
F0
F0
F0
F0
F0
F0
FF
FF
FF
7F
ENDCHAR
STARTCHAR 006D
ENCODING 109
SWIDTH 594 0
DWIDTH 33 0
BBX 28 25 3 1
BITMAP
F7F03F00
FFF8FFC0
FFFDFFC0
FFFDFFE0
FE1FE1E0
FC1FC1E0
F81F80F0
F80F80F0
F00F80F0
F00F00F0
F00F00F0
F00F00F0
F00F00F0
F00F00F0
F00F00F0
F00F00F0
F00F00F0
F00F00F0
F00F00F0
F00F00F0
F00F00F0
F00F00F0
F00F00F0
F00F00F0
F00F00F0
ENDCHAR
STARTCHAR 006E
ENCODING 110
SWIDTH 486 0
DWIDTH 27 0
BBX 21 25 3 1
BITMAP
F1FF00
F7FF80
FFFFC0
FFFFE0
FF01F0
FE01F0
FC00F0
F800F8
F80078
F00078
F00078
F00078
F00078
F00078
F00078
F00078
F00078
F00078
F00078
F00078
F00078
F00078
F00078
F00078
F00078
ENDCHAR
STARTCHAR 006F
ENCODING 111
SWIDTH 486 0
DWIDTH 27 0
BBX 21 26 3 0
BITMAP
03FE00
07FF00
0FFF80
1FFFC0
3F03E0
7C01F0
7C00F0
F800F8
F00078
F00078
F00078
F00078
F00078
F00078
F00078
F00078
F00078
F800F8
7C00F0
7C01F0
3E03E0
1FFFC0
0FFFC0
07FF00
03FE00
002000
ENDCHAR
STARTCHAR 0070
ENCODING 112
SWIDTH 486 0
DWIDTH 27 0
BBX 21 37 3 -11
BITMAP
F3FE00
F7FF00
FFFF80
FFFFC0
FF03E0
FC01F0
FC00F0
F800F8
F00078
F00078
F00078
F00078
F00078
F00078
F00078
F00078
F00078
F800F8
FC00F0
FC01F0
FE03E0
FFFFC0
FFFFC0
F7FF00
F3FE00
F02000
F00000
F00000
F00000
F00000
F00000
F00000
F00000
F00000
F00000
700000
100000
ENDCHAR
STARTCHAR 0071
ENCODING 113
SWIDTH 486 0
DWIDTH 27 0
BBX 21 37 3 -11
BITMAP
03FE78
07FF78
0FFFF8
1FFFF8
3F03F8
7C01F8
7C00F8
F800F8
F00078
F00078
F00078
F00078
F00078
F00078
F00078
F00078
F00078
F800F8
7C00F8
7C01F8
3E03F8
1FFFF8
0FFFF8
07FF78
03FE78
002078
000078
000078
000078
000078
000078
000078
000078
000078
000078
000018
000008
ENDCHAR
STARTCHAR 0072
ENCODING 114
SWIDTH 324 0
DWIDTH 18 0
BBX 13 25 3 1
BITMAP
F1F8
F7F8
FFF8
FFF0
FF00
FE00
FC00
F800
F800
F000
F000
F000
F000
F000
F000
F000
F000
F000
F000
F000
F000
F000
F000
F000
F000
ENDCHAR
STARTCHAR 0073
ENCODING 115
SWIDTH 378 0
DWIDTH 21 0
BBX 16 26 3 0
BITMAP
0FF0
1FF8
3FFC
7FFE
783E
F81E
F000
7800
7C00
7F00
3FC0
0FF0
03FC
00FE
003E
001F
000F
F00F
F00F
F01F
F83E
7FFE
7FFC
3FF8
0FF0
0100
ENDCHAR
STARTCHAR 0074
ENCODING 116
SWIDTH 324 0
DWIDTH 18 0
BBX 13 32 3 0
BITMAP
0080
0180
0780
0780
0780
0780
0780
FFF8
FFF8
FFF8
FFF8
0780
0780
0780
0780
0780
0780
0780
0780
0780
0780
0780
0780
0780
0780
0780
0780
0780
07F8
07F8
07F8
03F8
ENDCHAR
STARTCHAR 0075
ENCODING 117
SWIDTH 486 0
DWIDTH 27 0
BBX 21 26 3 -1
BITMAP
F00078
F00078
F00078
F00078
F00078
F00078
F00078
F00078
F00078
F00078
F00078
F00078
F00078
F00078
F00078
F00078
F000F8
F800F8
7801F8
7C03F8
7E07F8
3FFFF8
1FFFF8
0FFF78
07FC78
004000
ENDCHAR
STARTCHAR 0076
ENCODING 118
SWIDTH 486 0
DWIDTH 27 0
BBX 22 25 3 0
BITMAP
F0003C
F8007C
780078
780078
7C00F8
3C00F0
3C00F0
3E01F0
1E01E0
1F03E0
0F03C0
0F03C0
0F87C0
078780
078780
07CF80
03CF00
03CF00
03FF00
01FE00
01FE00
00FC00
00FC00
00FC00
007800
ENDCHAR
STARTCHAR 0077
ENCODING 119
SWIDTH 648 0
DWIDTH 36 0
BBX 31 25 3 0
BITMAP
F007803E
F007C03C
F80FC03C
780FC03C
780FE07C
780FE078
7C1FE078
3C1FE078
3C1FF0F0
3C1EF0F0
1E3EF0F0
1E3CF1F0
1E3CF9E0
1F7C79E0
0F7879E0
0F787FE0
0F783FC0
0FF83FC0
07F03FC0
07F03FC0
07F01F80
07F01F80
03E01F80
03E01F00
03E00F00
ENDCHAR
STARTCHAR 0078
ENCODING 120
SWIDTH 486 0
DWIDTH 27 0
BBX 22 25 3 0
BITMAP
F8007C
7C00F8
7C01F0
3E01F0
1F03E0
0F07C0
0F87C0
07CF80
03FF00
03FF00
01FE00
00FC00
00F800
00FC00
01FE00
03FF00
03FF00
07CF80
0F87C0
0F87C0
1F03E0
3E01F0
7C01F0
7C00F8
F8007C
ENDCHAR
STARTCHAR 0079
ENCODING 121
SWIDTH 486 0
DWIDTH 27 0
BBX 22 36 3 -11
BITMAP
F0003C
F8007C
780078
780078
7C00F8
3C00F0
3C01F0
3E01E0
1E01E0
1E03E0
0F03C0
0F03C0
0F87C0
078780
078780
07CF80
03CF00
03DF00
03FE00
01FE00
01FE00
00FC00
00FC00
00FC00
007800
007800
00F800
00F000
00F000
01E000
01E000
03E000
3FC000
3FC000
3F8000
7E0000
ENDCHAR
STARTCHAR 007A
ENCODING 122
SWIDTH 396 0
DWIDTH 22 0
BBX 17 25 3 0
BITMAP
FFFF80
FFFF80
FFFF80
FFFF80
001F00
001F00
003E00
007C00
00F800
00F800
01F000
03E000
03E000
07C000
0F8000
0F8000
1F0000
3E0000
7C0000
7C0000
F80000
FFFF80
FFFF80
FFFF80
FFFF80
ENDCHAR
STARTCHAR 007B
ENCODING 123
SWIDTH 288 0
DWIDTH 16 0
BBX 11 47 3 -11
BITMAP
01E0
03E0
07E0
0FE0
0F80
1F00
1E00
1E00
1E00
1E00
1E00
1E00
1E00
1E00
1E00
1E00
1E00
1E00
1E00
1E00
3E00
FC00
FC00
F800
FC00
FC00
3E00
1E00
1E00
1E00
1E00
1E00
1E00
1E00
1E00
1E00
1E00
1E00
1E00
1E00
1E00
1F00
0F80
0FE0
07E0
03E0
01E0
ENDCHAR
STARTCHAR 007C
ENCODING 124
SWIDTH 162 0
DWIDTH 9 0
BBX 4 47 3 -11
BITMAP
F0
F0
F0
F0
F0
F0
F0
F0
F0
F0
F0
F0
F0
F0
F0
F0
F0
F0
F0
F0
F0
F0
F0
F0
F0
F0
F0
F0
F0
F0
F0
F0
F0
F0
F0
F0
F0
F0
F0
F0
F0
F0
F0
F0
F0
F0
F0
ENDCHAR
STARTCHAR 007D
ENCODING 125
SWIDTH 288 0
DWIDTH 16 0
BBX 11 47 3 -11
BITMAP
E000
F800
FC00
FC00
3E00
1E00
1E00
1E00
1E00
1E00
1E00
1E00
1E00
1E00
1E00
1E00
1E00
1E00
1E00
1F00
0F00
0FE0
07E0
03E0
07E0
0FE0
0F00
1F00
1E00
1E00
1E00
1E00
1E00
1E00
1E00
1E00
1E00
1E00
1E00
1E00
1E00
1E00
3E00
FC00
FC00
F800
E000
ENDCHAR
STARTCHAR 007E
ENCODING 126
SWIDTH 576 0
DWIDTH 32 0
BBX 27 10 3 13
BITMAP
07800000
1FF00000
3FF801E0
7FFE01E0
FCFF03E0
F83FC7C0
F00FFFC0
F007FF80
0003FF00
00007C00
ENDCHAR
STARTCHAR 00A0
ENCODING 160
SWIDTH 234 0
DWIDTH 13 0
BBX 0 0 0 0
BITMAP
ENDCHAR
STARTCHAR 00A1
ENCODING 161
SWIDTH 162 0
DWIDTH 9 0
BBX 6 36 2 -10
BITMAP
F8
F8
FC
F8
F8
00
00
00
00
00
00
78
78
78
78
78
78
78
78
78
78
78
78
78
78
78
78
78
78
78
78
78
78
78
78
78
ENDCHAR
STARTCHAR 00A2
ENCODING 162
SWIDTH 450 0
DWIDTH 25 0
BBX 20 35 3 -5
BITMAP
0003C0
0003C0
0007C0
000780
000F80
03FF00
07FF00
0FFFC0
1FFFC0
3F1FE0
7C3FF0
7C3CF0
F83CC0
F07C00
F07800
F0F800
F0F000
F0F000
F1F000
F1E000
F1E000
F3E000
FBC0C0
7FC0F0
7FC1F0
3F83E0
1FFFC0
0FFFC0
0FFF00
1FFE00
1E6000
1E0000
3E0000
3C0000
3C0000
ENDCHAR
STARTCHAR 00A3
ENCODING 163
SWIDTH 504 0
DWIDTH 28 0
BBX 23 36 3 0
BITMAP
007F80
00FFE0
03FFF0
03FFF8
07C0FC
0F807C
0F003E
1F0018
1E0010
1E0000
1E0000
3E0000
3E0000
3E0000
1E0000
1E0000
FFFF00
FFFF00
FFFF00
FFFF00
078000
078000
078000
078000
078000
078000
078000
078000
0F0000
0F0000
1F0000
3E0000
FFFFFE
FFFFFE
FFFFFE
FFFFFE
ENDCHAR
STARTCHAR 00A4
ENCODING 164
SWIDTH 522 0
DWIDTH 29 0
BBX 25 25 2 6
BITMAP
30000300
78000780
FC000F80
7E7F9F00
3FFFFE00
1FFFFC00
0FFFF800
07C0F800
0F807C00
0F003C00
0F003C00
1F003C00
1F003C00
0F003C00
0F003C00
0F807C00
0FC0F800
07FFF800
0FFFFC00
1FFFFE00
3EFFBF00
7C1C1F80
78000F80
30000700
00000200
ENDCHAR
STARTCHAR 00A5
ENCODING 165
SWIDTH 630 0
DWIDTH 35 0
BBX 30 36 3 0
BITMAP
F800007C
7C0000F8
7C0001F0
3E0003E0
1F0003E0
1F0007C0
0F800F80
07C00F80
03E01F00
03E03E00
01F03E00
00F87C00
00F8F800
007DF000
003FF000
003FE000
001FC000
1FFFFFE0
1FFFFFE0
1FFFFFE0
1FFFFFE0
00078000
00078000
00078000
1FFFFFE0
1FFFFFE0
1FFFFFE0
1FFFFFE0
00078000
00078000
00078000
00078000
00078000
00078000
00078000
00078000
ENDCHAR
STARTCHAR 00A6
ENCODING 166
SWIDTH 162 0
DWIDTH 9 0
BBX 4 47 3 -11
BITMAP
F0
F0
F0
F0
F0
F0
F0
F0
F0
F0
F0
F0
F0
F0
F0
F0
F0
F0
00
00
00
00
00
00
00
00
00
00
00
F0
F0
F0
F0
F0
F0
F0
F0
F0
F0
F0
F0
F0
F0
F0
F0
F0
F0
ENDCHAR
STARTCHAR 00A7
ENCODING 167
SWIDTH 486 0
DWIDTH 27 0
BBX 21 47 3 -11
BITMAP
03FE00
07FF00
0FFF80
1FFFC0
3F07E0
3C01E0
7C01F0
7800F0
7800F0
780000
780000
7C0000
3E0000
3F0000
3F8000
7FE000
7FFC00
FBFF00
F0FF80
F01FC0
F00FE0
F003F0
F001F8
F800F8
FC0078
7E0078
3F8078
1FC078
0FF878
07FEF8
01FFF8
003FF0
000FE0
0007E0
0003E0
0001F0
0000F0
0000F0
7800F0
7800F0
7C01F0
3E01E0
3F03E0
1FFFC0
0FFF80
07FF00
01FE00
ENDCHAR
STARTCHAR 00A8
ENCODING 168
SWIDTH 360 0
DWIDTH 20 0
BBX 15 6 3 29
BITMAP
3018
F87C
FC7E
FC7E
F87E
783C
ENDCHAR
STARTCHAR 00A9
ENCODING 169
SWIDTH 756 0
DWIDTH 42 0
BBX 37 37 3 -1
BITMAP
000FFF0000
003FFFC000
00FFFFF000
01FFFFF800
03F801FE00
07E0007F00
0FC0001F80
1F00000F80
3E000007C0
3E00F003E0
7C03FC03E0
7807FE01E0
7807FF01F0
F00F8F80F0
F00F0600F0
F01F0400F0
F01E0000F8
F01E000078
F01E000078
F01E0000F8
F01E0000F0
F01F0600F0
F00F8F80F0
F80FFF00F0
7807FF01F0
7C03FE01E0
3C00F803E0
3E000007C0
1F00000F80
0F80001F80
0FE0007F00
07F801FE00
01FFFFFC00
00FFFFF000
003FFFE000
000FFF8000
0000A00000
ENDCHAR
STARTCHAR 00AA
ENCODING 170
SWIDTH 288 0
DWIDTH 16 0
BBX 11 19 3 19
BITMAP
1F00
3F80
3FC0
11C0
01C0
1FC0
3FC0
7FC0
71C0
61C0
73C0
7FC0
3FC0
0E00
0000
0000
FFE0
FFE0
FFE0
ENDCHAR
STARTCHAR 00AB
ENCODING 171
SWIDTH 414 0
DWIDTH 23 0
BBX 17 19 3 3
BITMAP
004080
00C100
018300
030600
060C00
0E1C00
1C3800
387000
78E000
F1E000
70E000
387000
1C3800
0E1800
060C00
030600
018300
008100
004080
ENDCHAR
STARTCHAR 00AC
ENCODING 172
SWIDTH 522 0
DWIDTH 29 0
BBX 24 12 3 8
BITMAP
FFFFFF
FFFFFF
FFFFFF
FFFFFF
00000F
00000F
00000F
00000F
00000F
00000F
00000F
00000F
ENDCHAR
STARTCHAR 00AD
ENCODING 173
SWIDTH 324 0
DWIDTH 18 0
BBX 13 5 3 10
BITMAP
FFF8
FFF8
FFF8
FFF8
FFF8
ENDCHAR
STARTCHAR 00AE
ENCODING 174
SWIDTH 756 0
DWIDTH 42 0
BBX 37 37 3 -1
BITMAP
000FFF0000
003FFFC000
00FFFFF000
01FFFFF800
03F801FE00
07E0007F00
0FC0001F80
1F00000F80
3E000007C0
3E000003E0
7C07FC03E0
7807FE01E0
7807FF01F0
F007FF80F0
F0078780F0
F0078780F0
F0078F80F8
F007FF0078
F007FF0078
F007FE00F8
F007FE00F0
F0079E00F0
F0079F00F0
F8078F80F0
78078F81F0
7C0787C1E0
3C0783C3E0
3E000007C0
1F00000F80
0F80001F80
0FE0007F00
07F801FE00
01FFFFFC00
00FFFFF000
003FFFE000
000FFF8000
0000A00000
ENDCHAR
STARTCHAR 00AF
ENCODING 175
SWIDTH 324 0
DWIDTH 18 0
BBX 13 4 3 29
BITMAP
FFF8
FFF8
FFF8
FFF8
ENDCHAR
STARTCHAR 00B0
ENCODING 176
SWIDTH 360 0
DWIDTH 20 0
BBX 15 15 3 21
BITMAP
0FE0
3FF0
7FF8
7FFC
F87C
F03E
F01E
F01E
F01E
F83E
FC7C
7FFC
3FF8
1FF0
07C0
ENDCHAR
STARTCHAR 00B1
ENCODING 177
SWIDTH 522 0
DWIDTH 29 0
BBX 24 31 3 2
BITMAP
003C00
003C00
003C00
003C00
003C00
003C00
003C00
003C00
003C00
003C00
FFFFFF
FFFFFF
FFFFFF
FFFFFF
003C00
003C00
003C00
003C00
003C00
003C00
003C00
003C00
003C00
003C00
003C00
000000
000000
FFFFFF
FFFFFF
FFFFFF
FFFFFF
ENDCHAR
STARTCHAR 00B2
ENCODING 178
SWIDTH 270 0
DWIDTH 15 0
BBX 10 18 3 26
BITMAP
3F00
7F80
F3C0
E1C0
E1C0
01C0
01C0
0380
0780
0F00
3E00
7800
7000
E000
E000
E000
FFC0
FFC0
ENDCHAR
STARTCHAR 00B3
ENCODING 179
SWIDTH 288 0
DWIDTH 16 0
BBX 11 19 3 25
BITMAP
3F00
7F80
F3C0
E1C0
E1C0
01C0
03C0
0780
0780
07C0
01C0
00E0
00E0
00E0
E0E0
F3C0
7FC0
3F80
1C00
ENDCHAR
STARTCHAR 00B4
ENCODING 180
SWIDTH 252 0
DWIDTH 14 0
BBX 9 8 3 28
BITMAP
0F80
1F00
1E00
3C00
3800
7000
6000
C000
ENDCHAR
STARTCHAR 00B5
ENCODING 181
SWIDTH 486 0
DWIDTH 27 0
BBX 21 37 3 -12
BITMAP
F00078
F00078
F00078
F00078
F00078
F00078
F00078
F00078
F00078
F00078
F00078
F00078
F00078
F00078
F00078
F00078
F000F8
F800F8
F801F8
FC01F8
FE07F8
FFFFF8
FFFFF8
FFFF78
F3FE78
F02000
F00000
F00000
F00000
F00000
F00000
F00000
F00000
F00000
F00000
700000
100000
ENDCHAR
STARTCHAR 00B6
ENCODING 182
SWIDTH 504 0
DWIDTH 28 0
BBX 21 47 3 -11
BITMAP
01FFF8
0FFFF8
1FFFF8
3FFFF8
7FFC78
7FFC78
FFFC78
FFFC78
FFFC78
FFFC78
FFFC78
FFFC78
FFFC78
7FFC78
7FFC78
3FFC78
1FFC78
0FFC78
03FC78
003C78
003C78
003C78
003C78
003C78
003C78
003C78
003C78
003C78
003C78
003C78
003C78
003C78
003C78
003C78
003C78
003C78
003C78
003C78
003C78
003C78
003C78
003C78
003C78
003C78
003C78
003C78
003C78
ENDCHAR
STARTCHAR 00B7
ENCODING 183
SWIDTH 198 0
DWIDTH 11 0
BBX 6 6 3 15
BITMAP
70
F8
FC
FC
F8
70
ENDCHAR
STARTCHAR 00B8
ENCODING 184
SWIDTH 288 0
DWIDTH 16 0
BBX 11 12 3 -11
BITMAP
0E00
1C00
1C00
1F00
3F80
03C0
00E0
00E0
01C0
C7C0
FF80
FF00
ENDCHAR
STARTCHAR 00B9
ENCODING 185
SWIDTH 270 0
DWIDTH 15 0
BBX 9 18 3 25
BITMAP
1C00
3C00
FC00
FC00
FC00
1C00
1C00
1C00
1C00
1C00
1C00
1C00
1C00
1C00
1C00
1C00
FF80
FF80
ENDCHAR
STARTCHAR 00BA
ENCODING 186
SWIDTH 324 0
DWIDTH 18 0
BBX 13 19 3 19
BITMAP
0F80
1FC0
3FE0
78E0
7070
7070
6070
6070
7070
7070
78E0
3FE0
1FC0
0700
0000
0000
FFF8
FFF8
FFF8
ENDCHAR
STARTCHAR 00BB
ENCODING 187
SWIDTH 414 0
DWIDTH 23 0
BBX 17 19 3 3
BITMAP
C10000
608000
70C000
386000
1C3000
0E3800
0F1C00
078E00
03C700
03E780
03C700
078E00
0F1C00
0E3800
1C3000
386000
30C000
608000
C10000
ENDCHAR
STARTCHAR 00BC
ENCODING 188
SWIDTH 486 0
DWIDTH 27 0
BBX 21 46 3 -5
BITMAP
007000
007000
00F000
03F000
03F000
007000
007000
007000
007000
007000
007000
007000
007000
007000
007000
007000
03FE00
03FE00
03FE00
000000
000000
000000
FFFFF8
FFFFF8
000000
000000
000000
001C00
003C00
003C00
007C00
00FC00
01FC00
01DC00
03DC00
079C00
071C00
0E1C00
0FFF80
0FFF80
001C00
001C00
001C00
001C00
001C00
001C00
ENDCHAR
STARTCHAR 00BD
ENCODING 189
SWIDTH 486 0
DWIDTH 27 0
BBX 21 46 3 -5
BITMAP
007000
007000
00F000
03F000
03F000
007000
007000
007000
007000
007000
007000
007000
007000
007000
007000
007000
03FE00
03FE00
03FE00
000000
000000
000000
FFFFF8
FFFFF8
000000
000000
000000
007000
01FC00
03FE00
038E00
030700
070700
000700
000E00
001E00
003C00
007800
00F000
01E000
03C000
038000
030000
07FF00
07FF00
07FF00
ENDCHAR
STARTCHAR 00BE
ENCODING 190
SWIDTH 486 0
DWIDTH 27 0
BBX 21 46 3 -5
BITMAP
00F000
01FC00
03FE00
078E00
070E00
070600
000E00
001E00
003C00
003E00
003E00
000700
000700
000700
030700
070F00
03FE00
03FE00
01F800
000000
000000
000000
FFFFF8
FFFFF8
000000
000000
000000
001C00
003C00
003C00
007C00
00FC00
01FC00
01DC00
03DC00
079C00
071C00
0E1C00
0FFF80
0FFF80
001C00
001C00
001C00
001C00
001C00
001C00
ENDCHAR
STARTCHAR 00BF
ENCODING 191
SWIDTH 432 0
DWIDTH 24 0
BBX 19 36 3 -10
BITMAP
01E000
03F000
03F000
03F000
01E000
000000
000000
000000
000000
000000
01E000
01E000
01E000
03E000
03C000
07C000
0F8000
0F8000
1F0000
3E0000
7E0000
7C0000
F80000
F80000
F00000
F00000
F00000
F001E0
F003E0
F003C0
F807C0
7C0F80
7FFF80
3FFF00
1FFE00
07F800
ENDCHAR
STARTCHAR 00C0
ENCODING 192
SWIDTH 630 0
DWIDTH 35 0
BBX 30 47 3 0
BITMAP
007C0000
003C0000
001E0000
000F0000
00070000
00038000
00018000
0000C000
00000000
00000000
00000000
00078000
000FC000
000FC000
000FC000
001FE000
001FE000
003FE000
003DF000
003CF000
007CF800
00787800
00787800
00F87C00
00F03C00
00F03C00
01F03E00
01E01E00
03E01E00
03C01F00
03FFFF00
07FFFF80
07FFFF80
07FFFF80
0F8007C0
0F0003C0
0F0003C0
1F0003E0
1E0001E0
3E0001E0
3C0001F0
3C0000F0
7C0000F8
78000078
78000078
F800007C
F000003C
ENDCHAR
STARTCHAR 00C1
ENCODING 193
SWIDTH 630 0
DWIDTH 35 0
BBX 30 47 3 0
BITMAP
0000F800
0001F000
0001E000
0003C000
00038000
00070000
00060000
000C0000
00000000
00000000
00000000
00078000
000FC000
000FC000
000FC000
001FE000
001FE000
003FE000
003DF000
003CF000
007CF800
00787800
00787800
00F87C00
00F03C00
00F03C00
01F03E00
01E01E00
03E01E00
03C01F00
03FFFF00
07FFFF80
07FFFF80
07FFFF80
0F8007C0
0F0003C0
0F0003C0
1F0003E0
1E0001E0
3E0001E0
3C0001F0
3C0000F0
7C0000F8
78000078
78000078
F800007C
F000003C
ENDCHAR
STARTCHAR 00C2
ENCODING 194
SWIDTH 630 0
DWIDTH 35 0
BBX 30 47 3 0
BITMAP
000FC000
000FC000
001FE000
001CE000
00387000
00303000
00601800
00400800
00000000
00000000
00000000
00078000
000FC000
000FC000
000FC000
001FE000
001FE000
003FE000
003DF000
003CF000
007CF800
00787800
00787800
00F87C00
00F03C00
00F03C00
01F03E00
01E01E00
03E01E00
03C01F00
03FFFF00
07FFFF80
07FFFF80
07FFFF80
0F8007C0
0F0003C0
0F0003C0
1F0003E0
1E0001E0
3E0001E0
3C0001F0
3C0000F0
7C0000F8
78000078
78000078
F800007C
F000003C
ENDCHAR
STARTCHAR 00C3
ENCODING 195
SWIDTH 630 0
DWIDTH 35 0
BBX 30 46 3 0
BITMAP
00F00300
01FC0300
03FF0300
038FC700
0303FE00
0701FE00
07001800
00000000
00000000
00000000
00078000
000FC000
000FC000
000FC000
001FE000
001FE000
003FE000
003DF000
003CF000
007CF800
00787800
00787800
00F87C00
00F03C00
00F03C00
01F03E00
01E01E00
03E01E00
03C01F00
03FFFF00
07FFFF80
07FFFF80
07FFFF80
0F8007C0
0F0003C0
0F0003C0
1F0003E0
1E0001E0
3E0001E0
3C0001F0
3C0000F0
7C0000F8
78000078
78000078
F800007C
F000003C
ENDCHAR
STARTCHAR 00C4
ENCODING 196
SWIDTH 630 0
DWIDTH 35 0
BBX 30 46 3 0
BITMAP
00201000
00F87C00
01F87C00
01F87E00
00F87C00
00F07C00
00000000
00000000
00000000
00000000
00078000
000FC000
000FC000
000FC000
001FE000
001FE000
003FE000
003DF000
003CF000
007CF800
00787800
00787800
00F87C00
00F03C00
00F03C00
01F03E00
01E01E00
03E01E00
03C01F00
03FFFF00
07FFFF80
07FFFF80
07FFFF80
0F8007C0
0F0003C0
0F0003C0
1F0003E0
1E0001E0
3E0001E0
3C0001F0
3C0000F0
7C0000F8
78000078
78000078
F800007C
F000003C
ENDCHAR
STARTCHAR 00C5
ENCODING 197
SWIDTH 630 0
DWIDTH 35 0
BBX 30 47 3 0
BITMAP
000FC000
001FE000
001CE000
00387000
00387000
00387000
001FE000
001FE000
00078000
00000000
00000000
00078000
000FC000
000FC000
000FC000
001FE000
001FE000
003FE000
003DF000
003CF000
007CF800
00787800
00787800
00F87C00
00F03C00
00F03C00
01F03E00
01E01E00
03E01E00
03C01F00
03FFFF00
07FFFF80
07FFFF80
07FFFF80
0F8007C0
0F0003C0
0F0003C0
1F0003E0
1E0001E0
3E0001E0
3C0001F0
3C0000F0
7C0000F8
78000078
78000078
F800007C
F000003C
ENDCHAR
STARTCHAR 00C6
ENCODING 198
SWIDTH 720 0
DWIDTH 40 0
BBX 35 36 3 0
BITMAP
0007FFFFE0
000FFFFFE0
000FFFFFE0
000FFFFFE0
001F3C0000
001E3C0000
003E3C0000
003C3C0000
003C3C0000
007C3C0000
00783C0000
00783C0000
00F83C0000
00F03C0000
00F03C0000
01F03C0000
01FFFFFF00
03FFFFFF00
03FFFFFF00
03FFFFFF00
07C03C0000
07803C0000
07803C0000
0F803C0000
0F003C0000
0F003C0000
1F003C0000
1E003C0000
3E003C0000
3C003C0000
3C003C0000
7C003C0000
78003FFFE0
78003FFFE0
F8003FFFE0
F0003FFFE0
ENDCHAR
STARTCHAR 00C7
ENCODING 199
SWIDTH 576 0
DWIDTH 32 0
BBX 27 47 3 -11
BITMAP
003FE000
00FFF800
01FFFE00
07FFFF00
07E03F80
0F800FC0
1F0007C0
3E0003E0
3E0001C0
7C000180
78000000
78000000
F8000000
F0000000
F0000000
F0000000
F0000000
F0000000
F0000000
F0000000
F0000000
F0000000
F0000000
F8000000
78000000
78000000
7C000180
3C0001C0
3E0003E0
1F0007C0
0F800FC0
0FE01F80
07FFFF00
03FFFE00
00FFFC00
007FF000
00070000
000F0000
000FC000
000FE000
0000F000
00007000
00007000
00007000
0031E000
003FE000
007F8000
ENDCHAR
STARTCHAR 00C8
ENCODING 200
SWIDTH 504 0
DWIDTH 28 0
BBX 23 47 3 0
BITMAP
07C000
03E000
01E000
00F000
007000
003800
001800
000C00
000000
000000
000000
FFFFFE
FFFFFE
FFFFFE
FFFFFE
F00000
F00000
F00000
F00000
F00000
F00000
F00000
F00000
F00000
F00000
F00000
F00000
FFFFE0
FFFFE0
FFFFE0
FFFFE0
F00000
F00000
F00000
F00000
F00000
F00000
F00000
F00000
F00000
F00000
F00000
F00000
FFFFFE
FFFFFE
FFFFFE
FFFFFE
ENDCHAR
STARTCHAR 00C9
ENCODING 201
SWIDTH 504 0
DWIDTH 28 0
BBX 23 47 3 0
BITMAP
000F80
000F00
001E00
001C00
003800
007000
006000
00C000
000000
000000
000000
FFFFFE
FFFFFE
FFFFFE
FFFFFE
F00000
F00000
F00000
F00000
F00000
F00000
F00000
F00000
F00000
F00000
F00000
F00000
FFFFE0
FFFFE0
FFFFE0
FFFFE0
F00000
F00000
F00000
F00000
F00000
F00000
F00000
F00000
F00000
F00000
F00000
F00000
FFFFFE
FFFFFE
FFFFFE
FFFFFE
ENDCHAR
STARTCHAR 00CA
ENCODING 202
SWIDTH 504 0
DWIDTH 28 0
BBX 23 47 3 0
BITMAP
00FC00
00FC00
01FE00
01EE00
038700
030300
060180
040080
000000
000000
000000
FFFFFE
FFFFFE
FFFFFE
FFFFFE
F00000
F00000
F00000
F00000
F00000
F00000
F00000
F00000
F00000
F00000
F00000
F00000
FFFFE0
FFFFE0
FFFFE0
FFFFE0
F00000
F00000
F00000
F00000
F00000
F00000
F00000
F00000
F00000
F00000
F00000
F00000
FFFFFE
FFFFFE
FFFFFE
FFFFFE
ENDCHAR
STARTCHAR 00CB
ENCODING 203
SWIDTH 504 0
DWIDTH 28 0
BBX 23 46 3 0
BITMAP
020180
0F87C0
0F87E0
0F87E0
0F87E0
0F83C0
000000
000000
000000
000000
FFFFFE
FFFFFE
FFFFFE
FFFFFE
F00000
F00000
F00000
F00000
F00000
F00000
F00000
F00000
F00000
F00000
F00000
F00000
FFFFE0
FFFFE0
FFFFE0
FFFFE0
F00000
F00000
F00000
F00000
F00000
F00000
F00000
F00000
F00000
F00000
F00000
F00000
FFFFFE
FFFFFE
FFFFFE
FFFFFE
ENDCHAR
STARTCHAR 00CC
ENCODING 204
SWIDTH 306 0
DWIDTH 17 0
BBX 13 47 2 0
BITMAP
F800
7C00
3C00
1E00
0F00
0700
0380
0180
0000
0000
0000
FFF8
FFF8
FFF8
FFF8
0F00
0F00
0F00
0F00
0F00
0F00
0F00
0F00
0F00
0F00
0F00
0F00
0F00
0F00
0F00
0F00
0F00
0F00
0F00
0F00
0F00
0F00
0F00
0F00
0F00
0F00
0F00
0F00
FFF8
FFF8
FFF8
FFF8
ENDCHAR
STARTCHAR 00CD
ENCODING 205
SWIDTH 306 0
DWIDTH 17 0
BBX 13 47 2 0
BITMAP
01F8
01F0
03E0
03C0
0700
0600
0C00
0800
0000
0000
0000
FFF8
FFF8
FFF8
FFF8
0F00
0F00
0F00
0F00
0F00
0F00
0F00
0F00
0F00
0F00
0F00
0F00
0F00
0F00
0F00
0F00
0F00
0F00
0F00
0F00
0F00
0F00
0F00
0F00
0F00
0F00
0F00
0F00
FFF8
FFF8
FFF8
FFF8
ENDCHAR
STARTCHAR 00CE
ENCODING 206
SWIDTH 306 0
DWIDTH 17 0
BBX 13 47 2 0
BITMAP
0F80
1FC0
1FC0
3DE0
38E0
7070
6030
C018
0000
0000
0000
FFF8
FFF8
FFF8
FFF8
0F00
0F00
0F00
0F00
0F00
0F00
0F00
0F00
0F00
0F00
0F00
0F00
0F00
0F00
0F00
0F00
0F00
0F00
0F00
0F00
0F00
0F00
0F00
0F00
0F00
0F00
0F00
0F00
FFF8
FFF8
FFF8
FFF8
ENDCHAR
STARTCHAR 00CF
ENCODING 207
SWIDTH 306 0
DWIDTH 17 0
BBX 15 46 1 0
BITMAP
2008
F83C
FC7E
FC7E
FC7E
783C
0000
0000
0000
0000
7FFC
7FFC
7FFC
7FFC
0780
0780
0780
0780
0780
0780
0780
0780
0780
0780
0780
0780
0780
0780
0780
0780
0780
0780
0780
0780
0780
0780
0780
0780
0780
0780
0780
0780
7FFC
7FFC
7FFC
7FFC
ENDCHAR
STARTCHAR 00D0
ENCODING 208
SWIDTH 630 0
DWIDTH 35 0
BBX 30 36 3 0
BITMAP
FFFF8000
FFFFF000
FFFFFC00
FFFFFE00
0F007F00
0F001F80
0F0007C0
0F0003E0
0F0001E0
0F0000F0
0F0000F0
0F000078
0F000078
0F000038
0F000038
0F000038
FFFF0038
FFFF003C
FFFF003C
FFFF003C
0F000038
0F000038
0F000038
0F000078
0F000078
0F0000F0
0F0000F0
0F0001E0
0F0003E0
0F0007C0
0F000F80
0F003F80
FFFFFF00
FFFFFC00
FFFFF800
FFFFC000
ENDCHAR
STARTCHAR 00D1
ENCODING 209
SWIDTH 594 0
DWIDTH 33 0
BBX 28 46 3 0
BITMAP
01E00600
03F80600
07FE0600
071F8E00
0607FC00
0E03FC00
0E007000
00000000
00000000
00000000
F00000F0
F80000F0
F80000F0
FC0000F0
FE0000F0
FF0000F0
FF0000F0
FF8000F0
F7C000F0
F7C000F0
F3E000F0
F1F000F0
F1F000F0
F0F800F0
F07C00F0
F03E00F0
F03E00F0
F01F00F0
F00F80F0
F00F80F0
F007C0F0
F003E0F0
F003E0F0
F001F0F0
F000F8F0
F0007CF0
F0007CF0
F0003EF0
F0001FF0
F0001FF0
F0000FF0
F00007F0
F00007F0
F00003F0
F00001F0
F00000F0
ENDCHAR
STARTCHAR 00D2
ENCODING 210
SWIDTH 630 0
DWIDTH 35 0
BBX 30 48 3 -1
BITMAP
00FC0000
007C0000
001E0000
000E0000
00070000
00030000
00018000
00008000
00000000
00000000
00000000
003FE000
00FFF800
01FFFE00
07FFFF00
07E03F80
0F800FC0
1F0007C0
3E0003E0
3E0001E0
7C0001F0
780000F0
780000F8
F8000078
F0000078
F0000078
F0000078
F0000078
F000007C
F000007C
F000007C
F0000078
F0000078
F0000078
F8000078
780000F8
780000F0
7C0001F0
3C0001F0
3E0003E0
1F0007C0
0F800FC0
0FE01F80
07FFFF00
03FFFE00
00FFFC00
007FF000
00020000
ENDCHAR
STARTCHAR 00D3
ENCODING 211
SWIDTH 630 0
DWIDTH 35 0
BBX 30 48 3 -1
BITMAP
0000F800
0001F000
0001E000
0003C000
00038000
00070000
000E0000
000C0000
00000000
00000000
00000000
003FE000
00FFF800
01FFFE00
07FFFF00
07E03F80
0F800FC0
1F0007C0
3E0003E0
3E0001E0
7C0001F0
780000F0
780000F8
F8000078
F0000078
F0000078
F0000078
F0000078
F000007C
F000007C
F000007C
F0000078
F0000078
F0000078
F8000078
780000F8
780000F0
7C0001F0
3C0001F0
3E0003E0
1F0007C0
0F800FC0
0FE01F80
07FFFF00
03FFFE00
00FFFC00
007FF000
00020000
ENDCHAR
STARTCHAR 00D4
ENCODING 212
SWIDTH 630 0
DWIDTH 35 0
BBX 30 48 3 -1
BITMAP
000F8000
001FC000
001FC000
003DE000
0038E000
00707000
00603000
00C01800
00000000
00000000
00000000
003FE000
00FFF800
01FFFE00
07FFFF00
07E03F80
0F800FC0
1F0007C0
3E0003E0
3E0001E0
7C0001F0
780000F0
780000F8
F8000078
F0000078
F0000078
F0000078
F0000078
F000007C
F000007C
F000007C
F0000078
F0000078
F0000078
F8000078
780000F8
780000F0
7C0001F0
3C0001F0
3E0003E0
1F0007C0
0F800FC0
0FE01F80
07FFFF00
03FFFE00
00FFFC00
007FF000
00020000
ENDCHAR
STARTCHAR 00D5
ENCODING 213
SWIDTH 630 0
DWIDTH 35 0
BBX 30 47 3 -1
BITMAP
00F00300
01FC0300
03FF0700
039FCF00
0707FE00
0701FC00
07003000
00000000
00000000
00000000
003FE000
00FFF800
01FFFE00
07FFFF00
07E03F80
0F800FC0
1F0007C0
3E0003E0
3E0001E0
7C0001F0
780000F0
780000F8
F8000078
F0000078
F0000078
F0000078
F0000078
F000007C
F000007C
F000007C
F0000078
F0000078
F0000078
F8000078
780000F8
780000F0
7C0001F0
3C0001F0
3E0003E0
1F0007C0
0F800FC0
0FE01F80
07FFFF00
03FFFE00
00FFFC00
007FF000
00020000
ENDCHAR
STARTCHAR 00D6
ENCODING 214
SWIDTH 630 0
DWIDTH 35 0
BBX 30 47 3 -1
BITMAP
00201000
00F07C00
01F8FC00
01F8FC00
01F8FC00
00F07800
00000000
00000000
00000000
00000000
003FE000
00FFF800
01FFFE00
07FFFF00
07E03F80
0F800FC0
1F0007C0
3E0003E0
3E0001E0
7C0001F0
780000F0
780000F8
F8000078
F0000078
F0000078
F0000078
F0000078
F000007C
F000007C
F000007C
F0000078
F0000078
F0000078
F8000078
780000F8
780000F0
7C0001F0
3C0001F0
3E0003E0
1F0007C0
0F800FC0
0FE01F80
07FFFF00
03FFFE00
00FFFC00
007FF000
00020000
ENDCHAR
STARTCHAR 00D7
ENCODING 215
SWIDTH 522 0
DWIDTH 29 0
BBX 20 20 5 8
BITMAP
200040
7000E0
F801F0
FC03E0
7E07C0
3F0F80
1F9F00
0FFE00
07FC00
03F800
01F800
03FC00
07FE00
0FBF00
1F1F80
3E0FC0
7C07E0
F803F0
7001E0
2000C0
ENDCHAR
STARTCHAR 00D8
ENCODING 216
SWIDTH 630 0
DWIDTH 35 0
BBX 30 40 3 -2
BITMAP
00000020
00000078
003FE0F8
00FFF8F8
01FFFFF0
07FFFFE0
07E03FE0
0F800FC0
1F000FC0
3E000FE0
3E001FE0
7C003FF0
78007CF0
78007CF8
F800F878
F001F078
F001F078
F003E078
F007C07C
F007C07C
F00F807C
F01F007C
F03E0078
F03E0078
F07C0078
F8F80078
78F800F8
79F000F0
7FE001F0
3FE001F0
3FC003E0
1F8007C0
1F800FC0
1FE01F80
3FFFFF00
7FFFFE00
7CFFFC00
F87FF000
F0060000
30000000
ENDCHAR
STARTCHAR 00D9
ENCODING 217
SWIDTH 576 0
DWIDTH 32 0
BBX 27 48 3 -1
BITMAP
01F00000
00F80000
00780000
003C0000
001C0000
000E0000
00060000
00030000
00000000
00000000
00000000
F00001E0
F00001E0
F00001E0
F00001E0
F00001E0
F00001E0
F00001E0
F00001E0
F00001E0
F00001E0
F00001E0
F00001E0
F00001E0
F00001E0
F00001E0
F00001E0
F00001E0
F00001E0
F00001E0
F00001E0
F00001E0
F00001E0
F00001E0
F00001E0
F00001E0
F00003E0
F00003C0
F80003C0
7C0007C0
7C000F80
3E001F80
1F807F00
0FFFFE00
07FFFC00
03FFF000
00FFE000
00040000
ENDCHAR
STARTCHAR 00DA
ENCODING 218
SWIDTH 576 0
DWIDTH 32 0
BBX 27 48 3 -1
BITMAP
0003E000
0003C000
00078000
00070000
000E0000
000C0000
00180000
00100000
00000000
00000000
00000000
F00001E0
F00001E0
F00001E0
F00001E0
F00001E0
F00001E0
F00001E0
F00001E0
F00001E0
F00001E0
F00001E0
F00001E0
F00001E0
F00001E0
F00001E0
F00001E0
F00001E0
F00001E0
F00001E0
F00001E0
F00001E0
F00001E0
F00001E0
F00001E0
F00001E0
F00003E0
F00003C0
F80003C0
7C0007C0
7C000F80
3E001F80
1F807F00
0FFFFE00
07FFFC00
03FFF000
00FFE000
00040000
ENDCHAR
STARTCHAR 00DB
ENCODING 219
SWIDTH 576 0
DWIDTH 32 0
BBX 27 48 3 -1
BITMAP
001F0000
003F8000
003F8000
007BC000
00F1C000
00E0E000
01C06000
01803000
00000000
00000000
00000000
F00001E0
F00001E0
F00001E0
F00001E0
F00001E0
F00001E0
F00001E0
F00001E0
F00001E0
F00001E0
F00001E0
F00001E0
F00001E0
F00001E0
F00001E0
F00001E0
F00001E0
F00001E0
F00001E0
F00001E0
F00001E0
F00001E0
F00001E0
F00001E0
F00001E0
F00003E0
F00003C0
F80003C0
7C0007C0
7C000F80
3E001F80
1F807F00
0FFFFE00
07FFFC00
03FFF000
00FFE000
00040000
ENDCHAR
STARTCHAR 00DC
ENCODING 220
SWIDTH 576 0
DWIDTH 32 0
BBX 27 47 3 -1
BITMAP
00804000
03E0F000
03F1F800
03F1F800
03E1F800
01E0F000
00000000
00000000
00000000
00000000
F00001E0
F00001E0
F00001E0
F00001E0
F00001E0
F00001E0
F00001E0
F00001E0
F00001E0
F00001E0
F00001E0
F00001E0
F00001E0
F00001E0
F00001E0
F00001E0
F00001E0
F00001E0
F00001E0
F00001E0
F00001E0
F00001E0
F00001E0
F00001E0
F00001E0
F00003E0
F00003C0
F80003C0
7C0007C0
7C000F80
3E001F80
1F807F00
0FFFFE00
07FFFC00
03FFF000
00FFE000
00040000
ENDCHAR
STARTCHAR 00DD
ENCODING 221
SWIDTH 630 0
DWIDTH 35 0
BBX 30 47 3 0
BITMAP
0000F800
0001F000
0001E000
0003C000
00038000
00070000
00060000
000C0000
00000000
00000000
00000000
F800007C
7C0000F8
7C0001F0
3E0003E0
1F0003E0
1F0007C0
0F800F80
07C00F80
03E01F00
03E03E00
01F03E00
00F87C00
00F8F800
007DF000
003FF000
003FE000
001FC000
000FC000
00078000
00078000
00078000
00078000
00078000
00078000
00078000
00078000
00078000
00078000
00078000
00078000
00078000
00078000
00078000
00078000
00078000
00078000
ENDCHAR
STARTCHAR 00DE
ENCODING 222
SWIDTH 468 0
DWIDTH 26 0
BBX 21 36 3 0
BITMAP
F00000
F00000
F00000
F00000
F00000
F00000
F00000
F00000
F00000
FFFE00
FFFF80
FFFFC0
FFFFE0
F003F0
F000F0
F000F8
F00078
F00078
F00078
F00078
F000F8
F000F8
F001F0
FFFFE0
FFFFE0
FFFFC0
FFFF00
F00000
F00000
F00000
F00000
F00000
F00000
F00000
F00000
F00000
ENDCHAR
STARTCHAR 00DF
ENCODING 223
SWIDTH 486 0
DWIDTH 27 0
BBX 21 48 3 -12
BITMAP
07FC00
1FFE00
3FFF00
3FFF80
7C0FC0
F803C0
F003E0
F001E0
F001E0
F001E0
F001E0
F001E0
F003E0
F003C0
F00FC0
F01F80
F01F80
F01FC0
F01FE0
F007E0
F001F0
F000F8
F00078
F00078
F00078
F00078
F00078
F00078
F00078
F000F8
F001F0
F003F0
F1FFE0
F1FFC0
F3FF80
F3FE00
F06000
F00000
F00000
F00000
F00000
F00000
F00000
F00000
F00000
F00000
700000
100000
ENDCHAR
STARTCHAR 00E0
ENCODING 224
SWIDTH 396 0
DWIDTH 22 0
BBX 17 37 3 -1
BITMAP
3E0000
1F0000
0F0000
078000
038000
01C000
00C000
006000
000000
000000
000000
07F000
1FFC00
3FFE00
3FFF00
0C1F00
000F80
000780
000780
000780
000780
07FF80
1FFF80
3FFF80
7FFF80
FC0780
F80780
F00780
F00780
F00780
F00F80
F81F80
7FFF80
3FFF80
1FFF80
0FFF80
008000
ENDCHAR
STARTCHAR 00E1
ENCODING 225
SWIDTH 396 0
DWIDTH 22 0
BBX 17 37 3 -1
BITMAP
007C00
007800
00F000
00E000
01C000
018000
030000
020000
000000
000000
000000
07F000
1FFC00
3FFE00
3FFF00
0C1F00
000F80
000780
000780
000780
000780
07FF80
1FFF80
3FFF80
7FFF80
FC0780
F80780
F00780
F00780
F00780
F00F80
F81F80
7FFF80
3FFF80
1FFF80
0FFF80
008000
ENDCHAR
STARTCHAR 00E2
ENCODING 226
SWIDTH 396 0
DWIDTH 22 0
BBX 17 37 3 -1
BITMAP
07E000
07F000
0FF000
0F7800
1E3800
181C00
300C00
200600
000000
000000
000000
07F000
1FFC00
3FFE00
3FFF00
0C1F00
000F80
000780
000780
000780
000780
07FF80
1FFF80
3FFF80
7FFF80
FC0780
F80780
F00780
F00780
F00780
F00F80
F81F80
7FFF80
3FFF80
1FFF80
0FFF80
008000
ENDCHAR
STARTCHAR 00E3
ENCODING 227
SWIDTH 396 0
DWIDTH 22 0
BBX 19 36 3 -1
BITMAP
3E00E0
7F80C0
FFE0C0
E3FBC0
C0FF80
C03F80
C00400
000000
000000
000000
07F000
1FFC00
3FFE00
3FFF00
0C1F00
000F80
000780
000780
000780
000780
07FF80
1FFF80
3FFF80
7FFF80
FC0780
F80780
F00780
F00780
F00780
F00F80
F81F80
7FFF80
3FFF80
1FFF80
0FFF80
008000
ENDCHAR
STARTCHAR 00E4
ENCODING 228
SWIDTH 396 0
DWIDTH 22 0
BBX 17 36 3 -1
BITMAP
380C00
7C3E00
7E3F00
7E3F00
7C3F00
3C1E00
000000
000000
000000
000000
07F000
1FFC00
3FFE00
3FFF00
0C1F00
000F80
000780
000780
000780
000780
07FF80
1FFF80
3FFF80
7FFF80
FC0780
F80780
F00780
F00780
F00780
F00F80
F81F80
7FFF80
3FFF80
1FFF80
0FFF80
008000
ENDCHAR
STARTCHAR 00E5
ENCODING 229
SWIDTH 396 0
DWIDTH 22 0
BBX 17 37 3 -1
BITMAP
03F000
07F800
0F3800
0E1C00
0E1C00
0E3C00
07F800
07F000
01E000
000000
000000
07F000
1FFC00
3FFE00
3FFF00
0C1F00
000F80
000780
000780
000780
000780
07FF80
1FFF80
3FFF80
7FFF80
FC0780
F80780
F00780
F00780
F00780
F00F80
F81F80
7FFF80
3FFF80
1FFF80
0FFF80
008000
ENDCHAR
STARTCHAR 00E6
ENCODING 230
SWIDTH 720 0
DWIDTH 40 0
BBX 34 26 3 0
BITMAP
07F01FF000
1FFC3FF800
3FFE7FFE00
3FFFFFFE00
0C1FF01F00
000FE00F80
0007E00780
0007C007C0
0007C003C0
0007FFFFC0
07FFFFFFC0
1FFFFFFFC0
3FFFFFFFC0
7FFF800000
FC07800000
F807800000
F007800000
F007C00600
F007E00780
F00FE00F80
F81FF01F00
7FFFFFFE00
3FFE7FFE00
1FFC3FF800
0FF01FF000
0080030000
ENDCHAR
STARTCHAR 00E7
ENCODING 231
SWIDTH 450 0
DWIDTH 25 0
BBX 20 36 3 -10
BITMAP
03FE00
07FF00
0FFF80
1FFFC0
3F03E0
7C01F0
7C00F0
F800C0
F00000
F00000
F00000
F00000
F00000
F00000
F00000
F00000
F00000
F800C0
7C00F0
7C01F0
3E03E0
1FFFC0
0FFFC0
07FF00
03FE00
007000
007000
00FC00
00FE00
000F00
000700
000300
000700
031F00
03FE00
03F800
ENDCHAR
STARTCHAR 00E8
ENCODING 232
SWIDTH 486 0
DWIDTH 27 0
BBX 21 37 3 -1
BITMAP
07C000
03C000
01E000
00E000
007000
003000
001800
000800
000000
000000
000000
03FE00
07FF00
0FFF80
1FFFC0
3E03E0
7C01F0
7C00F0
F800F8
F00078
FFFFF8
FFFFF8
FFFFF8
FFFFF8
F00000
F00000
F00000
F00000
F800C0
7C00F0
7C01F0
3E03E0
1FFFC0
0FFFC0
07FF00
03FE00
002000
ENDCHAR
STARTCHAR 00E9
ENCODING 233
SWIDTH 486 0
DWIDTH 27 0
BBX 21 37 3 -1
BITMAP
001F80
001F00
003E00
003C00
007800
006000
00C000
008000
000000
000000
000000
03FE00
07FF00
0FFF80
1FFFC0
3E03E0
7C01F0
7C00F0
F800F8
F00078
FFFFF8
FFFFF8
FFFFF8
FFFFF8
F00000
F00000
F00000
F00000
F800C0
7C00F0
7C01F0
3E03E0
1FFFC0
0FFFC0
07FF00
03FE00
002000
ENDCHAR
STARTCHAR 00EA
ENCODING 234
SWIDTH 486 0
DWIDTH 27 0
BBX 21 37 3 -1
BITMAP
00F800
01FC00
01FC00
03DE00
038E00
070700
060300
0C0180
000000
000000
000000
03FE00
07FF00
0FFF80
1FFFC0
3E03E0
7C01F0
7C00F0
F800F8
F00078
FFFFF8
FFFFF8
FFFFF8
FFFFF8
F00000
F00000
F00000
F00000
F800C0
7C00F0
7C01F0
3E03E0
1FFFC0
0FFFC0
07FF00
03FE00
002000
ENDCHAR
STARTCHAR 00EB
ENCODING 235
SWIDTH 486 0
DWIDTH 27 0
BBX 21 36 3 -1
BITMAP
060300
0F07C0
1F8FC0
1F8FC0
1F8FC0
0F0780
000000
000000
000000
000000
03FE00
07FF00
0FFF80
1FFFC0
3E03E0
7C01F0
7C00F0
F800F8
F00078
FFFFF8
FFFFF8
FFFFF8
FFFFF8
F00000
F00000
F00000
F00000
F800C0
7C00F0
7C01F0
3E03E0
1FFFC0
0FFFC0
07FF00
03FE00
002000
ENDCHAR
STARTCHAR 00EC
ENCODING 236
SWIDTH 162 0
DWIDTH 9 0
BBX 8 36 -1 0
BITMAP
F8
78
3C
1C
0E
06
03
01
00
00
00
0F
0F
0F
0F
0F
0F
0F
0F
0F
0F
0F
0F
0F
0F
0F
0F
0F
0F
0F
0F
0F
0F
0F
0F
0F
ENDCHAR
STARTCHAR 00ED
ENCODING 237
SWIDTH 162 0
DWIDTH 9 0
BBX 9 36 2 0
BITMAP
0F80
1F00
1E00
3C00
3800
7000
6000
C000
0000
0000
0000
7800
7800
7800
7800
7800
7800
7800
7800
7800
7800
7800
7800
7800
7800
7800
7800
7800
7800
7800
7800
7800
7800
7800
7800
7800
ENDCHAR
STARTCHAR 00EE
ENCODING 238
SWIDTH 162 0
DWIDTH 9 0
BBX 13 36 -2 0
BITMAP
0FC0
1FC0
1FE0
3DE0
3870
7030
6018
C008
0000
0000
0000
0780
0780
0780
0780
0780
0780
0780
0780
0780
0780
0780
0780
0780
0780
0780
0780
0780
0780
0780
0780
0780
0780
0780
0780
0780
ENDCHAR
STARTCHAR 00EF
ENCODING 239
SWIDTH 162 0
DWIDTH 9 0
BBX 15 35 -3 0
BITMAP
301C
7C3E
FC7E
FC7E
FC3E
783C
0000
0000
0000
0000
03C0
03C0
03C0
03C0
03C0
03C0
03C0
03C0
03C0
03C0
03C0
03C0
03C0
03C0
03C0
03C0
03C0
03C0
03C0
03C0
03C0
03C0
03C0
03C0
03C0
ENDCHAR
STARTCHAR 00F0
ENCODING 240
SWIDTH 504 0
DWIDTH 28 0
BBX 23 37 3 -1
BITMAP
03FE0C
07FF9E
03FFFE
01FFFE
0007FC
000FF0
003FF0
003FF8
001E78
000878
00007C
03FE3C
07FF3C
0FFFFC
1FFFFC
3F03FC
7C01FE
7C00FE
F800FE
F0007E
F0007C
F0007C
F0007C
F0007C
F0007C
F0007C
F00078
F00078
F800F8
7C00F0
7C01F0
3E03E0
1FFFE0
0FFFC0
07FF80
03FE00
003000
ENDCHAR
STARTCHAR 00F1
ENCODING 241
SWIDTH 486 0
DWIDTH 27 0
BBX 21 35 3 0
BITMAP
0F0030
3FC070
3FF070
70FEE0
703FE0
701FC0
600100
000000
000000
000000
F1FF00
F7FF80
FFFFC0
FFFFE0
FF01F0
FE01F0
FC00F0
F800F8
F80078
F00078
F00078
F00078
F00078
F00078
F00078
F00078
F00078
F00078
F00078
F00078
F00078
F00078
F00078
F00078
F00078
ENDCHAR
STARTCHAR 00F2
ENCODING 242
SWIDTH 486 0
DWIDTH 27 0
BBX 21 37 3 -1
BITMAP
07C000
03C000
01E000
00E000
007000
003000
001800
000800
000000
000000
000000
03FE00
07FF00
0FFF80
1FFFC0
3F03E0
7C01F0
7C00F0
F800F8
F00078
F00078
F00078
F00078
F00078
F00078
F00078
F00078
F00078
F800F8
7C00F0
7C01F0
3E03E0
1FFFC0
0FFFC0
07FF00
03FE00
002000
ENDCHAR
STARTCHAR 00F3
ENCODING 243
SWIDTH 486 0
DWIDTH 27 0
BBX 21 37 3 -1
BITMAP
001F80
001F00
003E00
003C00
007800
006000
00C000
008000
000000
000000
000000
03FE00
07FF00
0FFF80
1FFFC0
3F03E0
7C01F0
7C00F0
F800F8
F00078
F00078
F00078
F00078
F00078
F00078
F00078
F00078
F00078
F800F8
7C00F0
7C01F0
3E03E0
1FFFC0
0FFFC0
07FF00
03FE00
002000
ENDCHAR
STARTCHAR 00F4
ENCODING 244
SWIDTH 486 0
DWIDTH 27 0
BBX 21 37 3 -1
BITMAP
00F800
01FC00
01FC00
03DE00
038E00
070700
060300
0C0180
000000
000000
000000
03FE00
07FF00
0FFF80
1FFFC0
3F03E0
7C01F0
7C00F0
F800F8
F00078
F00078
F00078
F00078
F00078
F00078
F00078
F00078
F00078
F800F8
7C00F0
7C01F0
3E03E0
1FFFC0
0FFFC0
07FF00
03FE00
002000
ENDCHAR
STARTCHAR 00F5
ENCODING 245
SWIDTH 486 0
DWIDTH 27 0
BBX 21 36 3 -1
BITMAP
0F0030
3FC070
3FF070
70FEE0
703FE0
701FC0
600100
000000
000000
000000
03FE00
07FF00
0FFF80
1FFFC0
3F03E0
7C01F0
7C00F0
F800F8
F00078
F00078
F00078
F00078
F00078
F00078
F00078
F00078
F00078
F800F8
7C00F0
7C01F0
3E03E0
1FFFC0
0FFFC0
07FF00
03FE00
002000
ENDCHAR
STARTCHAR 00F6
ENCODING 246
SWIDTH 486 0
DWIDTH 27 0
BBX 21 36 3 -1
BITMAP
060300
0F07C0
1F8FC0
1F8FC0
1F8FC0
0F0780
000000
000000
000000
000000
03FE00
07FF00
0FFF80
1FFFC0
3F03E0
7C01F0
7C00F0
F800F8
F00078
F00078
F00078
F00078
F00078
F00078
F00078
F00078
F00078
F800F8
7C00F0
7C01F0
3E03E0
1FFFC0
0FFFC0
07FF00
03FE00
002000
ENDCHAR
STARTCHAR 00F7
ENCODING 247
SWIDTH 522 0
DWIDTH 29 0
BBX 24 22 3 7
BITMAP
003C00
003E00
007E00
007E00
003E00
001C00
000000
000000
000000
FFFFFF
FFFFFF
FFFFFF
FFFFFF
000000
000000
000000
001800
003E00
007E00
007E00
007E00
003C00
ENDCHAR
STARTCHAR 00F8
ENCODING 248
SWIDTH 486 0
DWIDTH 27 0
BBX 23 31 2 -3
BITMAP
000008
00001E
00003E
01FF7C
03FFFC
07FFF8
0FFFF0
1F81F0
3E03F8
3E07F8
7C07FC
780FBC
781F3C
783E3C
783E3C
787C3C
78F83C
78F83C
79F03C
7BE03C
7FE07C
3FC078
3F80F8
1F01F0
1FFFE0
3FFFE0
7FFF80
7DFF00
F81000
F00000
300000
ENDCHAR
STARTCHAR 00F9
ENCODING 249
SWIDTH 486 0
DWIDTH 27 0
BBX 21 37 3 -1
BITMAP
07C000
03C000
01E000
00E000
007000
003000
001800
000800
000000
000000
000000
F00078
F00078
F00078
F00078
F00078
F00078
F00078
F00078
F00078
F00078
F00078
F00078
F00078
F00078
F00078
F00078
F000F8
F800F8
7801F8
7C03F8
7E07F8
3FFFF8
1FFFF8
0FFF78
07FC78
004000
ENDCHAR
STARTCHAR 00FA
ENCODING 250
SWIDTH 486 0
DWIDTH 27 0
BBX 21 37 3 -1
BITMAP
001F80
001F00
003E00
003C00
007800
006000
00C000
008000
000000
000000
000000
F00078
F00078
F00078
F00078
F00078
F00078
F00078
F00078
F00078
F00078
F00078
F00078
F00078
F00078
F00078
F00078
F000F8
F800F8
7801F8
7C03F8
7E07F8
3FFFF8
1FFFF8
0FFF78
07FC78
004000
ENDCHAR
STARTCHAR 00FB
ENCODING 251
SWIDTH 486 0
DWIDTH 27 0
BBX 21 37 3 -1
BITMAP
00F800
01FC00
01FC00
03DE00
038E00
070700
060300
0C0180
000000
000000
000000
F00078
F00078
F00078
F00078
F00078
F00078
F00078
F00078
F00078
F00078
F00078
F00078
F00078
F00078
F00078
F00078
F000F8
F800F8
7801F8
7C03F8
7E07F8
3FFFF8
1FFFF8
0FFF78
07FC78
004000
ENDCHAR
STARTCHAR 00FC
ENCODING 252
SWIDTH 486 0
DWIDTH 27 0
BBX 21 36 3 -1
BITMAP
060300
0F07C0
1F8FC0
1F8FC0
1F8FC0
0F0780
000000
000000
000000
000000
F00078
F00078
F00078
F00078
F00078
F00078
F00078
F00078
F00078
F00078
F00078
F00078
F00078
F00078
F00078
F00078
F000F8
F800F8
7801F8
7C03F8
7E07F8
3FFFF8
1FFFF8
0FFF78
07FC78
004000
ENDCHAR
STARTCHAR 00FD
ENCODING 253
SWIDTH 486 0
DWIDTH 27 0
BBX 22 47 3 -11
BITMAP
000F80
001F00
001E00
003C00
003800
007000
006000
00C000
000000
000000
000000
F0003C
F8007C
780078
780078
7C00F8
3C00F0
3C01F0
3E01E0
1E01E0
1E03E0
0F03C0
0F03C0
0F87C0
078780
078780
07CF80
03CF00
03DF00
03FE00
01FE00
01FE00
00FC00
00FC00
00FC00
007800
007800
00F800
00F000
00F000
01E000
01E000
03E000
3FC000
3FC000
3F8000
7E0000
ENDCHAR
STARTCHAR 00FE
ENCODING 254
SWIDTH 486 0
DWIDTH 27 0
BBX 21 48 3 -12
BITMAP
F00000
F00000
F00000
F00000
F00000
F00000
F00000
F00000
F00000
F00000
F00000
F3FE00
F7FF00
FFFF80
FFFFC0
FF03E0
FC01F0
FC00F0
F800F8
F00078
F00078
F00078
F00078
F00078
F00078
F00078
F00078
F00078
F800F8
FC00F0
FC01F0
FE03E0
FFFFC0
FFFFC0
F7FF00
F3FE00
F02000
F00000
F00000
F00000
F00000
F00000
F00000
F00000
F00000
F00000
700000
100000
ENDCHAR
STARTCHAR 00FF
ENCODING 255
SWIDTH 486 0
DWIDTH 27 0
BBX 22 46 3 -11
BITMAP
030180
0F83C0
0FC7E0
0FC7E0
0F87E0
0783C0
000000
000000
000000
000000
F0003C
F8007C
780078
780078
7C00F8
3C00F0
3C01F0
3E01E0
1E01E0
1E03E0
0F03C0
0F03C0
0F87C0
078780
078780
07CF80
03CF00
03DF00
03FE00
01FE00
01FE00
00FC00
00FC00
00FC00
007800
007800
00F800
00F000
00F000
01E000
01E000
03E000
3FC000
3FC000
3F8000
7E0000
ENDCHAR
STARTCHAR 0100
ENCODING 256
SWIDTH 630 0
DWIDTH 35 0
BBX 30 44 3 0
BITMAP
00FFFC00
00FFFC00
00FFFC00
00FFFC00
00000000
00000000
00000000
00000000
00078000
000FC000
000FC000
000FC000
001FE000
001FE000
003FE000
003DF000
003CF000
007CF800
00787800
00787800
00F87C00
00F03C00
00F03C00
01F03E00
01E01E00
03E01E00
03C01F00
03FFFF00
07FFFF80
07FFFF80
07FFFF80
0F8007C0
0F0003C0
0F0003C0
1F0003E0
1E0001E0
3E0001E0
3C0001F0
3C0000F0
7C0000F8
78000078
78000078
F800007C
F000003C
ENDCHAR
STARTCHAR 0101
ENCODING 257
SWIDTH 396 0
DWIDTH 22 0
BBX 17 34 3 -1
BITMAP
3FFF00
3FFF00
3FFF00
3FFF00
000000
000000
000000
000000
07F000
1FFC00
3FFE00
3FFF00
0C1F00
000F80
000780
000780
000780
000780
07FF80
1FFF80
3FFF80
7FFF80
FC0780
F80780
F00780
F00780
F00780
F00F80
F81F80
7FFF80
3FFF80
1FFF80
0FFF80
008000
ENDCHAR
STARTCHAR 0102
ENCODING 258
SWIDTH 630 0
DWIDTH 35 0
BBX 30 47 3 0
BITMAP
01E01E00
01E01C00
00E01C00
00F03C00
007CF800
007FF800
003FE000
000F8000
00000000
00000000
00000000
00078000
000FC000
000FC000
000FC000
001FE000
001FE000
003FE000
003DF000
003CF000
007CF800
00787800
00787800
00F87C00
00F03C00
00F03C00
01F03E00
01E01E00
03E01E00
03C01F00
03FFFF00
07FFFF80
07FFFF80
07FFFF80
0F8007C0
0F0003C0
0F0003C0
1F0003E0
1E0001E0
3E0001E0
3C0001F0
3C0000F0
7C0000F8
78000078
78000078
F800007C
F000003C
ENDCHAR
STARTCHAR 0103
ENCODING 259
SWIDTH 396 0
DWIDTH 22 0
BBX 17 37 3 -1
BITMAP
700700
700F00
700F00
781E00
3FFE00
1FFC00
0FF800
03C000
000000
000000
000000
07F000
1FFC00
3FFE00
3FFF00
0C1F00
000F80
000780
000780
000780
000780
07FF80
1FFF80
3FFF80
7FFF80
FC0780
F80780
F00780
F00780
F00780
F00F80
F81F80
7FFF80
3FFF80
1FFF80
0FFF80
008000
ENDCHAR
STARTCHAR 0104
ENCODING 260
SWIDTH 630 0
DWIDTH 35 0
BBX 35 46 3 -10
BITMAP
0007800000
000FC00000
000FC00000
000FC00000
001FE00000
001FE00000
003FE00000
003DF00000
003CF00000
007CF80000
0078780000
0078780000
00F87C0000
00F03C0000
00F03C0000
01F03E0000
01E01E0000
03E01E0000
03C01F0000
03FFFF0000
07FFFF8000
07FFFF8000
07FFFF8000
0F8007C000
0F0003C000
0F0003C000
1F0003E000
1E0001E000
3E0001E000
3C0001F000
3C0000F000
7C0000F800
7800007800
7800007800
F800007C00
F000007C00
0000006000
000000C000
000000E000
000000E000
000000E000
000000F000
000000FC00
0000007FE0
0000003FC0
0000001F80
ENDCHAR
STARTCHAR 0105
ENCODING 261
SWIDTH 396 0
DWIDTH 22 0
BBX 23 35 3 -10
BITMAP
07F000
1FFC00
3FFE00
3FFF00
0C1F00
000F80
000780
000780
000780
000780
07FF80
1FFF80
3FFF80
7FFF80
FC0780
F80780
F00780
F00780
F00780
F00F80
F81F80
7FFF80
3FFF80
1FFF80
0FFF80
008C00
000C00
000C00
000E00
000E00
000F00
000F80
0007FE
0003FC
0001F0
ENDCHAR
STARTCHAR 0106
ENCODING 262
SWIDTH 576 0
DWIDTH 32 0
BBX 27 48 3 -1
BITMAP
0003F000
0003E000
0007C000
00078000
000F0000
000C0000
00180000
00100000
00000000
00000000
00000000
003FE000
00FFF800
01FFFE00
07FFFF00
07E03F80
0F800FC0
1F0007C0
3E0003E0
3E0001C0
7C000180
78000000
78000000
F8000000
F0000000
F0000000
F0000000
F0000000
F0000000
F0000000
F0000000
F0000000
F0000000
F0000000
F8000000
78000000
78000000
7C000180
3C0001C0
3E0003E0
1F0007C0
0F800FC0
0FE01F80
07FFFF00
03FFFE00
00FFFC00
007FF000
00020000
ENDCHAR
STARTCHAR 0107
ENCODING 263
SWIDTH 450 0
DWIDTH 25 0
BBX 20 37 3 -1
BITMAP
001F00
003E00
003C00
007800
007000
00E000
00C000
018000
000000
000000
000000
03FE00
07FF00
0FFF80
1FFFC0
3F03E0
7C01F0
7C00F0
F800C0
F00000
F00000
F00000
F00000
F00000
F00000
F00000
F00000
F00000
F800C0
7C00F0
7C01F0
3E03E0
1FFFC0
0FFFC0
07FF00
03FE00
002000
ENDCHAR
STARTCHAR 0108
ENCODING 264
SWIDTH 576 0
DWIDTH 32 0
BBX 27 48 3 -1
BITMAP
001F0000
003F8000
003F8000
007BC000
0071C000
00E0E000
00C06000
01803000
00000000
00000000
00000000
003FE000
00FFF800
01FFFE00
07FFFF00
07E03F80
0F800FC0
1F0007C0
3E0003E0
3E0001C0
7C000180
78000000
78000000
F8000000
F0000000
F0000000
F0000000
F0000000
F0000000
F0000000
F0000000
F0000000
F0000000
F0000000
F8000000
78000000
78000000
7C000180
3C0001C0
3E0003E0
1F0007C0
0F800FC0
0FE01F80
07FFFF00
03FFFE00
00FFFC00
007FF000
00020000
ENDCHAR
STARTCHAR 0109
ENCODING 265
SWIDTH 450 0
DWIDTH 25 0
BBX 20 37 3 -1
BITMAP
01F800
01F800
03FC00
039C00
070E00
060600
0C0300
180100
000000
000000
000000
03FE00
07FF00
0FFF80
1FFFC0
3F03E0
7C01F0
7C00F0
F800C0
F00000
F00000
F00000
F00000
F00000
F00000
F00000
F00000
F00000
F800C0
7C00F0
7C01F0
3E03E0
1FFFC0
0FFFC0
07FF00
03FE00
002000
ENDCHAR
STARTCHAR 010A
ENCODING 266
SWIDTH 576 0
DWIDTH 32 0
BBX 27 47 3 -1
BITMAP
00040000
001F0000
001F0000
003F0000
001F0000
001F0000
00000000
00000000
00000000
00000000
003FE000
00FFF800
01FFFE00
07FFFF00
07E03F80
0F800FC0
1F0007C0
3E0003E0
3E0001C0
7C000180
78000000
78000000
F8000000
F0000000
F0000000
F0000000
F0000000
F0000000
F0000000
F0000000
F0000000
F0000000
F0000000
F8000000
78000000
78000000
7C000180
3C0001C0
3E0003E0
1F0007C0
0F800FC0
0FE01F80
07FFFF00
03FFFE00
00FFFC00
007FF000
00020000
ENDCHAR
STARTCHAR 010B
ENCODING 267
SWIDTH 450 0
DWIDTH 25 0
BBX 20 36 3 -1
BITMAP
006000
01F000
01F800
01F800
01F800
00F000
000000
000000
000000
000000
03FE00
07FF00
0FFF80
1FFFC0
3F03E0
7C01F0
7C00F0
F800C0
F00000
F00000
F00000
F00000
F00000
F00000
F00000
F00000
F00000
F800C0
7C00F0
7C01F0
3E03E0
1FFFC0
0FFFC0
07FF00
03FE00
002000
ENDCHAR
STARTCHAR 010C
ENCODING 268
SWIDTH 576 0
DWIDTH 32 0
BBX 27 48 3 -1
BITMAP
01001000
01803000
00C06000
00E0E000
0071C000
007BC000
003F8000
003F8000
00000000
00000000
00000000
003FE000
00FFF800
01FFFE00
07FFFF00
07E03F80
0F800FC0
1F0007C0
3E0003E0
3E0001C0
7C000180
78000000
78000000
F8000000
F0000000
F0000000
F0000000
F0000000
F0000000
F0000000
F0000000
F0000000
F0000000
F0000000
F8000000
78000000
78000000
7C000180
3C0001C0
3E0003E0
1F0007C0
0F800FC0
0FE01F80
07FFFF00
03FFFE00
00FFFC00
007FF000
00020000
ENDCHAR
STARTCHAR 010D
ENCODING 269
SWIDTH 450 0
DWIDTH 25 0
BBX 20 37 3 -1
BITMAP
180180
0C0300
0E0700
070E00
079E00
03FC00
03FC00
01F800
000000
000000
000000
03FE00
07FF00
0FFF80
1FFFC0
3F03E0
7C01F0
7C00F0
F800C0
F00000
F00000
F00000
F00000
F00000
F00000
F00000
F00000
F00000
F800C0
7C00F0
7C01F0
3E03E0
1FFFC0
0FFFC0
07FF00
03FE00
002000
ENDCHAR
STARTCHAR 010E
ENCODING 270
SWIDTH 630 0
DWIDTH 35 0
BBX 30 47 3 0
BITMAP
00800800
00C01800
00603000
00707000
0038E000
003DE000
001FC000
000FC000
00000000
00000000
00000000
FFFF8000
FFFFF000
FFFFFC00
FFFFFE00
0F00FF00
0F001F80
0F000FC0
0F0007E0
0F0003E0
0F0001F0
0F0000F0
0F0000F8
0F0000F8
0F000078
0F000078
0F000078
0F000078
0F00007C
0F00007C
0F00007C
0F000078
0F000078
0F000078
0F000078
0F0000F8
0F0000F0
0F0001F0
0F0003E0
0F0007E0
0F000FC0
0F001F80
0F007F80
FFFFFF00
FFFFFC00
FFFFF800
FFFFC000
ENDCHAR
STARTCHAR 010F
ENCODING 271
SWIDTH 648 0
DWIDTH 36 0
BBX 31 37 3 -1
BITMAP
000078F8
000078FC
000079FC
000078FE
000078FE
00007836
00007806
00007806
0000780C
0000780C
00007818
03FE7830
07FF78E0
0FFFF980
1FFFF800
3F03F800
7C01F800
7C00F800
F800F800
F0007800
F0007800
F0007800
F0007800
F0007800
F0007800
F0007800
F0007800
F0007800
F800F800
7C00F800
7C01F800
3E03F800
1FFFF800
0FFFF800
07FF7800
03FE7800
00200000
ENDCHAR
STARTCHAR 0110
ENCODING 272
SWIDTH 630 0
DWIDTH 35 0
BBX 30 36 3 0
BITMAP
FFFF8000
FFFFF000
FFFFFC00
FFFFFE00
0F007F00
0F001F80
0F0007C0
0F0003E0
0F0001E0
0F0000F0
0F0000F0
0F000078
0F000078
0F000038
0F000038
0F000038
FFFF0038
FFFF003C
FFFF003C
FFFF003C
0F000038
0F000038
0F000038
0F000078
0F000078
0F0000F0
0F0000F0
0F0001E0
0F0003E0
0F0007C0
0F000F80
0F003F80
FFFFFF00
FFFFFC00
FFFFF800
FFFFC000
ENDCHAR
STARTCHAR 0111
ENCODING 273
SWIDTH 486 0
DWIDTH 27 0
BBX 25 37 3 -1
BITMAP
00007800
00007800
00007800
00007800
000FFF80
000FFF80
000FFF80
000FFF80
00007800
00007800
00007800
03FE7800
07FF7800
0FFFF800
1FFFF800
3F03F800
7C01F800
7C00F800
F800F800
F0007800
F0007800
F0007800
F0007800
F0007800
F0007800
F0007800
F0007800
F0007800
F800F800
7C00F800
7C01F800
3E03F800
1FFFF800
0FFFF800
07FF7800
03FE7800
00200000
ENDCHAR
STARTCHAR 0112
ENCODING 274
SWIDTH 504 0
DWIDTH 28 0
BBX 23 44 3 0
BITMAP
0FFFC0
0FFFC0
0FFFC0
0FFFC0
000000
000000
000000
000000
FFFFFE
FFFFFE
FFFFFE
FFFFFE
F00000
F00000
F00000
F00000
F00000
F00000
F00000
F00000
F00000
F00000
F00000
F00000
FFFFE0
FFFFE0
FFFFE0
FFFFE0
F00000
F00000
F00000
F00000
F00000
F00000
F00000
F00000
F00000
F00000
F00000
F00000
FFFFFE
FFFFFE
FFFFFE
FFFFFE
ENDCHAR
STARTCHAR 0113
ENCODING 275
SWIDTH 486 0
DWIDTH 27 0
BBX 21 34 3 -1
BITMAP
0FFF80
0FFF80
0FFF80
0FFF80
000000
000000
000000
000000
03FE00
07FF00
0FFF80
1FFFC0
3E03E0
7C01F0
7C00F0
F800F8
F00078
FFFFF8
FFFFF8
FFFFF8
FFFFF8
F00000
F00000
F00000
F00000
F800C0
7C00F0
7C01F0
3E03E0
1FFFC0
0FFFC0
07FF00
03FE00
002000
ENDCHAR
STARTCHAR 0114
ENCODING 276
SWIDTH 504 0
DWIDTH 28 0
BBX 23 47 3 0
BITMAP
0E01E0
0E01E0
0E01C0
0F03C0
07CF80
03FF80
01FF00
007C00
000000
000000
000000
FFFFFE
FFFFFE
FFFFFE
FFFFFE
F00000
F00000
F00000
F00000
F00000
F00000
F00000
F00000
F00000
F00000
F00000
F00000
FFFFE0
FFFFE0
FFFFE0
FFFFE0
F00000
F00000
F00000
F00000
F00000
F00000
F00000
F00000
F00000
F00000
F00000
F00000
FFFFFE
FFFFFE
FFFFFE
FFFFFE
ENDCHAR
STARTCHAR 0115
ENCODING 277
SWIDTH 486 0
DWIDTH 27 0
BBX 21 37 3 -1
BITMAP
1C01C0
1C01C0
1E03C0
0F0380
0FDF80
07FF00
03FE00
007800
000000
000000
000000
03FE00
07FF00
0FFF80
1FFFC0
3E03E0
7C01F0
7C00F0
F800F8
F00078
FFFFF8
FFFFF8
FFFFF8
FFFFF8
F00000
F00000
F00000
F00000
F800C0
7C00F0
7C01F0
3E03E0
1FFFC0
0FFFC0
07FF00
03FE00
002000
ENDCHAR
STARTCHAR 0116
ENCODING 278
SWIDTH 504 0
DWIDTH 28 0
BBX 23 46 3 0
BITMAP
001000
007800
00FC00
00FC00
00FC00
007800
000000
000000
000000
000000
FFFFFE
FFFFFE
FFFFFE
FFFFFE
F00000
F00000
F00000
F00000
F00000
F00000
F00000
F00000
F00000
F00000
F00000
F00000
FFFFE0
FFFFE0
FFFFE0
FFFFE0
F00000
F00000
F00000
F00000
F00000
F00000
F00000
F00000
F00000
F00000
F00000
F00000
FFFFFE
FFFFFE
FFFFFE
FFFFFE
ENDCHAR
STARTCHAR 0117
ENCODING 279
SWIDTH 486 0
DWIDTH 27 0
BBX 21 36 3 -1
BITMAP
007000
00F800
00F800
00FC00
00F800
007800
000000
000000
000000
000000
03FE00
07FF00
0FFF80
1FFFC0
3E03E0
7C01F0
7C00F0
F800F8
F00078
FFFFF8
FFFFF8
FFFFF8
FFFFF8
F00000
F00000
F00000
F00000
F800C0
7C00F0
7C01F0
3E03E0
1FFFC0
0FFFC0
07FF00
03FE00
002000
ENDCHAR
STARTCHAR 0118
ENCODING 280
SWIDTH 504 0
DWIDTH 28 0
BBX 25 46 3 -10
BITMAP
FFFFFE00
FFFFFE00
FFFFFE00
FFFFFE00
F0000000
F0000000
F0000000
F0000000
F0000000
F0000000
F0000000
F0000000
F0000000
F0000000
F0000000
F0000000
FFFFE000
FFFFE000
FFFFE000
FFFFE000
F0000000
F0000000
F0000000
F0000000
F0000000
F0000000
F0000000
F0000000
F0000000
F0000000
F0000000
F0000000
FFFFFE00
FFFFFE00
FFFFFE00
FFFFFE00
00030000
00030000
00030000
00078000
00078000
0003C000
0003E000
0001FF80
0000FF00
00007C00
ENDCHAR
STARTCHAR 0119
ENCODING 281
SWIDTH 486 0
DWIDTH 27 0
BBX 21 35 3 -9
BITMAP
03FE00
07FF00
0FFF80
1FFFC0
3E03E0
7C01F0
7C00F0
F800F8
F00078
FFFFF8
FFFFF8
FFFFF8
FFFFF8
F00000
F00000
F00000
F00000
F800C0
7C00F0
7C01F0
3E03E0
1FFFC0
0FFFC0
07FF00
03FE00
007000
007000
007000
007000
007800
007800
007E00
003FF0
001FE0
000FC0
ENDCHAR
STARTCHAR 011A
ENCODING 282
SWIDTH 504 0
DWIDTH 28 0
BBX 23 47 3 0
BITMAP
0C0040
060080
070180
038300
03C700
01FE00
01FE00
00FC00
000000
000000
000000
FFFFFE
FFFFFE
FFFFFE
FFFFFE
F00000
F00000
F00000
F00000
F00000
F00000
F00000
F00000
F00000
F00000
F00000
F00000
FFFFE0
FFFFE0
FFFFE0
FFFFE0
F00000
F00000
F00000
F00000
F00000
F00000
F00000
F00000
F00000
F00000
F00000
F00000
FFFFFE
FFFFFE
FFFFFE
FFFFFE
ENDCHAR
STARTCHAR 011B
ENCODING 283
SWIDTH 486 0
DWIDTH 27 0
BBX 21 37 3 -1
BITMAP
080080
0C0180
060300
070700
038E00
03DE00
01FC00
01FC00
000000
000000
000000
03FE00
07FF00
0FFF80
1FFFC0
3E03E0
7C01F0
7C00F0
F800F8
F00078
FFFFF8
FFFFF8
FFFFF8
FFFFF8
F00000
F00000
F00000
F00000
F800C0
7C00F0
7C01F0
3E03E0
1FFFC0
0FFFC0
07FF00
03FE00
002000
ENDCHAR
STARTCHAR 011C
ENCODING 284
SWIDTH 576 0
DWIDTH 32 0
BBX 27 48 3 -1
BITMAP
001F0000
003F8000
003F8000
007BC000
0071C000
00E0E000
00C06000
01803000
00000000
00000000
00000000
003FE000
00FFF800
01FFFE00
07FFFF00
07E03F80
0F800FC0
1F0007C0
3E0003E0
3E0001C0
7C000180
78000000
78000000
F8000000
F0000000
F0000000
F0000000
F0000000
F007FFE0
F007FFE0
F007FFE0
F007FFE0
F00001E0
F00001E0
F80001E0
780001E0
780001E0
7C0001E0
3C0001E0
3E0003E0
1F0007C0
0F800FC0
0FE01F80
07FFFF00
03FFFE00
00FFFC00
007FF000
00020000
ENDCHAR
STARTCHAR 011D
ENCODING 285
SWIDTH 504 0
DWIDTH 28 0
BBX 25 47 3 -11
BITMAP
00F80000
01FC0000
01FC0000
03DE0000
038E0000
07070000
06030000
0C018000
00000000
00000000
00000000
03FE0600
0FFF8F80
1FFFFF80
3FFFFF00
7E03FE00
F800F800
F8007800
F0007800
F0007800
F0007800
F0007800
F8007800
F800F800
7E03F000
3FFFF000
3FFFE000
7FFF8000
7BFE0000
F8000000
F8000000
7C000000
7FC00000
3FFF0000
0FFFE000
00FFF000
0003F800
0000F800
00007800
F0007800
F0007800
F800F800
7C01F800
7FFFF000
3FFFE000
1FFFC000
07FF0000
ENDCHAR
STARTCHAR 011E
ENCODING 286
SWIDTH 576 0
DWIDTH 32 0
BBX 27 48 3 -1
BITMAP
03803800
03803800
03C07800
03C07000
01F1F000
00FFE000
007FC000
001F0000
00000000
00000000
00000000
003FE000
00FFF800
01FFFE00
07FFFF00
07E03F80
0F800FC0
1F0007C0
3E0003E0
3E0001C0
7C000180
78000000
78000000
F8000000
F0000000
F0000000
F0000000
F0000000
F007FFE0
F007FFE0
F007FFE0
F007FFE0
F00001E0
F00001E0
F80001E0
780001E0
780001E0
7C0001E0
3C0001E0
3E0003E0
1F0007C0
0F800FC0
0FE01F80
07FFFF00
03FFFE00
00FFFC00
007FF000
00020000
ENDCHAR
STARTCHAR 011F
ENCODING 287
SWIDTH 504 0
DWIDTH 28 0
BBX 25 47 3 -11
BITMAP
1C01C000
1C01C000
1E03C000
0E078000
0FDF8000
07FF0000
03FE0000
00F00000
00000000
00000000
00000000
03FE0600
0FFF8F80
1FFFFF80
3FFFFF00
7E03FE00
F800F800
F8007800
F0007800
F0007800
F0007800
F0007800
F8007800
F800F800
7E03F000
3FFFF000
3FFFE000
7FFF8000
7BFE0000
F8000000
F8000000
7C000000
7FC00000
3FFF0000
0FFFE000
00FFF000
0003F800
0000F800
00007800
F0007800
F0007800
F800F800
7C01F800
7FFFF000
3FFFE000
1FFFC000
07FF0000
ENDCHAR
STARTCHAR 0120
ENCODING 288
SWIDTH 576 0
DWIDTH 32 0
BBX 27 47 3 -1
BITMAP
00040000
001F0000
001F0000
003F0000
001F0000
001F0000
00000000
00000000
00000000
00000000
003FE000
00FFF800
01FFFE00
07FFFF00
07E03F80
0F800FC0
1F0007C0
3E0003E0
3E0001C0
7C000180
78000000
78000000
F8000000
F0000000
F0000000
F0000000
F0000000
F007FFE0
F007FFE0
F007FFE0
F007FFE0
F00001E0
F00001E0
F80001E0
780001E0
780001E0
7C0001E0
3C0001E0
3E0003E0
1F0007C0
0F800FC0
0FE01F80
07FFFF00
03FFFE00
00FFFC00
007FF000
00020000
ENDCHAR
STARTCHAR 0121
ENCODING 289
SWIDTH 504 0
DWIDTH 28 0
BBX 25 46 3 -11
BITMAP
00700000
00F80000
00F80000
01F80000
00F80000
00F00000
00000000
00000000
00000000
00000000
03FE0600
0FFF8F80
1FFFFF80
3FFFFF00
7E03FE00
F800F800
F8007800
F0007800
F0007800
F0007800
F0007800
F8007800
F800F800
7E03F000
3FFFF000
3FFFE000
7FFF8000
7BFE0000
F8000000
F8000000
7C000000
7FC00000
3FFF0000
0FFFE000
00FFF000
0003F800
0000F800
00007800
F0007800
F0007800
F800F800
7C01F800
7FFFF000
3FFFE000
1FFFC000
07FF0000
ENDCHAR
STARTCHAR 0122
ENCODING 290
SWIDTH 576 0
DWIDTH 32 0
BBX 27 47 3 -11
BITMAP
003FE000
00FFF800
01FFFE00
07FFFF00
07E03F80
0F800FC0
1F0007C0
3E0003E0
3E0001C0
7C000180
78000000
78000000
F8000000
F0000000
F0000000
F0000000
F0000000
F007FFE0
F007FFE0
F007FFE0
F007FFE0
F00001E0
F00001E0
F80001E0
780001E0
780001E0
7C0001E0
3C0001E0
3E0003E0
1F0007C0
0F800FC0
0FE01F80
07FFFF00
03FFFE00
00FFFC00
007FF000
00070000
000F0000
000FC000
000FE000
0000F000
00007000
00007000
00007000
0031E000
003FE000
007F8000
ENDCHAR
STARTCHAR 0123
ENCODING 291
SWIDTH 504 0
DWIDTH 28 0
BBX 25 50 3 -11
BITMAP
007E0000
01FF0000
03FE0000
07800000
07000000
07000000
07800000
03FC0000
01F80000
00780000
00380000
00700000
00000000
00000000
03FE0600
0FFF8F80
1FFFFF80
3FFFFF00
7E03FE00
F800F800
F8007800
F0007800
F0007800
F0007800
F0007800
F8007800
F800F800
7E03F000
3FFFF000
3FFFE000
7FFF8000
7BFE0000
F8000000
F8000000
7C000000
7FC00000
3FFF0000
0FFFE000
00FFF000
0003F800
0000F800
00007800
F0007800
F0007800
F800F800
7C01F800
7FFFF000
3FFFE000
1FFFC000
07FF0000
ENDCHAR
STARTCHAR 0124
ENCODING 292
SWIDTH 504 0
DWIDTH 28 0
BBX 23 47 3 0
BITMAP
00FC00
00FC00
01FE00
01EE00
038700
030300
060180
040080
000000
000000
000000
F0003E
F0003E
F0003E
F0003E
F0003E
F0003E
F0003E
F0003E
F0003E
F0003E
F0003E
F0003E
F0003E
F0003E
F0003E
F0003E
FFFFFE
FFFFFE
FFFFFE
FFFFFE
F0003E
F0003E
F0003E
F0003E
F0003E
F0003E
F0003E
F0003E
F0003E
F0003E
F0003E
F0003E
F0003E
F0003E
F0003E
F0003E
ENDCHAR
STARTCHAR 0125
ENCODING 293
SWIDTH 486 0
DWIDTH 27 0
BBX 21 46 3 0
BITMAP
00FC00
01FC00
01DE00
038E00
070700
060300
0C0180
080080
000000
000000
F00000
F00000
F00000
F00000
F00000
F00000
F00000
F00000
F00000
F00000
F00000
F1FF00
F7FF80
FFFFC0
FFFFE0
FF01F0
FE01F0
FC00F0
F800F8
F80078
F00078
F00078
F00078
F00078
F00078
F00078
F00078
F00078
F00078
F00078
F00078
F00078
F00078
F00078
F00078
F00078
ENDCHAR
STARTCHAR 0126
ENCODING 294
SWIDTH 648 0
DWIDTH 36 0
BBX 31 36 3 0
BITMAP
0F0003E0
0F0003E0
0F0003E0
0F0003E0
0F0003E0
0F0003E0
FFFFFFFE
FFFFFFFE
FFFFFFFE
FFFFFFFE
0F0003E0
0F0003E0
0F0003E0
0F0003E0
0F0003E0
0F0003E0
0FFFFFE0
0FFFFFE0
0FFFFFE0
0FFFFFE0
0F0003E0
0F0003E0
0F0003E0
0F0003E0
0F0003E0
0F0003E0
0F0003E0
0F0003E0
0F0003E0
0F0003E0
0F0003E0
0F0003E0
0F0003E0
0F0003E0
0F0003E0
0F0003E0
ENDCHAR
STARTCHAR 0127
ENCODING 295
SWIDTH 558 0
DWIDTH 31 0
BBX 25 36 3 0
BITMAP
0F000000
0F000000
0F000000
0F000000
FFFFFE00
FFFFFE00
FFFFFE00
FFFFFE00
0F000000
0F000000
0F000000
0F1FE000
0F7FF800
0FFFFC00
0FFFFE00
0FF03E00
0FE01F00
0FC00F00
0F800F80
0F800780
0F000780
0F000780
0F000780
0F000780
0F000780
0F000780
0F000780
0F000780
0F000780
0F000780
0F000780
0F000780
0F000780
0F000780
0F000780
0F000780
ENDCHAR
STARTCHAR 0128
ENCODING 296
SWIDTH 306 0
DWIDTH 17 0
BBX 19 46 -1 0
BITMAP
1E0060
3F8060
7FE0E0
71F8E0
607FC0
E03FC0
E00600
000000
000000
000000
0FFF00
0FFF00
0FFF00
0FFF00
00F000
00F000
00F000
00F000
00F000
00F000
00F000
00F000
00F000
00F000
00F000
00F000
00F000
00F000
00F000
00F000
00F000
00F000
00F000
00F000
00F000
00F000
00F000
00F000
00F000
00F000
00F000
00F000
0FFF00
0FFF00
0FFF00
0FFF00
ENDCHAR
STARTCHAR 0129
ENCODING 297
SWIDTH 162 0
DWIDTH 9 0
BBX 19 35 -5 0
BITMAP
1E0060
3F8060
7FE0E0
71FDE0
E07FC0
E01F80
E00600
000000
000000
000000
00F000
00F000
00F000
00F000
00F000
00F000
00F000
00F000
00F000
00F000
00F000
00F000
00F000
00F000
00F000
00F000
00F000
00F000
00F000
00F000
00F000
00F000
00F000
00F000
00F000
ENDCHAR
STARTCHAR 012A
ENCODING 298
SWIDTH 306 0
DWIDTH 17 0
BBX 14 44 2 0
BITMAP
FFFC
FFFC
FFFC
FFFC
0000
0000
0000
0000
7FF8
7FF8
7FF8
7FF8
0780
0780
0780
0780
0780
0780
0780
0780
0780
0780
0780
0780
0780
0780
0780
0780
0780
0780
0780
0780
0780
0780
0780
0780
0780
0780
0780
0780
7FF8
7FF8
7FF8
7FF8
ENDCHAR
STARTCHAR 012B
ENCODING 299
SWIDTH 162 0
DWIDTH 9 0
BBX 14 33 -2 0
BITMAP
FFFC
FFFC
FFFC
FFFC
0000
0000
0000
0000
0780
0780
0780
0780
0780
0780
0780
0780
0780
0780
0780
0780
0780
0780
0780
0780
0780
0780
0780
0780
0780
0780
0780
0780
0780
ENDCHAR
STARTCHAR 012C
ENCODING 300
SWIDTH 306 0
DWIDTH 17 0
BBX 15 47 1 0
BITMAP
E00E
F00E
700E
781E
7E7C
3FF8
1FF0
07C0
0000
0000
0000
3FFC
3FFC
3FFC
3FFC
03C0
03C0
03C0
03C0
03C0
03C0
03C0
03C0
03C0
03C0
03C0
03C0
03C0
03C0
03C0
03C0
03C0
03C0
03C0
03C0
03C0
03C0
03C0
03C0
03C0
03C0
03C0
03C0
3FFC
3FFC
3FFC
3FFC
ENDCHAR
STARTCHAR 012D
ENCODING 301
SWIDTH 162 0
DWIDTH 9 0
BBX 15 36 -3 0
BITMAP
E00E
F00E
F00E
781E
7FFC
3FF8
1FF0
03C0
0000
0000
0000
03C0
03C0
03C0
03C0
03C0
03C0
03C0
03C0
03C0
03C0
03C0
03C0
03C0
03C0
03C0
03C0
03C0
03C0
03C0
03C0
03C0
03C0
03C0
03C0
03C0
ENDCHAR
STARTCHAR 012E
ENCODING 302
SWIDTH 306 0
DWIDTH 17 0
BBX 15 46 3 -10
BITMAP
FFF0
FFF0
FFF0
FFF0
0F00
0F00
0F00
0F00
0F00
0F00
0F00
0F00
0F00
0F00
0F00
0F00
0F00
0F00
0F00
0F00
0F00
0F00
0F00
0F00
0F00
0F00
0F00
0F00
0F00
0F00
0F00
0F00
FFF0
FFF0
FFF0
FFF0
0600
0600
0E00
0E00
0F00
0F80
07C0
07FE
03FE
00F8
ENDCHAR
STARTCHAR 012F
ENCODING 303
SWIDTH 162 0
DWIDTH 9 0
BBX 12 45 2 -10
BITMAP
3000
F800
FC00
FC00
F800
7800
0000
0000
0000
0000
7800
7800
7800
7800
7800
7800
7800
7800
7800
7800
7800
7800
7800
7800
7800
7800
7800
7800
7800
7800
7800
7800
7800
7800
7800
2000
6000
7000
7000
7000
7800
7E00
3FF0
1FE0
0FC0
ENDCHAR
STARTCHAR 0130
ENCODING 304
SWIDTH 306 0
DWIDTH 17 0
BBX 12 46 3 0
BITMAP
0400
0F00
1F80
1F80
1F80
0F00
0000
0000
0000
0000
FFF0
FFF0
FFF0
FFF0
0F00
0F00
0F00
0F00
0F00
0F00
0F00
0F00
0F00
0F00
0F00
0F00
0F00
0F00
0F00
0F00
0F00
0F00
0F00
0F00
0F00
0F00
0F00
0F00
0F00
0F00
0F00
0F00
FFF0
FFF0
FFF0
FFF0
ENDCHAR
STARTCHAR 0131
ENCODING 305
SWIDTH 162 0
DWIDTH 9 0
BBX 4 25 3 0
BITMAP
F0
F0
F0
F0
F0
F0
F0
F0
F0
F0
F0
F0
F0
F0
F0
F0
F0
F0
F0
F0
F0
F0
F0
F0
F0
ENDCHAR
STARTCHAR 0132
ENCODING 306
SWIDTH 630 0
DWIDTH 35 0
BBX 30 37 3 -1
BITMAP
FFF0007C
FFF0007C
FFF0007C
FFF0007C
0F00007C
0F00007C
0F00007C
0F00007C
0F00007C
0F00007C
0F00007C
0F00007C
0F00007C
0F00007C
0F00007C
0F00007C
0F00007C
0F00007C
0F00007C
0F00007C
0F00007C
0F00007C
0F00007C
0F00007C
0F00007C
0F00007C
0F00007C
0F00007C
0F00007C
0F03C07C
0F01E078
0F01F0F8
FFF1FFF8
FFF0FFF0
FFF07FE0
FFF03FC0
00000400
ENDCHAR
STARTCHAR 0133
ENCODING 307
SWIDTH 324 0
DWIDTH 18 0
BBX 15 46 2 -11
BITMAP
3018
F83E
FC7E
FC7E
F83E
783C
0000
0000
0000
0000
783C
783C
783C
783C
783C
783C
783C
783C
783C
783C
783C
783C
783C
783C
783C
783C
783C
783C
783C
783C
783C
783C
783C
783C
783C
003C
003C
003C
003C
003C
003C
007C
0FF8
1FF8
3FF0
1FC0
ENDCHAR
STARTCHAR 0134
ENCODING 308
SWIDTH 360 0
DWIDTH 20 0
BBX 19 48 3 -1
BITMAP
003E00
007F00
007F00
00F780
00E3C0
01C1C0
0180E0
030060
000000
000000
000000
001E00
001E00
001E00
001E00
001E00
001E00
001E00
001E00
001E00
001E00
001E00
001E00
001E00
001E00
001E00
001E00
001E00
001E00
001E00
001E00
001E00
001E00
001E00
001E00
001E00
001E00
001E00
001E00
001E00
F01E00
F03E00
F83C00
7FFC00
7FF800
3FF800
1FE000
010000
ENDCHAR
STARTCHAR 0135
ENCODING 309
SWIDTH 162 0
DWIDTH 9 0
BBX 17 47 -6 -11
BITMAP
00F800
01FC00
01FE00
03DE00
038F00
070700
060380
0C0180
000000
000000
000000
007800
007800
007800
007800
007800
007800
007800
007800
007800
007800
007800
007800
007800
007800
007800
007800
007800
007800
007800
007800
007800
007800
007800
007800
007800
007800
007800
007800
007800
007800
00F800
01F000
3FF000
7FE000
FFC000
3F8000
ENDCHAR
STARTCHAR 0136
ENCODING 310
SWIDTH 540 0
DWIDTH 30 0
BBX 24 47 3 -11
BITMAP
F000F8
F000F8
F001F0
F003E0
F003E0
F007C0
F00F80
F00F80
F01F00
F03E00
F07C00
F07C00
F0F800
F1F000
F1F000
F3E000
F7E000
F7E000
FFF000
FFF800
FE7800
FE7C00
FC3E00
F81F00
F81F00
F00F80
F007C0
F007C0
F003E0
F001F0
F000F8
F000F8
F0007C
F0003E
F0003E
F0701F
007000
00F000
00FC00
00FE00
000F00
000700
000700
000700
031E00
07FE00
07F800
ENDCHAR
STARTCHAR 0137
ENCODING 311
SWIDTH 432 0
DWIDTH 24 0
BBX 18 47 3 -11
BITMAP
F00000
F00000
F00000
F00000
F00000
F00000
F00000
F00000
F00000
F00000
F00000
F01F00
F03E00
F07C00
F07C00
F0F800
F1F000
F3E000
F3E000
F7C000
FF8000
FF8000
FF8000
FFC000
FFE000
FFE000
F9F000
F0F800
F0F800
F07C00
F03E00
F01F00
F01F00
F00F80
F007C0
F1C7C0
038000
038000
03F000
07F800
003800
001C00
001C00
001C00
0C7800
1FF000
1FE000
ENDCHAR
STARTCHAR 0138
ENCODING 312
SWIDTH 432 0
DWIDTH 24 0
BBX 18 25 3 0
BITMAP
F01F00
F03E00
F07C00
F07C00
F0F800
F1F000
F3E000
F3E000
F7C000
FF8000
FF8000
FF8000
FFC000
FFE000
FFE000
F9F000
F0F800
F0F800
F07C00
F03E00
F01F00
F01F00
F00F80
F007C0
F007C0
ENDCHAR
STARTCHAR 0139
ENCODING 313
SWIDTH 504 0
DWIDTH 28 0
BBX 23 47 3 0
BITMAP
000F80
000F00
001E00
001C00
003800
007000
006000
00C000
000000
000000
000000
F00000
F00000
F00000
F00000
F00000
F00000
F00000
F00000
F00000
F00000
F00000
F00000
F00000
F00000
F00000
F00000
F00000
F00000
F00000
F00000
F00000
F00000
F00000
F00000
F00000
F00000
F00000
F00000
F00000
F00000
F00000
F00000
FFFFFE
FFFFFE
FFFFFE
FFFFFE
ENDCHAR
STARTCHAR 013A
ENCODING 314
SWIDTH 234 0
DWIDTH 13 0
BBX 9 46 2 0
BITMAP
0F80
1F00
1E00
3C00
3800
7000
6000
C000
0000
0000
7800
7800
7800
7800
7800
7800
7800
7800
7800
7800
7800
7800
7800
7800
7800
7800
7800
7800
7800
7800
7800
7800
7800
7800
7800
7800
7800
7800
7800
7800
7800
7800
7F80
7F80
7F80
3F80
ENDCHAR
STARTCHAR 013B
ENCODING 315
SWIDTH 504 0
DWIDTH 28 0
BBX 23 47 3 -11
BITMAP
F00000
F00000
F00000
F00000
F00000
F00000
F00000
F00000
F00000
F00000
F00000
F00000
F00000
F00000
F00000
F00000
F00000
F00000
F00000
F00000
F00000
F00000
F00000
F00000
F00000
F00000
F00000
F00000
F00000
F00000
F00000
F00000
FFFFFE
FFFFFE
FFFFFE
FFFFFE
003800
007800
007E00
007F00
000780
000380
000380
000380
018F00
01FF00
03FC00
ENDCHAR
STARTCHAR 013C
ENCODING 316
SWIDTH 234 0
DWIDTH 13 0
BBX 11 47 2 -11
BITMAP
7800
7800
7800
7800
7800
7800
7800
7800
7800
7800
7800
7800
7800
7800
7800
7800
7800
7800
7800
7800
7800
7800
7800
7800
7800
7800
7800
7800
7800
7800
7800
7800
7F80
7F80
7F80
3F80
1C00
1C00
3F00
3F80
03C0
00C0
00E0
01C0
C7C0
FF80
FF00
ENDCHAR
STARTCHAR 013D
ENCODING 317
SWIDTH 504 0
DWIDTH 28 0
BBX 23 36 3 0
BITMAP
F07800
F0FC00
F0FE00
F0FE00
F0FE00
F03600
F00600
F00600
F00C00
F00C00
F01800
F03000
F06000
F18000
F00000
F00000
F00000
F00000
F00000
F00000
F00000
F00000
F00000
F00000
F00000
F00000
F00000
F00000
F00000
F00000
F00000
F00000
FFFFFE
FFFFFE
FFFFFE
FFFFFE
ENDCHAR
STARTCHAR 013E
ENCODING 318
SWIDTH 234 0
DWIDTH 13 0
BBX 14 36 3 0
BITMAP
F1E0
F1F8
F3F8
F3FC
F1FC
F0DC
F01C
F018
F018
F018
F030
F060
F1C0
F300
F000
F000
F000
F000
F000
F000
F000
F000
F000
F000
F000
F000
F000
F000
F000
F000
F000
F000
FF00
FF00
FF00
7F00
ENDCHAR
STARTCHAR 013F
ENCODING 319
SWIDTH 504 0
DWIDTH 28 0
BBX 23 36 3 0
BITMAP
F00000
F00000
F00000
F00000
F00000
F00000
F00000
F00000
F00000
F00000
F00000
F00000
F00000
F00000
F00000
F01C00
F03E00
F07E00
F07E00
F03E00
F01C00
F00000
F00000
F00000
F00000
F00000
F00000
F00000
F00000
F00000
F00000
F00000
FFFFFE
FFFFFE
FFFFFE
FFFFFE
ENDCHAR
STARTCHAR 0140
ENCODING 320
SWIDTH 342 0
DWIDTH 19 0
BBX 14 36 3 0
BITMAP
F000
F000
F000
F000
F000
F000
F000
F000
F000
F000
F000
F000
F000
F000
F000
F070
F0F8
F0FC
F0FC
F0F8
F078
F000
F000
F000
F000
F000
F000
F000
F000
F000
F000
F000
FF00
FF00
FF00
7F00
ENDCHAR
STARTCHAR 0141
ENCODING 321
SWIDTH 594 0
DWIDTH 33 0
BBX 28 36 3 0
BITMAP
07800000
07800000
07800000
07800000
07800000
07800000
07800000
07800000
07800000
07800000
07800000
07800000
07800000
07820000
079E0000
07FE0000
07FE0000
1FFE0000
FFF00000
FF800000
FF800000
F7800000
87800000
07800000
07800000
07800000
07800000
07800000
07800000
07800000
07800000
07800000
07FFFFF0
07FFFFF0
07FFFFF0
07FFFFF0
ENDCHAR
STARTCHAR 0142
ENCODING 322
SWIDTH 360 0
DWIDTH 20 0
BBX 15 36 3 0
BITMAP
0780
0780
0780
0780
0780
0780
0780
0780
0780
0780
0780
0780
0780
0782
079E
07FE
07FE
1FFE
FFF0
FF80
FF80
F780
8780
0780
0780
0780
0780
0780
0780
0780
0780
0780
07F8
07F8
03F8
01F8
ENDCHAR
STARTCHAR 0143
ENCODING 323
SWIDTH 594 0
DWIDTH 33 0
BBX 28 47 3 0
BITMAP
0001F000
0003E000
0003C000
00078000
00070000
000E0000
000C0000
00180000
00000000
00000000
00000000
F00000F0
F80000F0
F80000F0
FC0000F0
FE0000F0
FF0000F0
FF0000F0
FF8000F0
F7C000F0
F7C000F0
F3E000F0
F1F000F0
F1F000F0
F0F800F0
F07C00F0
F03E00F0
F03E00F0
F01F00F0
F00F80F0
F00F80F0
F007C0F0
F003E0F0
F003E0F0
F001F0F0
F000F8F0
F0007CF0
F0007CF0
F0003EF0
F0001FF0
F0001FF0
F0000FF0
F00007F0
F00007F0
F00003F0
F00001F0
F00000F0
ENDCHAR
STARTCHAR 0144
ENCODING 324
SWIDTH 486 0
DWIDTH 27 0
BBX 21 36 3 0
BITMAP
001F80
001F00
003E00
003C00
007800
006000
00C000
008000
000000
000000
000000
F1FF00
F7FF80
FFFFC0
FFFFE0
FF01F0
FE01F0
FC00F0
F800F8
F80078
F00078
F00078
F00078
F00078
F00078
F00078
F00078
F00078
F00078
F00078
F00078
F00078
F00078
F00078
F00078
F00078
ENDCHAR
STARTCHAR 0145
ENCODING 325
SWIDTH 594 0
DWIDTH 33 0
BBX 28 47 3 -11
BITMAP
F00000F0
F80000F0
F80000F0
FC0000F0
FE0000F0
FF0000F0
FF0000F0
FF8000F0
F7C000F0
F7C000F0
F3E000F0
F1F000F0
F1F000F0
F0F800F0
F07C00F0
F03E00F0
F03E00F0
F01F00F0
F00F80F0
F00F80F0
F007C0F0
F003E0F0
F003E0F0
F001F0F0
F000F8F0
F0007CF0
F0007CF0
F0003EF0
F0001FF0
F0001FF0
F0000FF0
F00007F0
F00007F0
F00003F0
F00001F0
F00E00F0
000E0000
000E0000
001F8000
001FC000
0001E000
0000E000
00006000
0000E000
0063E000
007FC000
007F0000
ENDCHAR
STARTCHAR 0146
ENCODING 326
SWIDTH 486 0
DWIDTH 27 0
BBX 21 36 3 -10
BITMAP
F1FF00
F7FF80
FFFFC0
FFFFE0
FF01F0
FE01F0
FC00F0
F800F8
F80078
F00078
F00078
F00078
F00078
F00078
F00078
F00078
F00078
F00078
F00078
F00078
F00078
F00078
F00078
F00078
F07078
007000
007000
00FC00
00FE00
000F00
000700
000300
000700
031F00
03FE00
03F800
ENDCHAR
STARTCHAR 0147
ENCODING 327
SWIDTH 594 0
DWIDTH 33 0
BBX 28 47 3 0
BITMAP
01001800
00803000
00C07000
0060E000
0071E000
003BC000
003FC000
001F8000
00000000
00000000
00000000
F00000F0
F80000F0
F80000F0
FC0000F0
FE0000F0
FF0000F0
FF0000F0
FF8000F0
F7C000F0
F7C000F0
F3E000F0
F1F000F0
F1F000F0
F0F800F0
F07C00F0
F03E00F0
F03E00F0
F01F00F0
F00F80F0
F00F80F0
F007C0F0
F003E0F0
F003E0F0
F001F0F0
F000F8F0
F0007CF0
F0007CF0
F0003EF0
F0001FF0
F0001FF0
F0000FF0
F00007F0
F00007F0
F00003F0
F00001F0
F00000F0
ENDCHAR
STARTCHAR 0148
ENCODING 328
SWIDTH 486 0
DWIDTH 27 0
BBX 21 36 3 0
BITMAP
080080
0C0180
060300
070700
038E00
03DE00
01FC00
01FC00
000000
000000
000000
F1FF00
F7FF80
FFFFC0
FFFFE0
FF01F0
FE01F0
FC00F0
F800F8
F80078
F00078
F00078
F00078
F00078
F00078
F00078
F00078
F00078
F00078
F00078
F00078
F00078
F00078
F00078
F00078
F00078
ENDCHAR
STARTCHAR 0149
ENCODING 329
SWIDTH 576 0
DWIDTH 32 0
BBX 28 36 2 0
BITMAP
7C000000
7E000000
FE000000
7F000000
7F000000
1B000000
03000000
03000000
06000000
06000000
0C002000
1BC3FC00
33CFFF00
C3FFFF80
03FFFF80
03FE07C0
03FC03C0
03F803E0
03F001E0
03E001E0
03E001F0
03C000F0
03C000F0
03C000F0
03C000F0
03C000F0
03C000F0
03C000F0
03C000F0
03C000F0
03C000F0
03C000F0
03C000F0
03C000F0
03C000F0
03C000F0
ENDCHAR
STARTCHAR 014A
ENCODING 330
SWIDTH 558 0
DWIDTH 31 0
BBX 25 36 3 -1
BITMAP
F07FC000
F1FFF000
F3FFF800
F7FFFC00
FFC07E00
FF803E00
FF001F00
FE000F00
FC000F80
FC000780
F8000780
F8000780
F8000780
F0000780
F0000780
F0000780
F0000780
F0000780
F0000780
F0000780
F0000780
F0000780
F0000780
F0000780
F0000780
F0000780
F0000780
F0000780
F0000780
F0000780
F0000780
F0000F80
F001FF80
F003FF00
F007FE00
F003FC00
ENDCHAR
STARTCHAR 014B
ENCODING 331
SWIDTH 486 0
DWIDTH 27 0
BBX 21 36 3 -10
BITMAP
F1FF00
F7FF80
FFFFC0
FFFFE0
FF01F0
FE01F0
FC00F0
F800F8
F80078
F00078
F00078
F00078
F00078
F00078
F00078
F00078
F00078
F00078
F00078
F00078
F00078
F00078
F00078
F00078
F00078
000078
000078
000078
000078
000078
000078
0000F8
001FF0
003FF0
007FE0
003F80
ENDCHAR
STARTCHAR 014C
ENCODING 332
SWIDTH 630 0
DWIDTH 35 0
BBX 30 45 3 -1
BITMAP
00FFF800
00FFF800
00FFF800
00FFF800
00000000
00000000
00000000
00000000
003FE000
00FFF800
01FFFE00
07FFFF00
07E03F80
0F800FC0
1F0007C0
3E0003E0
3E0001E0
7C0001F0
780000F0
780000F8
F8000078
F0000078
F0000078
F0000078
F0000078
F000007C
F000007C
F000007C
F0000078
F0000078
F0000078
F8000078
780000F8
780000F0
7C0001F0
3C0001F0
3E0003E0
1F0007C0
0F800FC0
0FE01F80
07FFFF00
03FFFE00
00FFFC00
007FF000
00020000
ENDCHAR
STARTCHAR 014D
ENCODING 333
SWIDTH 486 0
DWIDTH 27 0
BBX 21 34 3 -1
BITMAP
0FFF80
0FFF80
0FFF80
0FFF80
000000
000000
000000
000000
03FE00
07FF00
0FFF80
1FFFC0
3F03E0
7C01F0
7C00F0
F800F8
F00078
F00078
F00078
F00078
F00078
F00078
F00078
F00078
F00078
F800F8
7C00F0
7C01F0
3E03E0
1FFFC0
0FFFC0
07FF00
03FE00
002000
ENDCHAR
STARTCHAR 014E
ENCODING 334
SWIDTH 630 0
DWIDTH 35 0
BBX 30 48 3 -1
BITMAP
01C01C00
01C01C00
01E01C00
00E03C00
00FCF800
007FF000
003FE000
000F8000
00000000
00000000
00000000
003FE000
00FFF800
01FFFE00
07FFFF00
07E03F80
0F800FC0
1F0007C0
3E0003E0
3E0001E0
7C0001F0
780000F0
780000F8
F8000078
F0000078
F0000078
F0000078
F0000078
F000007C
F000007C
F000007C
F0000078
F0000078
F0000078
F8000078
780000F8
780000F0
7C0001F0
3C0001F0
3E0003E0
1F0007C0
0F800FC0
0FE01F80
07FFFF00
03FFFE00
00FFFC00
007FF000
00020000
ENDCHAR
STARTCHAR 014F
ENCODING 335
SWIDTH 486 0
DWIDTH 27 0
BBX 21 37 3 -1
BITMAP
1C01C0
1C01C0
1E03C0
0F0380
0FDF80
07FF00
03FE00
007800
000000
000000
000000
03FE00
07FF00
0FFF80
1FFFC0
3F03E0
7C01F0
7C00F0
F800F8
F00078
F00078
F00078
F00078
F00078
F00078
F00078
F00078
F00078
F800F8
7C00F0
7C01F0
3E03E0
1FFFC0
0FFFC0
07FF00
03FE00
002000
ENDCHAR
STARTCHAR 0150
ENCODING 336
SWIDTH 630 0
DWIDTH 35 0
BBX 30 48 3 -1
BITMAP
0007C7C0
000F8F80
000F0F00
001E1E00
001C1C00
00383800
00303000
00606000
00000000
00000000
00000000
003FE000
00FFF800
01FFFE00
07FFFF00
07E03F80
0F800FC0
1F0007C0
3E0003E0
3E0001E0
7C0001F0
780000F0
780000F8
F8000078
F0000078
F0000078
F0000078
F0000078
F000007C
F000007C
F000007C
F0000078
F0000078
F0000078
F8000078
780000F8
780000F0
7C0001F0
3C0001F0
3E0003E0
1F0007C0
0F800FC0
0FE01F80
07FFFF00
03FFFE00
00FFFC00
007FF000
00020000
ENDCHAR
STARTCHAR 0151
ENCODING 337
SWIDTH 486 0
DWIDTH 27 0
BBX 22 37 3 -1
BITMAP
007C7C
00F8F8
01F0F0
01E1E0
03C1C0
038380
070300
060600
000000
000000
000000
03FE00
07FF00
0FFF80
1FFFC0
3F03E0
7C01F0
7C00F0
F800F8
F00078
F00078
F00078
F00078
F00078
F00078
F00078
F00078
F00078
F800F8
7C00F0
7C01F0
3E03E0
1FFFC0
0FFFC0
07FF00
03FE00
002000
ENDCHAR
STARTCHAR 0152
ENCODING 338
SWIDTH 954 0
DWIDTH 53 0
BBX 48 37 3 -1
BITMAP
003FE07FFFFF
00FFF87FFFFF
01FFFE7FFFFF
07FFFF7FFFFF
07E03FFC0000
0F800FFC0000
1F0007FC0000
3E0003FC0000
3E0001FC0000
7C0001FC0000
780000FC0000
780000FC0000
F800007C0000
F000007C0000
F000007C0000
F000007C0000
F000007FFFF8
F000007FFFF8
F000007FFFF8
F000007FFFF8
F000007C0000
F000007C0000
F000007C0000
F800007C0000
780000FC0000
780000FC0000
7C0001FC0000
3C0001FC0000
3E0003FC0000
1F0007FC0000
0F800FFC0000
0FE01FFC0000
07FFFF7FFFFF
03FFFE7FFFFF
00FFFC7FFFFF
007FF07FFFFF
000200000000
ENDCHAR
STARTCHAR 0153
ENCODING 339
SWIDTH 792 0
DWIDTH 44 0
BBX 39 26 3 0
BITMAP
03FE00FF00
07FF03FFC0
0FFFC7FFE0
1FFFCFFFF0
3F03EF81F8
7C01FF00F8
7C00FE007C
F800FE003C
F0007C003E
F0007FFFFE
F0007FFFFE
F0007FFFFE
F0007FFFFE
F000780000
F0007C0000
F0007C0000
F0007C0000
F800FE0030
7C00FE0078
7C01FF00F8
3E03EF81F8
1FFFCFFFF0
0FFFC7FFE0
07FF03FFC0
03FE00FF80
0020000800
ENDCHAR
STARTCHAR 0154
ENCODING 340
SWIDTH 522 0
DWIDTH 29 0
BBX 24 47 3 0
BITMAP
000F80
001F00
003E00
003C00
007800
007000
00E000
00C000
000000
000000
000000
FFF800
FFFF00
FFFF80
FFFFC0
F00FE0
F003F0
F000F0
F000F8
F00078
F00078
F00078
F00078
F00078
F000F8
F001F0
F003F0
FFFFE0
FFFFC0
FFFF80
FFFE00
FFFE00
F01F00
F00F00
F00F80
F007C0
F007C0
F003E0
F001E0
F001F0
F000F0
F000F8
F0007C
F0007C
F0003E
F0001E
F0001F
ENDCHAR
STARTCHAR 0155
ENCODING 341
SWIDTH 324 0
DWIDTH 18 0
BBX 13 36 3 0
BITMAP
01F8
01E0
03C0
0380
0700
0600
0C00
0800
0000
0000
0000
F1F8
F7F8
FFF8
FFF0
FF00
FE00
FC00
F800
F800
F000
F000
F000
F000
F000
F000
F000
F000
F000
F000
F000
F000
F000
F000
F000
F000
ENDCHAR
STARTCHAR 0156
ENCODING 342
SWIDTH 486 0
DWIDTH 27 0
BBX 24 47 3 -11
BITMAP
FFF800
FFFF00
FFFF80
FFFFC0
F00FE0
F003F0
F000F0
F000F8
F00078
F00078
F00078
F00078
F00078
F000F8
F001F0
F003F0
FFFFE0
FFFFC0
FFFF80
FFFE00
FFFE00
F01F00
F00F00
F00F80
F007C0
F007C0
F003E0
F001E0
F001F0
F000F0
F000F8
F0007C
F0007C
F0003E
F0001E
F0701F
007000
007000
00FC00
00FE00
000F00
000700
000300
000700
031F00
03FE00
03F800
ENDCHAR
STARTCHAR 0157
ENCODING 343
SWIDTH 324 0
DWIDTH 18 0
BBX 16 36 0 -10
BITMAP
1E3F
1EFF
1FFF
1FFE
1FE0
1FC0
1F80
1F00
1F00
1E00
1E00
1E00
1E00
1E00
1E00
1E00
1E00
1E00
1E00
1E00
1E00
1E00
1E00
1E00
1E00
1C00
1C00
3F00
3F80
03C0
01C0
00C0
01C0
C7C0
FF80
FF00
ENDCHAR
STARTCHAR 0158
ENCODING 344
SWIDTH 522 0
DWIDTH 29 0
BBX 24 47 3 0
BITMAP
080080
0C0180
060300
070700
038E00
03DE00
01FC00
01FC00
000000
000000
000000
FFF800
FFFF00
FFFF80
FFFFC0
F00FE0
F003F0
F000F0
F000F8
F00078
F00078
F00078
F00078
F00078
F000F8
F001F0
F003F0
FFFFE0
FFFFC0
FFFF80
FFFE00
FFFE00
F01F00
F00F00
F00F80
F007C0
F007C0
F003E0
F001E0
F001F0
F000F0
F000F8
F0007C
F0007C
F0003E
F0001E
F0001F
ENDCHAR
STARTCHAR 0159
ENCODING 345
SWIDTH 324 0
DWIDTH 18 0
BBX 13 36 3 0
BITMAP
8008
C018
6030
7070
38E0
3DE0
1FC0
1FC0
0000
0000
0000
F1F8
F7F8
FFF8
FFF0
FF00
FE00
FC00
F800
F800
F000
F000
F000
F000
F000
F000
F000
F000
F000
F000
F000
F000
F000
F000
F000
F000
ENDCHAR
STARTCHAR 015A
ENCODING 346
SWIDTH 486 0
DWIDTH 27 0
BBX 21 48 3 -1
BITMAP
000F80
001F00
003E00
003C00
007800
007000
00E000
00C000
000000
000000
000000
03FE00
07FF00
0FFF80
1FFFC0
3F07E0
3C01E0
7C01F0
7800F0
7800F0
780000
780000
7C0000
3E0000
3F0000
1F8000
0FE000
07FC00
03FF00
00FF80
001FC0
000FE0
0003F0
0001F8
0000F8
000078
000078
F00078
F00078
F00078
F800F8
7C00F8
7E03F0
3FFFE0
1FFFC0
0FFF80
03FF00
002000
ENDCHAR
STARTCHAR 015B
ENCODING 347
SWIDTH 378 0
DWIDTH 21 0
BBX 16 37 3 -1
BITMAP
007C
00F8
00F0
01E0
01C0
0380
0300
0600
0000
0000
0000
0FF0
1FF8
3FFC
7FFE
783E
F81E
F000
7800
7C00
7F00
3FC0
0FF0
03FC
00FE
003E
001F
000F
F00F
F00F
F01F
F83E
7FFE
7FFC
3FF8
0FF0
0100
ENDCHAR
STARTCHAR 015C
ENCODING 348
SWIDTH 486 0
DWIDTH 27 0
BBX 21 48 3 -1
BITMAP
00F800
01FC00
01FC00
03DE00
038E00
070700
060300
0C0180
000000
000000
000000
03FE00
07FF00
0FFF80
1FFFC0
3F07E0
3C01E0
7C01F0
7800F0
7800F0
780000
780000
7C0000
3E0000
3F0000
1F8000
0FE000
07FC00
03FF00
00FF80
001FC0
000FE0
0003F0
0001F8
0000F8
000078
000078
F00078
F00078
F00078
F800F8
7C00F8
7E03F0
3FFFE0
1FFFC0
0FFF80
03FF00
002000
ENDCHAR
STARTCHAR 015D
ENCODING 349
SWIDTH 378 0
DWIDTH 21 0
BBX 16 37 3 -1
BITMAP
07E0
07E0
0FF0
0E70
1C38
3818
300C
6004
0000
0000
0000
0FF0
1FF8
3FFC
7FFE
783E
F81E
F000
7800
7C00
7F00
3FC0
0FF0
03FC
00FE
003E
001F
000F
F00F
F00F
F01F
F83E
7FFE
7FFC
3FF8
0FF0
0100
ENDCHAR
STARTCHAR 015E
ENCODING 350
SWIDTH 486 0
DWIDTH 27 0
BBX 21 47 3 -11
BITMAP
03FE00
07FF00
0FFF80
1FFFC0
3F07E0
3C01E0
7C01F0
7800F0
7800F0
780000
780000
7C0000
3E0000
3F0000
1F8000
0FE000
07FC00
03FF00
00FF80
001FC0
000FE0
0003F0
0001F8
0000F8
000078
000078
F00078
F00078
F00078
F800F8
7C00F8
7E03F0
3FFFE0
1FFFC0
0FFF80
03FE00
007000
00F000
00FC00
00FE00
000F00
000700
000700
000700
031E00
07FE00
07F800
ENDCHAR
STARTCHAR 015F
ENCODING 351
SWIDTH 378 0
DWIDTH 21 0
BBX 16 36 3 -11
BITMAP
0FE0
1FF8
3FFC
7FFE
7C3E
F81E
F01E
F800
7C00
7F00
3FC0
1FF0
07FC
00FE
003E
001F
000F
F00F
F00F
F01F
F83E
7FFE
7FFC
3FF8
0FF0
0380
0380
07E0
07F0
0078
0038
0018
0038
18F8
1FF0
1FC0
ENDCHAR
STARTCHAR 0160
ENCODING 352
SWIDTH 486 0
DWIDTH 27 0
BBX 21 48 3 -1
BITMAP
080080
0C0180
060300
070700
038E00
03DE00
01FC00
01FC00
000000
000000
000000
03FE00
07FF00
0FFF80
1FFFC0
3F07E0
3C01E0
7C01F0
7800F0
7800F0
780000
780000
7C0000
3E0000
3F0000
1F8000
0FE000
07FC00
03FF00
00FF80
001FC0
000FE0
0003F0
0001F8
0000F8
000078
000078
F00078
F00078
F00078
F800F8
7C00F8
7E03F0
3FFFE0
1FFFC0
0FFF80
03FF00
002000
ENDCHAR
STARTCHAR 0161
ENCODING 353
SWIDTH 378 0
DWIDTH 21 0
BBX 16 37 3 -1
BITMAP
6006
300C
381C
1C38
1E70
0FF0
0FE0
07E0
0000
0000
0000
0FF0
1FF8
3FFC
7FFE
783E
F81E
F000
7800
7C00
7F00
3FC0
0FF0
03FC
00FE
003E
001F
000F
F00F
F00F
F01F
F83E
7FFE
7FFC
3FF8
0FF0
0100
ENDCHAR
STARTCHAR 0162
ENCODING 354
SWIDTH 504 0
DWIDTH 28 0
BBX 23 47 3 -11
BITMAP
FFFFFE
FFFFFE
FFFFFE
FFFFFE
007800
007800
007800
007800
007800
007800
007800
007800
007800
007800
007800
007800
007800
007800
007800
007800
007800
007800
007800
007800
007800
007800
007800
007800
007800
007800
007800
007800
007800
007800
007800
007800
007000
007000
007E00
00FF00
000700
000380
000380
000380
018F00
03FE00
03FC00
ENDCHAR
STARTCHAR 0163
ENCODING 355
SWIDTH 324 0
DWIDTH 18 0
BBX 13 41 3 -11
BITMAP
0780
0780
0780
0780
0780
FFF8
FFF8
FFF8
FFF8
0780
0780
0780
0780
0780
0780
0780
0780
0780
0780
0780
0780
0780
0780
0780
0780
0780
07F8
07F8
07F8
03F8
0380
0380
07E0
07F0
0078
0038
0018
0038
18F8
1FF0
1FC0
ENDCHAR
STARTCHAR 0164
ENCODING 356
SWIDTH 504 0
DWIDTH 28 0
BBX 23 47 3 0
BITMAP
0C0040
060080
070180
038300
03C700
01FE00
01FE00
00FC00
000000
000000
000000
FFFFFE
FFFFFE
FFFFFE
FFFFFE
007800
007800
007800
007800
007800
007800
007800
007800
007800
007800
007800
007800
007800
007800
007800
007800
007800
007800
007800
007800
007800
007800
007800
007800
007800
007800
007800
007800
007800
007800
007800
007800
ENDCHAR
STARTCHAR 0165
ENCODING 357
SWIDTH 486 0
DWIDTH 27 0
BBX 22 36 3 0
BITMAP
0001F0
0001F8
0003F8
0001FC
0081FC
01806C
07800C
07800C
078018
078018
078030
FFF860
FFF9C0
FFFB00
FFF800
078000
078000
078000
078000
078000
078000
078000
078000
078000
078000
078000
078000
078000
078000
078000
078000
078000
07F800
07F800
07F800
03F800
ENDCHAR
STARTCHAR 0166
ENCODING 358
SWIDTH 504 0
DWIDTH 28 0
BBX 23 36 3 0
BITMAP
FFFFFE
FFFFFE
FFFFFE
FFFFFE
007800
007800
007800
007800
007800
007800
007800
007800
007800
007800
007800
007800
3FFFF8
3FFFF8
3FFFF8
3FFFF8
007800
007800
007800
007800
007800
007800
007800
007800
007800
007800
007800
007800
007800
007800
007800
007800
ENDCHAR
STARTCHAR 0167
ENCODING 359
SWIDTH 324 0
DWIDTH 18 0
BBX 13 30 3 0
BITMAP
0780
0780
0780
0780
0780
FFF8
FFF8
FFF8
FFF8
0780
0780
0780
0780
0780
0780
FFF8
FFF8
FFF8
FFF8
FFF8
0780
0780
0780
0780
0780
0780
07F8
07F8
07F8
03F8
ENDCHAR
STARTCHAR 0168
ENCODING 360
SWIDTH 576 0
DWIDTH 32 0
BBX 27 47 3 -1
BITMAP
01E00E00
07F80E00
07FC0C00
0E3F9C00
0E0FFC00
0C03F800
0C006000
00000000
00000000
00000000
F00001E0
F00001E0
F00001E0
F00001E0
F00001E0
F00001E0
F00001E0
F00001E0
F00001E0
F00001E0
F00001E0
F00001E0
F00001E0
F00001E0
F00001E0
F00001E0
F00001E0
F00001E0
F00001E0
F00001E0
F00001E0
F00001E0
F00001E0
F00001E0
F00001E0
F00003E0
F00003C0
F80003C0
7C0007C0
7C000F80
3E001F80
1F807F00
0FFFFE00
07FFFC00
03FFF000
00FFE000
00040000
ENDCHAR
STARTCHAR 0169
ENCODING 361
SWIDTH 486 0
DWIDTH 27 0
BBX 21 36 3 -1
BITMAP
0F0030
3FC070
3FF070
70FEE0
703FE0
701FC0
600100
000000
000000
000000
F00078
F00078
F00078
F00078
F00078
F00078
F00078
F00078
F00078
F00078
F00078
F00078
F00078
F00078
F00078
F00078
F000F8
F800F8
7801F8
7C03F8
7E07F8
3FFFF8
1FFFF8
0FFF78
07FC78
004000
ENDCHAR
STARTCHAR 016A
ENCODING 362
SWIDTH 576 0
DWIDTH 32 0
BBX 27 45 3 -1
BITMAP
03FFF000
03FFF000
03FFF000
03FFF000
00000000
00000000
00000000
00000000
F00001E0
F00001E0
F00001E0
F00001E0
F00001E0
F00001E0
F00001E0
F00001E0
F00001E0
F00001E0
F00001E0
F00001E0
F00001E0
F00001E0
F00001E0
F00001E0
F00001E0
F00001E0
F00001E0
F00001E0
F00001E0
F00001E0
F00001E0
F00001E0
F00001E0
F00003E0
F00003C0
F80003C0
7C0007C0
7C000F80
3E001F80
1F807F00
0FFFFE00
07FFFC00
03FFF000
00FFE000
00040000
ENDCHAR
STARTCHAR 016B
ENCODING 363
SWIDTH 486 0
DWIDTH 27 0
BBX 21 34 3 -1
BITMAP
0FFF80
0FFF80
0FFF80
0FFF80
000000
000000
000000
000000
F00078
F00078
F00078
F00078
F00078
F00078
F00078
F00078
F00078
F00078
F00078
F00078
F00078
F00078
F00078
F00078
F000F8
F800F8
7801F8
7C03F8
7E07F8
3FFFF8
1FFFF8
0FFF78
07FC78
004000
ENDCHAR
STARTCHAR 016C
ENCODING 364
SWIDTH 576 0
DWIDTH 32 0
BBX 27 48 3 -1
BITMAP
03803800
03807800
03807800
03C0F000
01F3F000
00FFE000
007FC000
001F0000
00000000
00000000
00000000
F00001E0
F00001E0
F00001E0
F00001E0
F00001E0
F00001E0
F00001E0
F00001E0
F00001E0
F00001E0
F00001E0
F00001E0
F00001E0
F00001E0
F00001E0
F00001E0
F00001E0
F00001E0
F00001E0
F00001E0
F00001E0
F00001E0
F00001E0
F00001E0
F00001E0
F00003E0
F00003C0
F80003C0
7C0007C0
7C000F80
3E001F80
1F807F00
0FFFFE00
07FFFC00
03FFF000
00FFE000
00040000
ENDCHAR
STARTCHAR 016D
ENCODING 365
SWIDTH 486 0
DWIDTH 27 0
BBX 21 37 3 -1
BITMAP
1C01C0
1C01C0
1E03C0
0F0380
0FDF80
07FF00
03FE00
007800
000000
000000
000000
F00078
F00078
F00078
F00078
F00078
F00078
F00078
F00078
F00078
F00078
F00078
F00078
F00078
F00078
F00078
F00078
F000F8
F800F8
7801F8
7C03F8
7E07F8
3FFFF8
1FFFF8
0FFF78
07FC78
004000
ENDCHAR
STARTCHAR 016E
ENCODING 366
SWIDTH 576 0
DWIDTH 32 0
BBX 27 48 3 -1
BITMAP
001F0000
007F8000
0073C000
0061C000
0061C000
0071C000
007FC000
003F8000
001F0000
00000000
00000000
F00001E0
F00001E0
F00001E0
F00001E0
F00001E0
F00001E0
F00001E0
F00001E0
F00001E0
F00001E0
F00001E0
F00001E0
F00001E0
F00001E0
F00001E0
F00001E0
F00001E0
F00001E0
F00001E0
F00001E0
F00001E0
F00001E0
F00001E0
F00001E0
F00001E0
F00003E0
F00003C0
F80003C0
7C0007C0
7C000F80
3E001F80
1F807F00
0FFFFE00
07FFFC00
03FFF000
00FFE000
00040000
ENDCHAR
STARTCHAR 016F
ENCODING 367
SWIDTH 486 0
DWIDTH 27 0
BBX 21 37 3 -1
BITMAP
00F800
01FC00
03CE00
038E00
038600
038E00
03FE00
01FC00
00F800
000000
000000
F00078
F00078
F00078
F00078
F00078
F00078
F00078
F00078
F00078
F00078
F00078
F00078
F00078
F00078
F00078
F00078
F000F8
F800F8
7801F8
7C03F8
7E07F8
3FFFF8
1FFFF8
0FFF78
07FC78
004000
ENDCHAR
STARTCHAR 0170
ENCODING 368
SWIDTH 576 0
DWIDTH 32 0
BBX 27 48 3 -1
BITMAP
001F1F80
001E1F00
003C3E00
00383C00
00707800
00607000
00C0E000
0080C000
00000000
00000000
00000000
F00001E0
F00001E0
F00001E0
F00001E0
F00001E0
F00001E0
F00001E0
F00001E0
F00001E0
F00001E0
F00001E0
F00001E0
F00001E0
F00001E0
F00001E0
F00001E0
F00001E0
F00001E0
F00001E0
F00001E0
F00001E0
F00001E0
F00001E0
F00001E0
F00001E0
F00003E0
F00003C0
F80003C0
7C0007C0
7C000F80
3E001F80
1F807F00
0FFFFE00
07FFFC00
03FFF000
00FFE000
00040000
ENDCHAR
STARTCHAR 0171
ENCODING 369
SWIDTH 486 0
DWIDTH 27 0
BBX 22 37 3 -1
BITMAP
007C7C
00F8F8
01F0F0
01E1E0
03C1C0
038380
070300
060600
000000
000000
000000
F00078
F00078
F00078
F00078
F00078
F00078
F00078
F00078
F00078
F00078
F00078
F00078
F00078
F00078
F00078
F00078
F000F8
F800F8
7801F8
7C03F8
7E07F8
3FFFF8
1FFFF8
0FFF78
07FC78
004000
ENDCHAR
STARTCHAR 0172
ENCODING 370
SWIDTH 576 0
DWIDTH 32 0
BBX 27 46 3 -10
BITMAP
F00001E0
F00001E0
F00001E0
F00001E0
F00001E0
F00001E0
F00001E0
F00001E0
F00001E0
F00001E0
F00001E0
F00001E0
F00001E0
F00001E0
F00001E0
F00001E0
F00001E0
F00001E0
F00001E0
F00001E0
F00001E0
F00001E0
F00001E0
F00001E0
F00001E0
F00003E0
F00003C0
F80003C0
7C0007C0
7C000F80
3E001F80
1F807F00
0FFFFE00
07FFFC00
03FFF800
00FFE000
000E0000
000C0000
000C0000
000E0000
000E0000
000F0000
000F8000
0007FE00
0003FC00
0001F000
ENDCHAR
STARTCHAR 0173
ENCODING 371
SWIDTH 486 0
DWIDTH 27 0
BBX 26 35 3 -10
BITMAP
F0007800
F0007800
F0007800
F0007800
F0007800
F0007800
F0007800
F0007800
F0007800
F0007800
F0007800
F0007800
F0007800
F0007800
F0007800
F0007800
F000F800
F800F800
7801F800
7C03F800
7E07F800
3FFFF800
1FFFF800
0FFF7800
07FC7800
0040C000
0001C000
0001C000
0001C000
0001E000
0001F000
0000F800
0000FFC0
00007F80
00001F00
ENDCHAR
STARTCHAR 0174
ENCODING 372
SWIDTH 864 0
DWIDTH 48 0
BBX 42 47 3 0
BITMAP
00003F000000
00003F000000
00007F800000
000073800000
0000E1C00000
0000C0C00000
000180600000
000100200000
000000000000
000000000000
000000000000
F0001E0003C0
F0001E0003C0
F8003F0007C0
78003F000780
78003F000780
78007F800780
7C007F800F80
3C007F800F00
3C007F800F00
3C00FFC00F00
3E00F3C01F00
1E00F3C01E00
1E00F3C01E00
1E01F3E01E00
0F01E1E03E00
0F01E1E03C00
0F01E1F03C00
0F83E0F07C00
0783C0F07800
0783C0F07800
0787C0F87800
07C78078F800
03C78078F000
03C78078F000
03CF807CF000
03EF003DF000
01EF003DE000
01EF003DE000
01FF001FE000
00FE001FE000
00FE001FC000
00FE001FC000
00FE000FC000
007C000F8000
007C000F8000
007C000F8000
ENDCHAR
STARTCHAR 0175
ENCODING 373
SWIDTH 648 0
DWIDTH 36 0
BBX 31 36 3 0
BITMAP
000FC000
000FE000
001FE000
001CF000
00387000
00303800
00601800
00400C00
00000000
00000000
00000000
F007803E
F007C03C
F80FC03C
780FC03C
780FE07C
780FE078
7C1FE078
3C1FE078
3C1FF0F0
3C1EF0F0
1E3EF0F0
1E3CF1F0
1E3CF9E0
1F7C79E0
0F7879E0
0F787FE0
0F783FC0
0FF83FC0
07F03FC0
07F03FC0
07F01F80
07F01F80
03E01F80
03E01F00
03E00F00
ENDCHAR
STARTCHAR 0176
ENCODING 374
SWIDTH 630 0
DWIDTH 35 0
BBX 30 47 3 0
BITMAP
000F8000
001FC000
001FE000
003DE000
0038F000
00707000
00603800
00C01800
00000000
00000000
00000000
F800007C
7C0000F8
7C0001F0
3E0003E0
1F0003E0
1F0007C0
0F800F80
07C00F80
03E01F00
03E03E00
01F03E00
00F87C00
00F8F800
007DF000
003FF000
003FE000
001FC000
000FC000
00078000
00078000
00078000
00078000
00078000
00078000
00078000
00078000
00078000
00078000
00078000
00078000
00078000
00078000
00078000
00078000
00078000
00078000
ENDCHAR
STARTCHAR 0177
ENCODING 375
SWIDTH 486 0
DWIDTH 27 0
BBX 22 47 3 -11
BITMAP
00FC00
00FC00
01FE00
01CE00
038700
030300
060180
040080
000000
000000
000000
F0003C
F8007C
780078
780078
7C00F8
3C00F0
3C01F0
3E01E0
1E01E0
1E03E0
0F03C0
0F03C0
0F87C0
078780
078780
07CF80
03CF00
03DF00
03FE00
01FE00
01FE00
00FC00
00FC00
00FC00
007800
007800
00F800
00F000
00F000
01E000
01E000
03E000
3FC000
3FC000
3F8000
7E0000
ENDCHAR
STARTCHAR 0178
ENCODING 376
SWIDTH 630 0
DWIDTH 35 0
BBX 30 46 3 0
BITMAP
00201000
00F07C00
01F8FC00
01F8FC00
01F87C00
00F07800
00000000
00000000
00000000
00000000
F800007C
7C0000F8
7C0001F0
3E0003E0
1F0003E0
1F0007C0
0F800F80
07C00F80
03E01F00
03E03E00
01F03E00
00F87C00
00F8F800
007DF000
003FF000
003FE000
001FC000
000FC000
00078000
00078000
00078000
00078000
00078000
00078000
00078000
00078000
00078000
00078000
00078000
00078000
00078000
00078000
00078000
00078000
00078000
00078000
ENDCHAR
STARTCHAR 0179
ENCODING 377
SWIDTH 522 0
DWIDTH 29 0
BBX 24 47 3 0
BITMAP
0007C0
000F80
000F00
001E00
001C00
003800
003000
006000
000000
000000
000000
FFFFFF
FFFFFF
FFFFFF
FFFFFF
00001F
00003E
00003E
00007C
0000F8
0001F0
0001F0
0003E0
0007C0
0007C0
000F80
001F00
001F00
003E00
007C00
00F800
00F800
01F000
03E000
03E000
07C000
0F8000
0F8000
1F0000
3E0000
7C0000
7C0000
F80000
FFFFFF
FFFFFF
FFFFFF
FFFFFF
ENDCHAR
STARTCHAR 017A
ENCODING 378
SWIDTH 396 0
DWIDTH 22 0
BBX 17 36 3 0
BITMAP
007C00
00F800
00F000
01E000
01C000
038000
030000
060000
000000
000000
000000
FFFF80
FFFF80
FFFF80
FFFF80
001F00
001F00
003E00
007C00
00F800
00F800
01F000
03E000
03E000
07C000
0F8000
0F8000
1F0000
3E0000
7C0000
7C0000
F80000
FFFF80
FFFF80
FFFF80
FFFF80
ENDCHAR
STARTCHAR 017B
ENCODING 379
SWIDTH 522 0
DWIDTH 29 0
BBX 24 46 3 0
BITMAP
001000
003C00
007E00
007E00
007E00
003C00
000000
000000
000000
000000
FFFFFF
FFFFFF
FFFFFF
FFFFFF
00001F
00003E
00003E
00007C
0000F8
0001F0
0001F0
0003E0
0007C0
0007C0
000F80
001F00
001F00
003E00
007C00
00F800
00F800
01F000
03E000
03E000
07C000
0F8000
0F8000
1F0000
3E0000
7C0000
7C0000
F80000
FFFFFF
FFFFFF
FFFFFF
FFFFFF
ENDCHAR
STARTCHAR 017C
ENCODING 380
SWIDTH 396 0
DWIDTH 22 0
BBX 17 35 3 0
BITMAP
018000
03E000
07E000
07E000
07E000
03C000
000000
000000
000000
000000
FFFF80
FFFF80
FFFF80
FFFF80
001F00
001F00
003E00
007C00
00F800
00F800
01F000
03E000
03E000
07C000
0F8000
0F8000
1F0000
3E0000
7C0000
7C0000
F80000
FFFF80
FFFF80
FFFF80
FFFF80
ENDCHAR
STARTCHAR 017D
ENCODING 381
SWIDTH 522 0
DWIDTH 29 0
BBX 24 47 3 0
BITMAP
040060
0200C0
0301C0
018380
01E780
00FF00
00FF00
007E00
000000
000000
000000
FFFFFF
FFFFFF
FFFFFF
FFFFFF
00001F
00003E
00003E
00007C
0000F8
0001F0
0001F0
0003E0
0007C0
0007C0
000F80
001F00
001F00
003E00
007C00
00F800
00F800
01F000
03E000
03E000
07C000
0F8000
0F8000
1F0000
3E0000
7C0000
7C0000
F80000
FFFFFF
FFFFFF
FFFFFF
FFFFFF
ENDCHAR
STARTCHAR 017E
ENCODING 382
SWIDTH 396 0
DWIDTH 22 0
BBX 17 36 3 0
BITMAP
600600
300C00
381C00
1C3800
1E7800
0FF000
07F000
07E000
000000
000000
000000
FFFF80
FFFF80
FFFF80
FFFF80
001F00
001F00
003E00
007C00
00F800
00F800
01F000
03E000
03E000
07C000
0F8000
0F8000
1F0000
3E0000
7C0000
7C0000
F80000
FFFF80
FFFF80
FFFF80
FFFF80
ENDCHAR
STARTCHAR 017F
ENCODING 383
SWIDTH 162 0
DWIDTH 9 0
BBX 12 48 3 -12
BITMAP
0FE0
3FF0
7FE0
7FE0
F800
F000
F000
F000
F000
F000
F000
F000
F000
F000
F000
F000
F000
F000
F000
F000
F000
F000
F000
F000
F000
F000
F000
F000
F000
F000
F000
F000
F000
F000
F000
F000
F000
F000
F000
F000
F000
F000
F000
F000
F000
F000
7000
1000
ENDCHAR
STARTCHAR 0180
ENCODING 384
SWIDTH 486 0
DWIDTH 27 0
BBX 25 37 -1 -1
BITMAP
0F000000
0F000000
0F000000
0F000000
FFF80000
FFF80000
FFF80000
FFF80000
0F000000
0F000000
0F000000
0F3FE000
0F7FF000
0FFFF800
0FFFFC00
0FF03E00
0FC01F00
0FC00F00
0F800F80
0F000780
0F000780
0F000780
0F000780
0F000780
0F000780
0F000780
0F000780
0F000780
0F800F80
0FC00F00
0FC01F00
0FE03E00
0FFFFC00
0FFFFC00
0F7FF000
0F3FE000
00020000
ENDCHAR
STARTCHAR 0181
ENCODING 385
SWIDTH 702 0
DWIDTH 39 0
BBX 33 36 3 0
BITMAP
07FFFF8000
1FFFFFE000
3FFFFFF800
7FFFFFFC00
FC1E00FE00
F81E003E00
F01E001E00
F01E000F00
F01E000F00
F01E000F00
F01E000F00
601E000F00
401E001F00
001E003E00
001E00FE00
001FFFFC00
001FFFF800
001FFFFC00
001FFFFE00
001E007F00
001E001F00
001E000F80
001E000780
001E000780
001E000780
001E000780
001E000780
001E000780
001E000F80
001E000F80
001E001F00
001E007E00
001FFFFE00
001FFFFC00
001FFFF000
001FFFC000
ENDCHAR
STARTCHAR 0182
ENCODING 386
SWIDTH 504 0
DWIDTH 28 0
BBX 23 36 3 0
BITMAP
FFFFE0
FFFFE0
FFFFE0
FFFFE0
F00000
F00000
F00000
F00000
F00000
F00000
F00000
F00000
F00000
F00000
F00000
FFFE00
FFFFC0
FFFFE0
FFFFF0
F003F8
F000F8
F0007C
F0003C
F0003C
F0003C
F0003E
F0003C
F0003C
F0003C
F0007C
F000F8
F003F8
FFFFF0
FFFFE0
FFFF80
FFFE00
ENDCHAR
STARTCHAR 0183
ENCODING 387
SWIDTH 486 0
DWIDTH 27 0
BBX 21 37 3 -1
BITMAP
FFFFE0
FFFFE0
FFFFE0
FFFFE0
F00000
F00000
F00000
F00000
F00000
F00000
F00000
F3FE00
F7FF00
FFFF80
FFFFC0
FF03E0
FC01F0
FC00F0
F800F8
F00078
F00078
F00078
F00078
F00078
F00078
F00078
F00078
F00078
F800F8
FC00F0
FC01F0
FE03E0
FFFFC0
FFFFC0
F7FF00
F3FE00
002000
ENDCHAR
STARTCHAR 0184
ENCODING 388
SWIDTH 666 0
DWIDTH 37 0
BBX 32 36 3 0
BITMAP
00780000
00F80000
01F80000
03F80000
07F80000
0FF80000
1FF80000
3F780000
7E780000
FC780000
F8780000
70780000
20780000
00780000
00780000
007FFF80
007FFFE0
007FFFF0
007FFFF8
007800FC
0078003E
0078001E
0078001F
0078000F
0078000F
0078000F
0078000F
0078000F
0078001F
0078001E
0078007E
007800FC
007FFFF8
007FFFF0
007FFFE0
007FFF80
ENDCHAR
STARTCHAR 0185
ENCODING 389
SWIDTH 504 0
DWIDTH 28 0
BBX 23 25 3 0
BITMAP
03E000
07E000
0FE000
1FE000
3FE000
7FE000
FDE000
F9E000
71E000
21FF80
01FFE0
01FFF8
01FFF8
01E0FC
01E03C
01E03E
01E01E
01E01E
01E01E
01E03E
01E07C
01FFFC
01FFF8
01FFF0
01FFC0
ENDCHAR
STARTCHAR 0186
ENCODING 390
SWIDTH 576 0
DWIDTH 32 0
BBX 27 37 3 -1
BITMAP
00FF8000
03FFE000
0FFFF000
1FFFF800
3F80FC00
7E007E00
7C001F00
F8000F00
F0000F80
30000780
000007C0
000003C0
000003E0
000001E0
000001E0
000001E0
000001E0
000001E0
000001E0
000001E0
000001E0
000001E0
000001E0
000003E0
000003C0
000003C0
200007C0
70000F80
F8000F80
FC001F00
7E003E00
3F00FE00
1FFFFC00
0FFFF000
07FFE000
01FF8000
000C0000
ENDCHAR
STARTCHAR 0187
ENCODING 391
SWIDTH 576 0
DWIDTH 32 0
BBX 35 46 3 -1
BITMAP
0000000FC0
0000003FE0
0000007FE0
000000FFC0
000000F800
000001F000
000001E000
000001E000
000001E000
003FE1E000
00FFF9E000
01FFFFE000
07FFFFE000
07E03FE000
0F800FE000
1F0007E000
3E0003E000
3E0001C000
7C00018000
7800000000
7800000000
F800000000
F000000000
F000000000
F000000000
F000000000
F000000000
F000000000
F000000000
F000000000
F000000000
F000000000
F800000000
7800000000
7800000000
7C00018000
3C0001C000
3E0003E000
1F0007C000
0F800FC000
0FE01F8000
07FFFF0000
03FFFE0000
00FFFC0000
007FF00000
0002000000
ENDCHAR
STARTCHAR 0188
ENCODING 392
SWIDTH 450 0
DWIDTH 25 0
BBX 28 37 3 -1
BITMAP
00000780
00001FF0
00003FF0
00007FE0
00007C40
0000F800
0000F000
0000F000
0000F000
0000F000
0000F000
03FEF000
07FFF000
0FFFF000
1FFFF000
3F03F000
7C01F000
7C00F000
F800C000
F0000000
F0000000
F0000000
F0000000
F0000000
F0000000
F0000000
F0000000
F0000000
F800C000
7C00F000
7C01F000
3E03E000
1FFFC000
0FFFC000
07FF0000
03FE0000
00200000
ENDCHAR
STARTCHAR 0189
ENCODING 393
SWIDTH 630 0
DWIDTH 35 0
BBX 30 36 3 0
BITMAP
FFFF8000
FFFFF000
FFFFFC00
FFFFFE00
0F007F00
0F001F80
0F0007C0
0F0003E0
0F0001E0
0F0000F0
0F0000F0
0F000078
0F000078
0F000038
0F000038
0F000038
FFFF0038
FFFF003C
FFFF003C
FFFF003C
0F000038
0F000038
0F000038
0F000078
0F000078
0F0000F0
0F0000F0
0F0001E0
0F0003E0
0F0007C0
0F000F80
0F003F80
FFFFFF00
FFFFFC00
FFFFF800
FFFFC000
ENDCHAR
STARTCHAR 018A
ENCODING 394
SWIDTH 756 0
DWIDTH 42 0
BBX 36 36 3 0
BITMAP
07FFFF0000
1FFFFFE000
3FFFFFF800
7FFFFFFC00
FC1E01FE00
F81E007F00
F01E001F80
F01E000F80
F01E0007C0
F01E0003E0
F01E0003E0
601E0001E0
401E0001F0
001E0000F0
001E0000F0
001E0000F0
001E0000F0
001E0000F0
001E0000F0
001E0000F0
001E0000F0
001E0000F0
001E0000F0
001E0001F0
001E0001E0
001E0003E0
001E0003E0
001E0007C0
001E000FC0
001E001F80
001E003F00
001E00FE00
03FFFFFC00
03FFFFF800
03FFFFE000
03FFFF8000
ENDCHAR
STARTCHAR 018B
ENCODING 395
SWIDTH 504 0
DWIDTH 28 0
BBX 23 36 3 0
BITMAP
0FFFFE
0FFFFE
0FFFFE
0FFFFE
00003E
00003E
00003E
00003E
00003E
00003E
00003E
00003E
00003E
00003E
00003E
01FFFE
07FFFE
1FFFFE
3FFFFE
3F003E
7C003E
F8003E
F0003E
F0003E
F0003E
F0003E
F0003E
F0003E
F8003E
F8003E
7C003E
3F003E
3FFFFE
0FFFFE
07FFFE
01FFFE
ENDCHAR
STARTCHAR 018C
ENCODING 396
SWIDTH 486 0
DWIDTH 27 0
BBX 21 37 3 -1
BITMAP
3FFFF8
3FFFF8
3FFFF8
3FFFF8
000078
000078
000078
000078
000078
000078
000078
03FE78
07FF78
0FFFF8
1FFFF8
3F03F8
7C01F8
7C00F8
F800F8
F00078
F00078
F00078
F00078
F00078
F00078
F00078
F00078
F00078
F800F8
7C00F8
7C01F8
3E03F8
1FFFF8
0FFFF8
07FF78
03FE78
002000
ENDCHAR
STARTCHAR 018D
ENCODING 397
SWIDTH 486 0
DWIDTH 27 0
BBX 21 36 3 -10
BITMAP
03FE00
07FF00
0FFF80
1FFFC0
3F03E0
7C01F0
7C00F0
F800F8
F00078
F00078
F00078
F00078
F00078
F00078
F00078
F80078
F80078
7C00F8
7E00F0
3F01F0
1F83E0
0FFFC0
07FFC0
03FF00
01FE00
00FC00
007E00
003E00
001E00
F01E00
F81E00
7C3E00
7FFC00
3FFC00
1FF800
07E000
ENDCHAR
STARTCHAR 018E
ENCODING 398
SWIDTH 504 0
DWIDTH 28 0
BBX 23 36 3 0
BITMAP
FFFFFE
FFFFFE
FFFFFE
FFFFFE
00003E
00003E
00003E
00003E
00003E
00003E
00003E
00003E
00003E
00003E
00003E
00003E
1FFFFE
1FFFFE
1FFFFE
1FFFFE
00003E
00003E
00003E
00003E
00003E
00003E
00003E
00003E
00003E
00003E
00003E
00003E
FFFFFE
FFFFFE
FFFFFE
FFFFFE
ENDCHAR
STARTCHAR 018F
ENCODING 399
SWIDTH 630 0
DWIDTH 35 0
BBX 30 37 3 -1
BITMAP
003FE000
00FFF800
01FFFE00
03FFFF00
07E03F80
0F800FC0
070007C0
020003E0
000001E0
000001F0
000000F0
000000F8
00000078
00000078
00000078
00000078
FFFFFFF8
FFFFFFFC
FFFFFFFC
FFFFFFFC
F0000078
F0000078
F0000078
F8000078
780000F8
780000F0
7C0001F0
3C0001F0
3E0003E0
1F0007C0
0F800FC0
0FE01F80
07FFFF00
03FFFE00
00FFFC00
007FF000
00020000
ENDCHAR
STARTCHAR 0190
ENCODING 400
SWIDTH 486 0
DWIDTH 27 0
BBX 25 37 1 -1
BITMAP
00FF8000
03FFE000
07FFF000
0FFFF800
1F80FC00
1F003E00
3E003E00
3C001E00
3C001E00
3C000000
3C000000
3C000000
3E000000
1F000000
1FC00000
0FFE0000
07FE0000
07FE0000
1FFE0000
3F800000
3E000000
7C000000
78000000
78000000
F8000000
F0000000
F0000780
F8000F80
78000F00
7C001F00
3E003F00
3F007E00
1FFFFC00
0FFFF800
07FFF000
01FFC000
00080000
ENDCHAR
STARTCHAR 0191
ENCODING 401
SWIDTH 504 0
DWIDTH 28 0
BBX 32 47 -6 -11
BITMAP
007FFFFF
007FFFFF
007FFFFF
007FFFFF
00780000
00780000
00780000
00780000
00780000
00780000
00780000
00780000
00780000
00780000
00780000
00780000
007FFFF0
007FFFF0
007FFFF0
007FFFF0
00780000
00780000
00780000
00780000
00780000
00780000
00780000
00780000
00780000
00780000
00780000
00780000
00780000
00780000
00780000
00780000
00780000
00780000
00780000
00780000
00780000
00F80000
01F00000
3FF00000
7FE00000
FFC00000
3F800000
ENDCHAR
STARTCHAR 0192
ENCODING 402
SWIDTH 306 0
DWIDTH 17 0
BBX 21 47 -1 -11
BITMAP
0007F0
001FF8
003FF0
003FE0
007C20
007800
007800
007800
007800
007800
007800
007800
007800
0FFF80
0FFF80
0FFF80
0FFF80
007800
007800
007800
007800
007800
007800
007800
007800
007800
007800
007800
007800
007800
007800
007800
007800
007800
007800
007800
007800
007800
007800
007800
007800
00F000
01F000
3FF000
7FE000
FFC000
7F8000
ENDCHAR
STARTCHAR 0193
ENCODING 403
SWIDTH 576 0
DWIDTH 32 0
BBX 35 46 3 -1
BITMAP
0000000FC0
0000003FE0
0000007FE0
000000FFC0
000000F800
000001F000
000001E000
000001E000
000001E000
003FE1E000
00FFF9E000
01FFFFE000
07FFFFE000
07E03FE000
0F800FE000
1F0007E000
3E0003E000
3E0001C000
7C00018000
7800000000
7800000000
F800000000
F000000000
F000000000
F000000000
F000000000
F007FFE000
F007FFE000
F007FFE000
F007FFE000
F00001E000
F00001E000
F80001E000
780001E000
780001E000
7C0001E000
3C0001E000
3E0003E000
1F0007C000
0F800FC000
0FE01F8000
07FFFF0000
03FFFE0000
00FFFC0000
007FF00000
0002000000
ENDCHAR
STARTCHAR 0194
ENCODING 404
SWIDTH 630 0
DWIDTH 35 0
BBX 30 47 3 -11
BITMAP
F000003C
F800007C
78000078
78000078
7C0000F8
3C0000F0
3C0001F0
3E0001F0
1E0001E0
1E0003E0
1F0003C0
0F0003C0
0F8007C0
07800780
07800780
07C00F80
03C00F00
03C01F00
03E01F00
01E01E00
01E03E00
01F03C00
00F03C00
00F87C00
00787800
00787800
007CF800
003CF000
003DF000
003FF000
001FE000
001FE000
001FC000
000FC000
000FC000
000F8000
000FC000
001FC000
001FE000
001FE000
003FF000
003CF000
003CF000
003FF000
003FE000
001FE000
000FC000
ENDCHAR
STARTCHAR 0195
ENCODING 405
SWIDTH 702 0
DWIDTH 39 0
BBX 34 37 3 -1
BITMAP
F000000000
F000000000
F000000000
F000000000
F000000000
F000000000
F000000000
F000000000
F000000000
F000000000
F000000000
F1FF0003C0
F7FF8003C0
FFFFC003C0
FFFFE003C0
FF01F003C0
FE01F003C0
FC00F003C0
F800F803C0
F8007803C0
F0007803C0
F0007803C0
F0007803C0
F0007803C0
F0007803C0
F0007803C0
F0007803C0
F0007803C0
F0007803C0
F0007C07C0
F0003C0780
F0003E0F80
F0003FFF80
F0001FFF00
F0000FFE00
F00007F800
0000006000
ENDCHAR
STARTCHAR 0196
ENCODING 406
SWIDTH 360 0
DWIDTH 20 0
BBX 15 37 3 -1
BITMAP
F000
F000
F000
F000
F000
F000
F000
F000
F000
F000
F000
F000
F000
F000
F000
F000
F000
F000
F000
F000
F000
F000
F000
F000
F000
F000
F000
F000
F000
F01E
F03E
F83C
7FFC
7FF8
3FF8
1FE0
0100
ENDCHAR
STARTCHAR 0197
ENCODING 407
SWIDTH 306 0
DWIDTH 17 0
BBX 12 36 3 0
BITMAP
FFF0
FFF0
FFF0
FFF0
0F00
0F00
0F00
0F00
0F00
0F00
0F00
0F00
0F00
0F00
0F00
0F00
FFF0
FFF0
FFF0
FFF0
0F00
0F00
0F00
0F00
0F00
0F00
0F00
0F00
0F00
0F00
0F00
0F00
FFF0
FFF0
FFF0
FFF0
ENDCHAR
STARTCHAR 0198
ENCODING 408
SWIDTH 540 0
DWIDTH 30 0
BBX 24 45 3 0
BITMAP
0FC000
1FF000
3FF000
7FE000
F84000
F00000
F00000
F00000
F00000
F000F8
F000F8
F001F0
F003E0
F003E0
F007C0
F00F80
F00F80
F01F00
F03E00
F07C00
F07C00
F0F800
F1F000
F1F000
F3E000
F7E000
F7E000
FFF000
FFF800
FE7800
FE7C00
FC3E00
F81F00
F81F00
F00F80
F007C0
F007C0
F003E0
F001F0
F000F8
F000F8
F0007C
F0003E
F0003E
F0001F
ENDCHAR
STARTCHAR 0199
ENCODING 409
SWIDTH 432 0
DWIDTH 24 0
BBX 18 45 3 0
BITMAP
0FC000
1FF000
3FF000
7FE000
F84000
F00000
F00000
F00000
F00000
F00000
F00000
F00000
F00000
F00000
F00000
F00000
F00000
F00000
F00000
F00000
F01F00
F03E00
F07C00
F07C00
F0F800
F1F000
F3E000
F3E000
F7C000
FF8000
FF8000
FF8000
FFC000
FFE000
FFE000
F9F000
F0F800
F0F800
F07C00
F03E00
F01F00
F01F00
F00F80
F007C0
F007C0
ENDCHAR
STARTCHAR 019A
ENCODING 410
SWIDTH 306 0
DWIDTH 17 0
BBX 12 36 3 0
BITMAP
0F00
0F00
0F00
0F00
0F00
0F00
0F00
0F00
0F00
0F00
0F00
0F00
0F00
0F00
0F00
0F00
FFF0
FFF0
FFF0
FFF0
0F00
0F00
0F00
0F00
0F00
0F00
0F00
0F00
0F00
0F00
0F00
0F00
0FF0
0FF0
0FF0
07F0
ENDCHAR
STARTCHAR 019B
ENCODING 411
SWIDTH 486 0
DWIDTH 27 0
BBX 22 36 3 0
BITMAP
7E0000
3F8000
3FC000
3FC780
03FF80
01FF80
07FF80
3FFC00
7FF000
3FF800
3C7800
207800
00FC00
00FC00
00FC00
01FE00
01FE00
03FE00
03DF00
03CF00
07CF80
078780
078780
0F87C0
0F03C0
0F03C0
1F03E0
1E01E0
3E01E0
3C01F0
3C00F0
7C00F8
780078
780078
F8007C
F0003C
ENDCHAR
STARTCHAR 019C
ENCODING 412
SWIDTH 594 0
DWIDTH 33 0
BBX 28 37 3 -1
BITMAP
F00F00F0
F00F00F0
F00F00F0
F00F00F0
F00F00F0
F00F00F0
F00F00F0
F00F00F0
F00F00F0
F00F00F0
F00F00F0
F00F00F0
F00F00F0
F00F00F0
F00F00F0
F00F00F0
F00F00F0
F00F00F0
F00F00F0
F00F00F0
F00F00F0
F00F00F0
F00F00F0
F00F00F0
F00F00F0
F00F00F0
F00F00F0
F01F00F0
F01F01F0
F03F01F0
783F83F0
787F87F0
7FFBFFF0
3FFBFFF0
3FF1FFF0
0FC0FEF0
00001000
ENDCHAR
STARTCHAR 019D
ENCODING 413
SWIDTH 594 0
DWIDTH 33 0
BBX 37 47 -6 -11
BITMAP
0078000078
007C000078
007C000078
007E000078
007F000078
007F800078
007F800078
007FC00078
007BE00078
007BE00078
0079F00078
0078F80078
0078F80078
00787C0078
00783E0078
00781F0078
00781F0078
00780F8078
007807C078
007807C078
007803E078
007801F078
007801F078
007800F878
0078007C78
0078003E78
0078003E78
0078001F78
0078000FF8
0078000FF8
00780007F8
00780003F8
00780003F8
00780001F8
00780000F8
0078000078
0078000000
0078000000
0078000000
0078000000
0078000000
00F8000000
01F0000000
3FF0000000
7FE0000000
FFC0000000
3F80000000
ENDCHAR
STARTCHAR 019E
ENCODING 414
SWIDTH 486 0
DWIDTH 27 0
BBX 21 37 3 -11
BITMAP
F1FF00
F7FF80
FFFFC0
FFFFE0
FF01F0
FE01F0
FC00F0
F800F8
F80078
F00078
F00078
F00078
F00078
F00078
F00078
F00078
F00078
F00078
F00078
F00078
F00078
F00078
F00078
F00078
F00078
000078
000078
000078
000078
000078
000078
000078
000078
000078
000078
000018
000008
ENDCHAR
STARTCHAR 019F
ENCODING 415
SWIDTH 630 0
DWIDTH 35 0
BBX 30 37 3 -1
BITMAP
003FE000
00FFF800
01FFFE00
07FFFF00
07E03F80
0F800FC0
1F0007C0
3E0003E0
3E0001E0
7C0001F0
780000F0
780000F8
F8000078
F0000078
F0000078
F0000078
FFFFFFF8
FFFFFFFC
FFFFFFFC
FFFFFFFC
F0000078
F0000078
F0000078
F8000078
780000F8
780000F0
7C0001F0
3C0001F0
3E0003E0
1F0007C0
0F800FC0
0FE01F80
07FFFF00
03FFFE00
00FFFC00
007FF000
00020000
ENDCHAR
STARTCHAR 01A0
ENCODING 416
SWIDTH 702 0
DWIDTH 39 0
BBX 36 37 3 -1
BITMAP
003FE003C0
00FFF807E0
01FFFE07F0
07FFFF07F0
07E03F87F0
0F800FC1B0
1F0007C030
3E0003E030
3E0001E030
7C0001F060
780000F0C0
780000F9C0
F800007B00
F000007C00
F000007800
F000007800
F000007C00
F000007C00
F000007C00
F000007C00
F000007800
F000007800
F000007800
F800007800
780000F800
780000F000
7C0001F000
3C0001F000
3E0003E000
1F0007C000
0F800FC000
0FE01F8000
07FFFF0000
03FFFE0000
00FFFC0000
007FF00000
0002000000
ENDCHAR
STARTCHAR 01A1
ENCODING 417
SWIDTH 522 0
DWIDTH 29 0
BBX 27 32 3 -1
BITMAP
00000700
00000F80
00001FC0
00001FE0
00000FE0
000007E0
03FE0060
07FF0060
0FFFC0C0
1FFFC0C0
3F03E180
7C01F300
7C00F600
F800FC00
F0007800
F0007800
F0007800
F0007800
F0007800
F0007800
F0007800
F0007800
F0007800
F800F800
7C00F000
7C01F000
3E03E000
1FFFC000
0FFFC000
07FF0000
03FE0000
00200000
ENDCHAR
STARTCHAR 01A2
ENCODING 418
SWIDTH 702 0
DWIDTH 39 0
BBX 34 47 3 -11
BITMAP
003FE7FFC0
00FFFFFFC0
01FFFFFFC0
07FFFFFFC0
07E03F83C0
0F800F83C0
1F000783C0
3E000783C0
3E000783C0
7C000783C0
78000783C0
78000783C0
F8000783C0
F0000783C0
F0000783C0
F0000783C0
F0000783C0
F0000783C0
F0000783C0
F0000783C0
F0000783C0
F0000783C0
F0000783C0
F8000783C0
78000783C0
78000783C0
7C000783C0
3C000783C0
3E000783C0
1F000783C0
0F800F83C0
0FE01F83C0
07FFFF03C0
03FFFE03C0
00FFF803C0
007FF003C0
00020003C0
00000003C0
00000003C0
00000003C0
00000003C0
00000003C0
00000003C0
00000003C0
00000003C0
00000003C0
00000003C0
ENDCHAR
STARTCHAR 01A3
ENCODING 419
SWIDTH 558 0
DWIDTH 31 0
BBX 25 37 3 -11
BITMAP
03FFFF80
07FFFF80
0FFFFF80
1FFFFF80
3F078780
7C078780
7C078780
F8078780
F0078780
F0078780
F0078780
F0078780
F0078780
F0078780
F0078780
F0078780
F0078780
F8078780
7C078780
7C078780
3E078780
1FFF8780
0FFF8780
07FF0780
03FE0780
00200780
00000780
00000780
00000780
00000780
00000780
00000780
00000780
00000780
00000780
00000180
00000080
ENDCHAR
STARTCHAR 01A4
ENCODING 420
SWIDTH 666 0
DWIDTH 37 0
BBX 32 36 3 0
BITMAP
07FFFF00
1FFFFFE0
3FFFFFF0
7FFFFFF8
FC1E01FC
F81E007E
F01E003E
F01E001F
F01E000F
F01E000F
F01E000F
601E000F
401E001F
001E001E
001E003E
001E007E
001FFFFC
001FFFF8
001FFFF0
001FFFC0
001FFC00
001E0000
001E0000
001E0000
001E0000
001E0000
001E0000
001E0000
001E0000
001E0000
001E0000
001E0000
001E0000
001E0000
001E0000
001E0000
ENDCHAR
STARTCHAR 01A5
ENCODING 421
SWIDTH 486 0
DWIDTH 27 0
BBX 21 48 3 -12
BITMAP
0FE000
3FF000
7FE000
7FE000
F80000
F00000
F00000
F00000
F00000
F00000
F00000
F3FE00
F7FF00
FFFF80
FFFFC0
FF03E0
FC01F0
FC00F0
F800F8
F00078
F00078
F00078
F00078
F00078
F00078
F00078
F00078
F00078
F800F8
FC00F0
FC01F0
FE03E0
FFFFC0
FFFFC0
F7FF00
F3FE00
F02000
F00000
F00000
F00000
F00000
F00000
F00000
F00000
F00000
F00000
700000
100000
ENDCHAR
STARTCHAR 01A6
ENCODING 422
SWIDTH 486 0
DWIDTH 27 0
BBX 21 44 3 -8
BITMAP
F00000
F00000
F00000
F00000
F00000
F00000
F00000
F00000
FFFC00
FFFF00
FFFFC0
FFFFE0
F00FF0
F001F0
F000F8
F00078
F00078
F00078
F00078
F00078
F000F8
F001F0
F003F0
FFFFE0
FFFFC0
FFFF80
FFFF00
F00F00
F00F80
F00780
F007C0
F003C0
F003E0
F001E0
F001E0
F001F0
0000F0
0000F0
0000F8
0000F8
000078
000078
000078
000078
ENDCHAR
STARTCHAR 01A7
ENCODING 423
SWIDTH 486 0
DWIDTH 27 0
BBX 21 37 3 -1
BITMAP
01FE00
07FF00
0FFF80
1FFFC0
3F07E0
3E01E0
7C01F0
7800F0
7800F0
0000F0
0000F0
0001F0
0003E0
0007E0
000FC0
003F80
00FF00
03FE00
0FF800
1FE000
3F8000
7E0000
7C0000
F80000
F00000
F00000
F00078
F00078
F00078
F800F8
7801F0
7E03F0
3FFFE0
1FFFC0
0FFF80
03FE00
002000
ENDCHAR
STARTCHAR 01A8
ENCODING 424
SWIDTH 378 0
DWIDTH 21 0
BBX 16 26 3 -1
BITMAP
0FE0
1FF8
3FFC
7FFE
7C3E
F81E
F01E
001E
003E
00FC
03FC
1FF0
3FC0
7F00
FC00
F800
F000
F00F
F00F
F01F
F83E
7FFE
7FFC
3FF8
0FF0
0100
ENDCHAR
STARTCHAR 01A9
ENCODING 425
SWIDTH 504 0
DWIDTH 28 0
BBX 23 36 3 0
BITMAP
FFFFFE
FFFFFE
FFFFFE
FFFFFE
F80000
7C0000
7C0000
3E0000
1F0000
1F0000
0F8000
07C000
07C000
03E000
01F000
00F800
00F800
007C00
007C00
00F800
00F800
01F000
03E000
03E000
07C000
0F8000
0F0000
1F0000
3E0000
7C0000
7C0000
F80000
FFFFFE
FFFFFE
FFFFFE
FFFFFE
ENDCHAR
STARTCHAR 01AA
ENCODING 426
SWIDTH 360 0
DWIDTH 20 0
BBX 23 47 3 -11
BITMAP
0FE000
3FF000
7FF800
7FFC00
F87C00
F03E00
F01E00
F01E00
F01E00
F83E00
FC7E00
7FFE00
3FFE00
1FFE00
07DE00
001E00
001E00
001E00
001E00
001E00
001E00
001E00
001E00
001E00
001E00
001E00
001E00
001E00
001E00
001E00
001E00
001E00
001E00
001E00
001E00
001E00
001E00
001E00
001E00
001E00
001E00
001E00
001F00
000FFC
000FFE
0007FE
0001FC
ENDCHAR
STARTCHAR 01AB
ENCODING 427
SWIDTH 324 0
DWIDTH 18 0
BBX 13 43 3 -11
BITMAP
0080
0180
0780
0780
0780
0780
0780
FFF8
FFF8
FFF8
FFF8
0780
0780
0780
0780
0780
0780
0780
0780
0780
0780
0780
0780
0780
0780
0780
0780
0780
07F8
07F8
07F8
03F8
0078
0078
0078
0078
0078
00F8
01F0
3FF0
7FE0
FFC0
7F80
ENDCHAR
STARTCHAR 01AC
ENCODING 428
SWIDTH 576 0
DWIDTH 32 0
BBX 27 36 3 0
BITMAP
07FFFFE0
1FFFFFE0
3FFFFFE0
7FFFFFE0
FC078000
F8078000
F0078000
F0078000
F0078000
F0078000
F0078000
60078000
40078000
00078000
00078000
00078000
00078000
00078000
00078000
00078000
00078000
00078000
00078000
00078000
00078000
00078000
00078000
00078000
00078000
00078000
00078000
00078000
00078000
00078000
00078000
00078000
ENDCHAR
STARTCHAR 01AD
ENCODING 429
SWIDTH 324 0
DWIDTH 18 0
BBX 17 36 3 0
BITMAP
007F00
01FF80
03FF00
03FE00
07C200
078000
078000
078000
078000
078000
078000
FFF800
FFF800
FFF800
FFF800
078000
078000
078000
078000
078000
078000
078000
078000
078000
078000
078000
078000
078000
078000
078000
078000
078000
07F800
07F800
07F800
03F800
ENDCHAR
STARTCHAR 01AE
ENCODING 430
SWIDTH 504 0
DWIDTH 28 0
BBX 23 47 3 -11
BITMAP
FFFFFE
FFFFFE
FFFFFE
FFFFFE
007800
007800
007800
007800
007800
007800
007800
007800
007800
007800
007800
007800
007800
007800
007800
007800
007800
007800
007800
007800
007800
007800
007800
007800
007800
007800
007800
007800
007800
007800
007800
007800
007800
007800
007800
007800
007800
007C00
003C00
003FF0
001FF8
000FFC
0007F0
ENDCHAR
STARTCHAR 01AF
ENCODING 431
SWIDTH 666 0
DWIDTH 37 0
BBX 35 37 3 -1
BITMAP
F00001EF80
F00001EFC0
F00001FFC0
F00001EFE0
F00001EFE0
F00001E260
F00001E060
F00001E060
F00001E0C0
F00001E0C0
F00001E180
F00001E300
F00001EE00
F00001F800
F00001E000
F00001E000
F00001E000
F00001E000
F00001E000
F00001E000
F00001E000
F00001E000
F00001E000
F00001E000
F00001E000
F00003E000
F00003C000
F80003C000
7C0007C000
7C000F8000
3E001F8000
1F807F0000
0FFFFE0000
07FFFC0000
03FFF00000
00FFE00000
0004000000
ENDCHAR
STARTCHAR 01B0
ENCODING 432
SWIDTH 576 0
DWIDTH 32 0
BBX 29 32 3 -1
BITMAP
000001C0
000003F0
000003F0
000003F8
000003F8
000001F8
F0007818
F0007818
F0007838
F0007830
F0007860
F0007860
F00079C0
F0007F00
F0007C00
F0007800
F0007800
F0007800
F0007800
F0007800
F0007800
F0007800
F000F800
F800F800
7801F800
7C03F800
7E07F800
3FFFF800
1FFFF800
0FFF7800
07FC7800
00400000
ENDCHAR
STARTCHAR 01B1
ENCODING 433
SWIDTH 630 0
DWIDTH 35 0
BBX 30 37 3 -1
BITMAP
FFF03FFC
FFF03FFC
FFF03FFC
FFF03FFC
07E03F80
0F800FC0
1F0007C0
3E0003E0
3E0001E0
7C0001F0
780000F0
780000F8
F8000078
F0000078
F0000078
F0000078
F0000078
F000007C
F000007C
F000007C
F0000078
F0000078
F0000078
F8000078
780000F8
780000F0
7C0001F0
3C0001F0
3E0003E0
1F0007C0
0F800FC0
0FE01F80
07FFFF00
03FFFE00
00FFFC00
007FF000
00020000
ENDCHAR
STARTCHAR 01B2
ENCODING 434
SWIDTH 576 0
DWIDTH 32 0
BBX 27 36 3 0
BITMAP
F0007E00
F8007F00
78003F80
78003FC0
7C0003E0
3C0001E0
3C0001E0
3E0001E0
1E0001E0
1E0003E0
1F0003C0
0F0003C0
0F8007C0
07800780
07800780
07C00F80
03C00F00
03C01F00
03E01E00
01E01E00
01E03E00
01F03C00
00F03C00
00F87C00
00787800
00787800
007CF800
003CF000
003CF000
003FE000
001FE000
001FE000
001FC000
000FC000
000FC000
00078000
ENDCHAR
STARTCHAR 01B3
ENCODING 435
SWIDTH 630 0
DWIDTH 35 0
BBX 36 36 3 0
BITMAP
F800003F80
7C0000FFC0
7C0001FFE0
3E0003FFF0
1F0003E1F0
1F0007C0F0
0F800F8000
07C00F8000
03E01F0000
03E03E0000
01F03E0000
00F87C0000
00F8F80000
007DF00000
003FF00000
003FE00000
001FC00000
000FC00000
0007800000
0007800000
0007800000
0007800000
0007800000
0007800000
0007800000
0007800000
0007800000
0007800000
0007800000
0007800000
0007800000
0007800000
0007800000
0007800000
0007800000
0007800000
ENDCHAR
STARTCHAR 01B4
ENCODING 436
SWIDTH 630 0
DWIDTH 35 0
BBX 30 37 3 -11
BITMAP
00000100
F0000FE0
F8003FF0
78007FF8
78007FFC
7C00F830
3C00F000
3C01F000
3E01E000
1E01E000
1E03E000
0F03C000
0F03C000
0F87C000
07878000
07878000
07CF8000
03CF0000
03DF0000
03FE0000
01FE0000
01FE0000
00FC0000
00FC0000
00FC0000
00780000
00780000
00F80000
00F00000
01F00000
01E00000
01E00000
03E00000
3FC00000
3FC00000
3F800000
7E000000
ENDCHAR
STARTCHAR 01B5
ENCODING 437
SWIDTH 522 0
DWIDTH 29 0
BBX 24 36 3 0
BITMAP
FFFFFF
FFFFFF
FFFFFF
FFFFFF
00001F
00003E
00003E
00007C
0000F8
0001F0
0001F0
0003E0
0007C0
0007C0
000F80
001F00
3FFFF8
3FFFF8
3FFFF8
3FFFF8
00F800
01F000
03E000
03E000
07C000
0F8000
0F8000
1F0000
3E0000
7C0000
7C0000
F80000
FFFFFF
FFFFFF
FFFFFF
FFFFFF
ENDCHAR
STARTCHAR 01B6
ENCODING 438
SWIDTH 396 0
DWIDTH 22 0
BBX 17 25 3 0
BITMAP
FFFF80
FFFF80
FFFF80
FFFF80
001F00
001F00
003E00
007C00
00F800
00F800
7FFE00
7FFE00
7FFE00
7FFE00
7FFE00
0F8000
1F0000
3E0000
7C0000
7C0000
F80000
FFFF80
FFFF80
FFFF80
FFFF80
ENDCHAR
STARTCHAR 01B7
ENCODING 439
SWIDTH 522 0
DWIDTH 29 0
BBX 24 37 3 -1
BITMAP
FFFFFF
FFFFFF
FFFFFF
FFFFFF
00001F
00003E
00003E
00007C
0000F8
0001F0
0001F0
0003E0
0007C0
0007C0
000FC0
001FE0
001FF0
0023F8
0000FC
00003E
00001E
00001F
00000F
00000F
00000F
00000F
30000F
F0000F
F8001F
78003E
7C007E
3F00FC
1FFFF8
0FFFF0
07FFE0
01FF80
003000
ENDCHAR
STARTCHAR 01B8
ENCODING 440
SWIDTH 522 0
DWIDTH 29 0
BBX 24 37 3 -1
BITMAP
FFFFFF
FFFFFF
FFFFFF
FFFFFF
F80000
7C0000
7C0000
3E0000
1F0000
1F0000
0F8000
07C000
03E000
03E000
03F000
07F800
1FF800
3FC400
3F0000
7C0000
780000
F80000
F00000
F00000
F00000
F00000
F0000C
F0000F
F8001F
78003E
7C007E
3F00FC
1FFFF8
0FFFF0
07FFE0
01FF80
003000
ENDCHAR
STARTCHAR 01B9
ENCODING 441
SWIDTH 432 0
DWIDTH 24 0
BBX 19 36 3 -11
BITMAP
FFFFE0
FFFFE0
FFFFE0
FFFFE0
F80000
7C0000
7C0000
3E0000
1F0000
1F0000
0F8000
07C000
03E000
07E000
0FF000
1FF800
3F0000
7E0000
7C0000
F80000
F80000
F00000
F00000
F00000
F00000
F00000
F00000
F00000
F80000
780000
7C0100
3F03C0
1FFFE0
0FFFC0
07FF00
03FE00
ENDCHAR
STARTCHAR 01BA
ENCODING 442
SWIDTH 378 0
DWIDTH 21 0
BBX 17 36 3 -11
BITMAP
FFFF80
FFFF80
FFFF80
FFFF80
001F00
001F00
003E00
007C00
00F800
00F800
01F000
03F000
03F800
07FC00
0FFE00
001E00
001F00
001F00
001E00
003E00
00FE00
03FC00
1FF000
3FC000
7F0000
7C0000
F80000
F00000
F00F00
F00F00
F80F00
7C1F00
7FFE00
3FFC00
1FF800
0FF000
ENDCHAR
STARTCHAR 01BB
ENCODING 443
SWIDTH 432 0
DWIDTH 24 0
BBX 19 36 3 0
BITMAP
07F800
0FFE00
3FFF00
3FFF80
7C0FC0
F807C0
F003C0
F003E0
F001E0
0001E0
0001E0
0003C0
0003C0
0007C0
000F80
000F80
FFFFE0
FFFFE0
FFFFE0
FFFFE0
03F000
07E000
0F8000
1F0000
3E0000
3E0000
7C0000
780000
F80000
F00000
F00000
F00000
FFFFE0
FFFFE0
FFFFE0
FFFFE0
ENDCHAR
STARTCHAR 01BC
ENCODING 444
SWIDTH 450 0
DWIDTH 25 0
BBX 20 37 3 -1
BITMAP
FFFFC0
FFFFC0
FFFFC0
FFFFC0
3C0000
3C0000
3C0000
780000
780000
780000
784000
7FFC00
7FFE00
FFFF00
FFFF80
FC0FC0
F807C0
F003E0
3001E0
0001F0
0000F0
0000F0
0000F0
0000F0
0000F0
0000F0
0000F0
0001F0
3001E0
F003E0
F803C0
7C0FC0
7FFF80
3FFF00
1FFE00
07FC00
004000
ENDCHAR
STARTCHAR 01BD
ENCODING 445
SWIDTH 378 0
DWIDTH 21 0
BBX 16 25 3 -1
BITMAP
FFFE
FFFE
FFFE
FFFE
3C00
3C00
3C00
3FF0
7FF8
7FFC
7FFE
7C3E
381E
000F
000F
000F
100F
F00F
F00F
781E
7C3E
3FFE
3FFC
1FF8
0FF0
ENDCHAR
STARTCHAR 01BE
ENCODING 446
SWIDTH 450 0
DWIDTH 25 0
BBX 20 33 3 -1
BITMAP
008000
018000
078000
078000
078000
078000
078000
FFF800
FFF800
FFF800
FFF800
078000
078000
078000
078000
07C000
07F000
03FC00
00FF00
007FC0
000FE0
0003F0
0001F0
0000F0
0F00F0
0F00F0
0F80F0
0781F0
07FFE0
03FFC0
01FF80
00FF00
000800
ENDCHAR
STARTCHAR 01BF
ENCODING 447
SWIDTH 432 0
DWIDTH 24 0
BBX 19 38 3 -12
BITMAP
004000
F7FC00
FFFE00
FFFF00
FFFF80
FC0FC0
F807C0
F003C0
F003E0
F001E0
F001E0
F003E0
F003C0
F003C0
F007C0
F00F80
F01F80
F03F00
F07E00
F0FC00
F1F800
F3F000
F7C000
FF8000
FF0000
FE0000
FC0000
FC0000
F80000
F80000
F00000
F00000
F00000
F00000
F00000
F00000
700000
100000
ENDCHAR
STARTCHAR 01C0
ENCODING 448
SWIDTH 162 0
DWIDTH 9 0
BBX 4 48 3 -12
BITMAP
F0
F0
F0
F0
F0
F0
F0
F0
F0
F0
F0
F0
F0
F0
F0
F0
F0
F0
F0
F0
F0
F0
F0
F0
F0
F0
F0
F0
F0
F0
F0
F0
F0
F0
F0
F0
F0
F0
F0
F0
F0
F0
F0
F0
F0
F0
70
10
ENDCHAR
STARTCHAR 01C1
ENCODING 449
SWIDTH 306 0
DWIDTH 17 0
BBX 12 48 3 -12
BITMAP
F0F0
F0F0
F0F0
F0F0
F0F0
F0F0
F0F0
F0F0
F0F0
F0F0
F0F0
F0F0
F0F0
F0F0
F0F0
F0F0
F0F0
F0F0
F0F0
F0F0
F0F0
F0F0
F0F0
F0F0
F0F0
F0F0
F0F0
F0F0
F0F0
F0F0
F0F0
F0F0
F0F0
F0F0
F0F0
F0F0
F0F0
F0F0
F0F0
F0F0
F0F0
F0F0
F0F0
F0F0
F0F0
F0F0
7070
1010
ENDCHAR
STARTCHAR 01C2
ENCODING 450
SWIDTH 432 0
DWIDTH 24 0
BBX 19 36 3 0
BITMAP
01E000
01E000
01E000
01E000
01E000
01E000
01E000
01E000
01E000
01E000
01E000
FFFFE0
FFFFE0
FFFFE0
FFFFE0
01E000
01E000
01E000
01E000
01E000
01E000
FFFFE0
FFFFE0
FFFFE0
FFFFE0
01E000
01E000
01E000
01E000
01E000
01E000
01E000
01E000
01E000
01E000
01E000
ENDCHAR
STARTCHAR 01C3
ENCODING 451
SWIDTH 162 0
DWIDTH 9 0
BBX 6 37 2 -1
BITMAP
78
78
78
78
78
78
78
78
78
78
78
78
78
78
78
78
78
78
78
78
78
78
78
78
78
00
00
00
00
00
00
78
FC
FC
FC
78
10
ENDCHAR
STARTCHAR 01C4
ENCODING 452
SWIDTH 1170 0
DWIDTH 65 0
BBX 59 47 3 0
BITMAP
0000000000C00400
0000000000600800
0000000000701800
0000000000383000
00000000003C7000
00000000001EE000
00000000000FE000
00000000000FC000
0000000000000000
0000000000000000
0000000000000000
FFFF80001FFFFFE0
FFFFF0001FFFFFE0
FFFFFC001FFFFFE0
FFFFFE001FFFFFE0
0F00FF00000003E0
0F001F80000007E0
0F000FC0000007C0
0F0007E000000F80
0F0003E000001F00
0F0001F000001F00
0F0000F000003E00
0F0000F800007C00
0F0000F800007C00
0F0000780000F800
0F0000780001F000
0F0000780003F000
0F0000780003E000
0F00007C0007C000
0F00007C000F8000
0F00007C000F8000
0F000078001F0000
0F000078003E0000
0F000078003E0000
0F000078007C0000
0F0000F800F80000
0F0000F001F00000
0F0001F001F00000
0F0003E003E00000
0F0007E007C00000
0F000FC007C00000
0F001F800F800000
0F007F801F000000
FFFFFF001FFFFFE0
FFFFFC001FFFFFE0
FFFFF8001FFFFFE0
FFFFC0001FFFFFE0
ENDCHAR
STARTCHAR 01C5
ENCODING 453
SWIDTH 1026 0
DWIDTH 57 0
BBX 52 36 3 0
BITMAP
FFFF8000040040
FFFFF0000600C0
FFFFFC00030180
FFFFFE00038380
0F00FF0001C700
0F001F8001EF00
0F000FC000FE00
0F0007E000FC00
0F0003E0000000
0F0001F0000000
0F0000F0000000
0F0000F81FFFF0
0F0000F81FFFF0
0F0000781FFFF0
0F0000781FFFF0
0F0000780003E0
0F0000780003E0
0F00007C0007C0
0F00007C000F80
0F00007C000F80
0F000078001F00
0F000078003E00
0F000078003E00
0F000078007C00
0F0000F800F800
0F0000F001F000
0F0001F001F000
0F0003E003E000
0F0007E007C000
0F000FC007C000
0F001F800F8000
0F007F801F0000
FFFFFF001FFFF0
FFFFFC001FFFF0
FFFFF8001FFFF0
FFFFC0001FFFF0
ENDCHAR
STARTCHAR 01C6
ENCODING 454
SWIDTH 882 0
DWIDTH 49 0
BBX 44 37 3 -1
BITMAP
000078040040
000078060080
000078030180
000078038300
00007801C700
00007801FE00
00007800FE00
00007800FC00
000078000000
000078000000
000078000000
03FE781FFFF0
07FF781FFFF0
0FFFF81FFFF0
1FFFF81FFFF0
3F03F80003E0
7C01F80003E0
7C00F80007C0
F800F8000F80
F00078000F80
F00078001F00
F00078003E00
F00078007C00
F00078007C00
F0007800F800
F0007801F000
F0007801F000
F0007803E000
F800F807C000
7C00F807C000
7C01F80F8000
3E03F81F0000
1FFFF81FFFF0
0FFFF81FFFF0
07FF781FFFF0
03FE781FFFF0
002000000000
ENDCHAR
STARTCHAR 01C7
ENCODING 455
SWIDTH 864 0
DWIDTH 48 0
BBX 43 37 3 -1
BITMAP
F000000001E0
F000000001E0
F000000001E0
F000000001E0
F000000001E0
F000000001E0
F000000001E0
F000000001E0
F000000001E0
F000000001E0
F000000001E0
F000000001E0
F000000001E0
F000000001E0
F000000001E0
F000000001E0
F000000001E0
F000000001E0
F000000001E0
F000000001E0
F000000001E0
F000000001E0
F000000001E0
F000000001E0
F000000001E0
F000000001E0
F000000001E0
F000000001E0
F000000001E0
F000000F01E0
F000000F01E0
F000000F83E0
FFFFFE07FFC0
FFFFFE07FFC0
FFFFFE03FF80
FFFFFE00FE00
000000003800
ENDCHAR
STARTCHAR 01C8
ENCODING 456
SWIDTH 702 0
DWIDTH 39 0
BBX 34 47 3 -11
BITMAP
F000000000
F000000700
F000000F80
F000000F80
F000000FC0
F000000F80
F000000700
F000000000
F000000000
F000000000
F000000000
F000000F80
F000000F80
F000000F80
F000000F80
F000000F80
F000000F80
F000000F80
F000000F80
F000000F80
F000000F80
F000000F80
F000000F80
F000000F80
F000000F80
F000000F80
F000000F80
F000000F80
F000000F80
F000000F80
F000000F80
F000000F80
FFFFFE0F80
FFFFFE0F80
FFFFFE0F80
FFFFFE0F80
0000000F80
0000000F80
0000000F80
0000000F80
0000000F80
0000000F00
0000001F00
000003FF00
000007FE00
00000FFC00
000007F800
ENDCHAR
STARTCHAR 01C9
ENCODING 457
SWIDTH 432 0
DWIDTH 24 0
BBX 18 47 3 -11
BITMAP
F00000
F00380
F007C0
F00FC0
F00FC0
F007C0
F00780
F00000
F00000
F00000
F00000
F00780
F00780
F00780
F00780
F00780
F00780
F00780
F00780
F00780
F00780
F00780
F00780
F00780
F00780
F00780
F00780
F00780
F00780
F00780
F00780
F00780
FF0780
FF0780
FF0780
7F0780
000780
000780
000780
000780
000780
000780
000F80
01FF00
03FF00
07FE00
03F800
ENDCHAR
STARTCHAR 01CA
ENCODING 458
SWIDTH 972 0
DWIDTH 54 0
BBX 49 37 3 -1
BITMAP
F00000F0000780
F80000F0000780
F80000F0000780
FC0000F0000780
FE0000F0000780
FF0000F0000780
FF0000F0000780
FF8000F0000780
F7C000F0000780
F7C000F0000780
F3E000F0000780
F1F000F0000780
F1F000F0000780
F0F800F0000780
F07C00F0000780
F03E00F0000780
F03E00F0000780
F01F00F0000780
F00F80F0000780
F00F80F0000780
F007C0F0000780
F003E0F0000780
F003E0F0000780
F001F0F0000780
F000F8F0000780
F0007CF0000780
F0007CF0000780
F0003EF0000780
F0001FF0000780
F0001FF07C0F80
F0000FF03C0F00
F00007F03E1F00
F00007F03FFF00
F00003F01FFE00
F00001F00FFC00
F00000F007F800
0000000000C000
ENDCHAR
STARTCHAR 01CB
ENCODING 459
SWIDTH 792 0
DWIDTH 44 0
BBX 39 47 3 -11
BITMAP
F00000F000
F80000F018
F80000F03E
FC0000F07E
FE0000F07E
FF0000F07E
FF0000F03C
FF8000F000
F7C000F000
F7C000F000
F3E000F000
F1F000F03C
F1F000F03C
F0F800F03C
F07C00F03C
F03E00F03C
F03E00F03C
F01F00F03C
F00F80F03C
F00F80F03C
F007C0F03C
F003E0F03C
F003E0F03C
F001F0F03C
F000F8F03C
F0007CF03C
F0007CF03C
F0003EF03C
F0001FF03C
F0001FF03C
F0000FF03C
F00007F03C
F00007F03C
F00003F03C
F00001F03C
F00000F03C
000000003C
000000003C
000000003C
000000003C
000000003C
000000003C
000000007C
0000001FF8
0000001FF8
0000003FF0
0000001FC0
ENDCHAR
STARTCHAR 01CC
ENCODING 460
SWIDTH 666 0
DWIDTH 37 0
BBX 32 46 3 -11
BITMAP
0000000C
0000001F
0000003F
0000003F
0000003F
0000001E
00000000
00000000
00000000
00000000
F1FF001E
F7FF801E
FFFFC01E
FFFFE01E
FF01F01E
FE01F01E
FC00F01E
F800F81E
F800781E
F000781E
F000781E
F000781E
F000781E
F000781E
F000781E
F000781E
F000781E
F000781E
F000781E
F000781E
F000781E
F000781E
F000781E
F000781E
F000781E
0000001E
0000001E
0000001E
0000001E
0000001E
0000001E
0000003E
00000FFC
00000FFC
00001FF8
00000FE0
ENDCHAR
STARTCHAR 01CD
ENCODING 461
SWIDTH 630 0
DWIDTH 35 0
BBX 30 47 3 0
BITMAP
00800C00
00401800
00603800
00387000
003CF000
001FE000
001FE000
000FC000
00000000
00000000
00000000
00078000
000FC000
000FC000
000FC000
001FE000
001FE000
003FE000
003DF000
003CF000
007CF800
00787800
00787800
00F87C00
00F03C00
00F03C00
01F03E00
01E01E00
03E01E00
03C01F00
03FFFF00
07FFFF80
07FFFF80
07FFFF80
0F8007C0
0F0003C0
0F0003C0
1F0003E0
1E0001E0
3E0001E0
3C0001F0
3C0000F0
7C0000F8
78000078
78000078
F800007C
F000003C
ENDCHAR
STARTCHAR 01CE
ENCODING 462
SWIDTH 396 0
DWIDTH 22 0
BBX 17 37 3 -1
BITMAP
200200
300400
180C00
1C1800
0E3800
0F7000
07F000
07E000
000000
000000
000000
07F000
1FFC00
3FFE00
3FFF00
0C1F00
000F80
000780
000780
000780
000780
07FF80
1FFF80
3FFF80
7FFF80
FC0780
F80780
F00780
F00780
F00780
F00F80
F81F80
7FFF80
3FFF80
1FFF80
0FFF80
008000
ENDCHAR
STARTCHAR 01CF
ENCODING 463
SWIDTH 306 0
DWIDTH 17 0
BBX 14 47 2 0
BITMAP
800C
4018
6038
3070
38F0
1DE0
1FC0
0FC0
0000
0000
0000
7FF8
7FF8
7FF8
7FF8
0780
0780
0780
0780
0780
0780
0780
0780
0780
0780
0780
0780
0780
0780
0780
0780
0780
0780
0780
0780
0780
0780
0780
0780
0780
0780
0780
0780
7FF8
7FF8
7FF8
7FF8
ENDCHAR
STARTCHAR 01D0
ENCODING 464
SWIDTH 162 0
DWIDTH 9 0
BBX 13 36 -2 0
BITMAP
8008
4018
6030
3070
38E0
1DE0
1FC0
0FC0
0000
0000
0000
0780
0780
0780
0780
0780
0780
0780
0780
0780
0780
0780
0780
0780
0780
0780
0780
0780
0780
0780
0780
0780
0780
0780
0780
0780
ENDCHAR
STARTCHAR 01D1
ENCODING 465
SWIDTH 630 0
DWIDTH 35 0
BBX 30 48 3 -1
BITMAP
00800800
00C01800
00603000
00707000
0038E000
003DE000
001FC000
000FC000
00000000
00000000
00000000
003FE000
00FFF800
01FFFE00
07FFFF00
07E03F80
0F800FC0
1F0007C0
3E0003E0
3E0001E0
7C0001F0
780000F0
780000F8
F8000078
F0000078
F0000078
F0000078
F0000078
F000007C
F000007C
F000007C
F0000078
F0000078
F0000078
F8000078
780000F8
780000F0
7C0001F0
3C0001F0
3E0003E0
1F0007C0
0F800FC0
0FE01F80
07FFFF00
03FFFE00
00FFFC00
007FF000
00020000
ENDCHAR
STARTCHAR 01D2
ENCODING 466
SWIDTH 486 0
DWIDTH 27 0
BBX 21 37 3 -1
BITMAP
080080
0C0180
060300
070700
038E00
03DE00
01FC00
01FC00
000000
000000
000000
03FE00
07FF00
0FFF80
1FFFC0
3F03E0
7C01F0
7C00F0
F800F8
F00078
F00078
F00078
F00078
F00078
F00078
F00078
F00078
F00078
F800F8
7C00F0
7C01F0
3E03E0
1FFFC0
0FFFC0
07FF00
03FE00
002000
ENDCHAR
STARTCHAR 01D3
ENCODING 467
SWIDTH 576 0
DWIDTH 32 0
BBX 27 48 3 -1
BITMAP
01001000
01803000
00C06000
00E0E000
0071C000
007B8000
003F8000
003F0000
00000000
00000000
00000000
F00001E0
F00001E0
F00001E0
F00001E0
F00001E0
F00001E0
F00001E0
F00001E0
F00001E0
F00001E0
F00001E0
F00001E0
F00001E0
F00001E0
F00001E0
F00001E0
F00001E0
F00001E0
F00001E0
F00001E0
F00001E0
F00001E0
F00001E0
F00001E0
F00001E0
F00003E0
F00003C0
F80003C0
7C0007C0
7C000F80
3E001F80
1F807F00
0FFFFE00
07FFFC00
03FFF000
00FFE000
00040000
ENDCHAR
STARTCHAR 01D4
ENCODING 468
SWIDTH 486 0
DWIDTH 27 0
BBX 21 37 3 -1
BITMAP
080080
0C0180
060300
070700
038E00
03DE00
01FC00
01FC00
000000
000000
000000
F00078
F00078
F00078
F00078
F00078
F00078
F00078
F00078
F00078
F00078
F00078
F00078
F00078
F00078
F00078
F00078
F000F8
F800F8
7801F8
7C03F8
7E07F8
3FFFF8
1FFFF8
0FFF78
07FC78
004000
ENDCHAR
STARTCHAR 01D5
ENCODING 469
SWIDTH 576 0
DWIDTH 32 0
BBX 27 48 3 -1
BITMAP
03FFF000
03FFF000
03FFF000
03FFF000
00000000
01C0F000
03E1F800
03F1F800
03F1F800
03E1F000
01C0E000
F00001E0
F00001E0
F00001E0
F00001E0
F00001E0
F00001E0
F00001E0
F00001E0
F00001E0
F00001E0
F00001E0
F00001E0
F00001E0
F00001E0
F00001E0
F00001E0
F00001E0
F00001E0
F00001E0
F00001E0
F00001E0
F00001E0
F00001E0
F00001E0
F00001E0
F00003E0
F00003C0
F80003C0
7C0007C0
7C000F80
3E001F80
1F807F00
0FFFFE00
07FFFC00
03FFF000
00FFE000
00040000
ENDCHAR
STARTCHAR 01D6
ENCODING 470
SWIDTH 486 0
DWIDTH 27 0
BBX 21 43 3 -1
BITMAP
0FFF80
0FFF80
0FFF80
0FFF80
000000
000000
000000
060300
0F07C0
1F8FC0
1F8FC0
1F8FC0
0F0780
000000
000000
000000
000000
F00078
F00078
F00078
F00078
F00078
F00078
F00078
F00078
F00078
F00078
F00078
F00078
F00078
F00078
F00078
F00078
F000F8
F800F8
7801F8
7C03F8
7E07F8
3FFFF8
1FFFF8
0FFF78
07FC78
004000
ENDCHAR
STARTCHAR 01D7
ENCODING 471
SWIDTH 576 0
DWIDTH 32 0
BBX 27 48 3 -1
BITMAP
0000F000
0001E000
0003C000
00038000
00070000
0046C000
00FDE000
01F1E000
01F1E000
00E1E000
00000000
F00001E0
F00001E0
F00001E0
F00001E0
F00001E0
F00001E0
F00001E0
F00001E0
F00001E0
F00001E0
F00001E0
F00001E0
F00001E0
F00001E0
F00001E0
F00001E0
F00001E0
F00001E0
F00001E0
F00001E0
F00001E0
F00001E0
F00001E0
F00001E0
F00001E0
F00003E0
F00003C0
F80003C0
7C0007C0
7C000F80
3E001F80
1F807F00
0FFFFE00
07FFFC00
03FFF000
00FFE000
00040000
ENDCHAR
STARTCHAR 01D8
ENCODING 472
SWIDTH 486 0
DWIDTH 27 0
BBX 21 46 3 -1
BITMAP
001F80
001F00
003E00
003800
007000
006000
00C000
008000
000000
000000
060300
0F07C0
1F8FC0
1F8FC0
1F8FC0
0F0780
000000
000000
000000
000000
F00078
F00078
F00078
F00078
F00078
F00078
F00078
F00078
F00078
F00078
F00078
F00078
F00078
F00078
F00078
F00078
F000F8
F800F8
7801F8
7C03F8
7E07F8
3FFFF8
1FFFF8
0FFF78
07FC78
004000
ENDCHAR
STARTCHAR 01D9
ENCODING 473
SWIDTH 576 0
DWIDTH 32 0
BBX 27 48 3 -1
BITMAP
00802000
00C04000
0060C000
00718000
003B8000
003F0000
00FFC000
01F1E000
01F1E000
01F1E000
0060C000
F00001E0
F00001E0
F00001E0
F00001E0
F00001E0
F00001E0
F00001E0
F00001E0
F00001E0
F00001E0
F00001E0
F00001E0
F00001E0
F00001E0
F00001E0
F00001E0
F00001E0
F00001E0
F00001E0
F00001E0
F00001E0
F00001E0
F00001E0
F00001E0
F00001E0
F00003E0
F00003C0
F80003C0
7C0007C0
7C000F80
3E001F80
1F807F00
0FFFFE00
07FFFC00
03FFF000
00FFE000
00040000
ENDCHAR
STARTCHAR 01DA
ENCODING 474
SWIDTH 486 0
DWIDTH 27 0
BBX 21 46 3 -1
BITMAP
080080
0C0180
060300
070700
038E00
01DE00
01FC00
00FC00
000000
000000
060300
0F07C0
1F8FC0
1F8FC0
1F8FC0
0F0780
000000
000000
000000
000000
F00078
F00078
F00078
F00078
F00078
F00078
F00078
F00078
F00078
F00078
F00078
F00078
F00078
F00078
F00078
F00078
F000F8
F800F8
7801F8
7C03F8
7E07F8
3FFFF8
1FFFF8
0FFF78
07FC78
004000
ENDCHAR
STARTCHAR 01DB
ENCODING 475
SWIDTH 576 0
DWIDTH 32 0
BBX 27 48 3 -1
BITMAP
01E00000
00F00000
00700000
00380000
00180000
004CC000
00F5E000
01F1E000
01F1E000
00E1E000
00000000
F00001E0
F00001E0
F00001E0
F00001E0
F00001E0
F00001E0
F00001E0
F00001E0
F00001E0
F00001E0
F00001E0
F00001E0
F00001E0
F00001E0
F00001E0
F00001E0
F00001E0
F00001E0
F00001E0
F00001E0
F00001E0
F00001E0
F00001E0
F00001E0
F00001E0
F00003E0
F00003C0
F80003C0
7C0007C0
7C000F80
3E001F80
1F807F00
0FFFFE00
07FFFC00
03FFF000
00FFE000
00040000
ENDCHAR
STARTCHAR 01DC
ENCODING 476
SWIDTH 486 0
DWIDTH 27 0
BBX 21 46 3 -1
BITMAP
07C000
03C000
01E000
00E000
007000
003000
001800
000800
000000
000000
060300
0F07C0
1F8FC0
1F8FC0
1F8FC0
0F0780
000000
000000
000000
000000
F00078
F00078
F00078
F00078
F00078
F00078
F00078
F00078
F00078
F00078
F00078
F00078
F00078
F00078
F00078
F00078
F000F8
F800F8
7801F8
7C03F8
7E07F8
3FFFF8
1FFFF8
0FFF78
07FC78
004000
ENDCHAR
STARTCHAR 01DD
ENCODING 477
SWIDTH 486 0
DWIDTH 27 0
BBX 21 26 3 0
BITMAP
03FE00
07FF00
0FFF80
1FFFC0
3F03E0
7C01F0
7C00F0
1800F8
000078
000078
000078
000078
FFFFF8
FFFFF8
FFFFF8
FFFFF8
F00078
F800F8
7C00F0
7C01F0
3E03E0
1FFFC0
0FFFC0
07FF00
03FE00
002000
ENDCHAR
STARTCHAR 01DE
ENCODING 478
SWIDTH 630 0
DWIDTH 35 0
BBX 30 47 3 0
BITMAP
00FFFC00
00FFFC00
00FFFC00
00FFFC00
00000000
00703800
00F87C00
01F87C00
01F87C00
00F87C00
00703800
00078000
000FC000
000FC000
000FC000
001FE000
001FE000
003FE000
003DF000
003CF000
007CF800
00787800
00787800
00F87C00
00F03C00
00F03C00
01F03E00
01E01E00
03E01E00
03C01F00
03FFFF00
07FFFF80
07FFFF80
07FFFF80
0F8007C0
0F0003C0
0F0003C0
1F0003E0
1E0001E0
3E0001E0
3C0001F0
3C0000F0
7C0000F8
78000078
78000078
F800007C
F000003C
ENDCHAR
STARTCHAR 01DF
ENCODING 479
SWIDTH 396 0
DWIDTH 22 0
BBX 17 43 3 -1
BITMAP
7FFE00
7FFE00
7FFE00
7FFE00
000000
000000
000000
380C00
7C3E00
7E3F00
7E3F00
7C3F00
3C1E00
000000
000000
000000
000000
07F000
1FFC00
3FFE00
3FFF00
0C1F00
000F80
000780
000780
000780
000780
07FF80
1FFF80
3FFF80
7FFF80
FC0780
F80780
F00780
F00780
F00780
F00F80
F81F80
7FFF80
3FFF80
1FFF80
0FFF80
008000
ENDCHAR
STARTCHAR 01E0
ENCODING 480
SWIDTH 630 0
DWIDTH 35 0
BBX 30 47 3 0
BITMAP
00FFFC00
00FFFC00
00FFFC00
00FFFC00
00070000
000F8000
000FC000
000FC000
000FC000
00078000
00000000
00078000
000FC000
000FC000
000FC000
001FE000
001FE000
003FE000
003DF000
003CF000
007CF800
00787800
00787800
00F87C00
00F03C00
00F03C00
01F03E00
01E01E00
03E01E00
03C01F00
03FFFF00
07FFFF80
07FFFF80
07FFFF80
0F8007C0
0F0003C0
0F0003C0
1F0003E0
1E0001E0
3E0001E0
3C0001F0
3C0000F0
7C0000F8
78000078
78000078
F800007C
F000003C
ENDCHAR
STARTCHAR 01E1
ENCODING 481
SWIDTH 396 0
DWIDTH 22 0
BBX 17 43 3 -1
BITMAP
7FFE00
7FFE00
7FFE00
7FFE00
000000
000000
000000
018000
03E000
07E000
07E000
03E000
03C000
000000
000000
000000
000000
07F000
1FFC00
3FFE00
3FFF00
0C1F00
000F80
000780
000780
000780
000780
07FF80
1FFF80
3FFF80
7FFF80
FC0780
F80780
F00780
F00780
F00780
F00F80
F81F80
7FFF80
3FFF80
1FFF80
0FFF80
008000
ENDCHAR
STARTCHAR 01E2
ENCODING 482
SWIDTH 720 0
DWIDTH 40 0
BBX 35 44 3 0
BITMAP
0000FFFC00
0000FFFC00
0000FFFC00
0000FFFC00
0000000000
0000000000
0000000000
0000000000
0007FFFFE0
000FFFFFE0
000FFFFFE0
000FFFFFE0
001F3C0000
001E3C0000
003E3C0000
003C3C0000
003C3C0000
007C3C0000
00783C0000
00783C0000
00F83C0000
00F03C0000
00F03C0000
01F03C0000
01FFFFFF00
03FFFFFF00
03FFFFFF00
03FFFFFF00
07C03C0000
07803C0000
07803C0000
0F803C0000
0F003C0000
0F003C0000
1F003C0000
1E003C0000
3E003C0000
3C003C0000
3C003C0000
7C003C0000
78003FFFE0
78003FFFE0
F8003FFFE0
F0003FFFE0
ENDCHAR
STARTCHAR 01E3
ENCODING 483
SWIDTH 720 0
DWIDTH 40 0
BBX 34 34 3 -1
BITMAP
003FFF0000
003FFF0000
003FFF0000
003FFF0000
0000000000
0000000000
0000000000
0000000000
07F01FF000
1FFC3FF800
3FFE7FFE00
3FFFFFFE00
0C1FF01F00
000FE00F80
0007E00780
0007C007C0
0007C003C0
0007FFFFC0
07FFFFFFC0
1FFFFFFFC0
3FFFFFFFC0
7FFF800000
FC07800000
F807800000
F007800000
F007C00600
F007E00780
F00FE00F80
F81FF01F00
7FFFFFFE00
3FFE7FFE00
1FFC3FF800
0FF01FF000
0080030000
ENDCHAR
STARTCHAR 01E4
ENCODING 484
SWIDTH 648 0
DWIDTH 36 0
BBX 31 37 3 -1
BITMAP
003FE000
00FFF800
01FFFE00
07FFFF00
07E03F80
0F800FC0
1F0007C0
3E0003E0
3E0001C0
7C000180
78000000
78000000
F8000000
F0000000
F0000000
F0000000
F0000000
F007FFE0
F007FFE0
F007FFE0
F007FFE0
F00001E0
F00001E0
F80001E0
78001FFE
78001FFE
7C001FFE
3C001FFE
3E0003E0
1F0007C0
0F800FC0
0FE01F80
07FFFF00
03FFFE00
00FFFC00
007FF000
00020000
ENDCHAR
STARTCHAR 01E5
ENCODING 485
SWIDTH 504 0
DWIDTH 28 0
BBX 28 36 0 -10
BITMAP
007FC0C0
01FFF1F0
03FFFFF0
07FFFFE0
0FC07FC0
1F001F00
1F000F00
1E000F00
1E000F00
1E000F00
1E000F00
1F000F00
1F001F00
0FC07E00
07FFFE00
07FFFC00
0FFFF000
0F7FC000
1F000000
1F000000
0F800000
0FF80000
07FFE000
01FFFC00
001FFE00
00007F00
FFFFFFF0
FFFFFFF0
FFFFFFF0
FFFFFFF0
1F001F00
0F803F00
0FFFFE00
07FFFC00
03FFF800
00FFE000
ENDCHAR
STARTCHAR 01E6
ENCODING 486
SWIDTH 576 0
DWIDTH 32 0
BBX 27 48 3 -1
BITMAP
01001000
01803000
00C06000
00E0E000
0071C000
007BC000
003F8000
003F8000
00000000
00000000
00000000
003FE000
00FFF800
01FFFE00
07FFFF00
07E03F80
0F800FC0
1F0007C0
3E0003E0
3E0001C0
7C000180
78000000
78000000
F8000000
F0000000
F0000000
F0000000
F0000000
F007FFE0
F007FFE0
F007FFE0
F007FFE0
F00001E0
F00001E0
F80001E0
780001E0
780001E0
7C0001E0
3C0001E0
3E0003E0
1F0007C0
0F800FC0
0FE01F80
07FFFF00
03FFFE00
00FFFC00
007FF000
00020000
ENDCHAR
STARTCHAR 01E7
ENCODING 487
SWIDTH 504 0
DWIDTH 28 0
BBX 25 47 3 -11
BITMAP
08008000
0C018000
06030000
07070000
038E0000
03DE0000
01FC0000
01FC0000
00000000
00000000
00000000
03FE0600
0FFF8F80
1FFFFF80
3FFFFF00
7E03FE00
F800F800
F8007800
F0007800
F0007800
F0007800
F0007800
F8007800
F800F800
7E03F000
3FFFF000
3FFFE000
7FFF8000
7BFE0000
F8000000
F8000000
7C000000
7FC00000
3FFF0000
0FFFE000
00FFF000
0003F800
0000F800
00007800
F0007800
F0007800
F800F800
7C01F800
7FFFF000
3FFFE000
1FFFC000
07FF0000
ENDCHAR
STARTCHAR 01E8
ENCODING 488
SWIDTH 540 0
DWIDTH 30 0
BBX 24 47 3 0
BITMAP
060020
0300C0
0381C0
01C380
01E780
00FF00
00FF00
007E00
000000
000000
000000
F000F8
F000F8
F001F0
F003E0
F003E0
F007C0
F00F80
F00F80
F01F00
F03E00
F07C00
F07C00
F0F800
F1F000
F1F000
F3E000
F7E000
F7E000
FFF000
FFF800
FE7800
FE7C00
FC3E00
F81F00
F81F00
F00F80
F007C0
F007C0
F003E0
F001F0
F000F8
F000F8
F0007C
F0003E
F0003E
F0001F
ENDCHAR
STARTCHAR 01E9
ENCODING 489
SWIDTH 432 0
DWIDTH 24 0
BBX 18 46 3 0
BITMAP
100300
180600
0C0E00
0E1C00
073C00
07F800
03F800
03F000
000000
000000
F00000
F00000
F00000
F00000
F00000
F00000
F00000
F00000
F00000
F00000
F00000
F01F00
F03E00
F07C00
F07C00
F0F800
F1F000
F3E000
F3E000
F7C000
FF8000
FF8000
FF8000
FFC000
FFE000
FFE000
F9F000
F0F800
F0F800
F07C00
F03E00
F01F00
F01F00
F00F80
F007C0
F007C0
ENDCHAR
STARTCHAR 01EA
ENCODING 490
SWIDTH 630 0
DWIDTH 35 0
BBX 30 46 3 -10
BITMAP
003FE000
00FFF800
01FFFE00
07FFFF00
07E03F80
0F800FC0
1F0007C0
3E0003E0
3E0001E0
7C0001F0
780000F0
780000F8
F8000078
F0000078
F0000078
F0000078
F0000078
F000007C
F000007C
F000007C
F0000078
F0000078
F0000078
F8000078
780000F8
780000F0
7C0001F0
3C0001F0
3E0003E0
1F0007C0
0F800FC0
0FE01F80
07FFFF00
03FFFE00
00FFFC00
007FF000
00030000
00060000
00070000
00070000
00070000
00078000
0007E000
0003FF00
0001FE00
0000FC00
ENDCHAR
STARTCHAR 01EB
ENCODING 491
SWIDTH 486 0
DWIDTH 27 0
BBX 21 35 3 -9
BITMAP
03FE00
07FF00
0FFF80
1FFFC0
3F03E0
7C01F0
7C00F0
F800F8
F00078
F00078
F00078
F00078
F00078
F00078
F00078
F00078
F00078
F800F8
7C00F0
7C01F0
3E03E0
1FFFC0
0FFFC0
07FF00
03FE00
007000
006000
006000
007000
007000
007800
007C00
003FF0
001FE0
000F80
ENDCHAR
STARTCHAR 01EC
ENCODING 492
SWIDTH 630 0
DWIDTH 35 0
BBX 30 54 3 -10
BITMAP
00FFF800
00FFF800
00FFF800
00FFF800
00000000
00000000
00000000
00000000
003FE000
00FFF800
01FFFE00
07FFFF00
07E03F80
0F800FC0
1F0007C0
3E0003E0
3E0001E0
7C0001F0
780000F0
780000F8
F8000078
F0000078
F0000078
F0000078
F0000078
F000007C
F000007C
F000007C
F0000078
F0000078
F0000078
F8000078
780000F8
780000F0
7C0001F0
3C0001F0
3E0003E0
1F0007C0
0F800FC0
0FE01F80
07FFFF00
03FFFE00
00FFFC00
007FF000
00030000
00060000
00070000
00070000
00070000
00078000
0007E000
0003FF00
0001FE00
0000FC00
ENDCHAR
STARTCHAR 01ED
ENCODING 493
SWIDTH 486 0
DWIDTH 27 0
BBX 21 43 3 -10
BITMAP
0FFF80
0FFF80
0FFF80
0FFF80
000000
000000
000000
000000
03FE00
07FF00
0FFF80
1FFFC0
3F03E0
7C01F0
7C00F0
F800F8
F00078
F00078
F00078
F00078
F00078
F00078
F00078
F00078
F00078
F800F8
7C00F0
7C01F0
3E03E0
1FFFC0
0FFFC0
07FF00
03FE00
007000
006000
006000
007000
007000
007800
007C00
003FF0
001FE0
000F80
ENDCHAR
STARTCHAR 01EE
ENCODING 494
SWIDTH 522 0
DWIDTH 29 0
BBX 24 48 3 -1
BITMAP
040060
0200C0
0301C0
018380
01E780
00FF00
00FF00
007E00
000000
000000
000000
FFFFFF
FFFFFF
FFFFFF
FFFFFF
00001F
00003E
00003E
00007C
0000F8
0001F0
0001F0
0003E0
0007C0
0007C0
000FC0
001FE0
001FF0
0023F8
0000FC
00003E
00001E
00001F
00000F
00000F
00000F
00000F
30000F
F0000F
F8001F
78003E
7C007E
3F00FC
1FFFF8
0FFFF0
07FFE0
01FF80
003000
ENDCHAR
STARTCHAR 01EF
ENCODING 495
SWIDTH 432 0
DWIDTH 24 0
BBX 19 47 3 -11
BITMAP
100100
180300
0C0600
0E0E00
071C00
07B800
03F800
03F000
000000
000000
000000
FFFFE0
FFFFE0
FFFFE0
FFFFE0
0007C0
0007C0
000F80
001F00
001F00
003E00
007C00
007C00
00F800
01F800
03FC00
03FF00
003F00
000F80
000780
0007C0
0003C0
0003C0
0001E0
0001E0
0001E0
0001E0
0003E0
0003C0
0003C0
0007C0
300F80
781F80
FFFF00
7FFE00
3FFC00
0FF000
ENDCHAR
STARTCHAR 01F0
ENCODING 496
SWIDTH 162 0
DWIDTH 9 0
BBX 17 47 -6 -11
BITMAP
080080
040180
060300
030700
038E00
01DE00
01FC00
00FC00
000000
000000
000000
007800
007800
007800
007800
007800
007800
007800
007800
007800
007800
007800
007800
007800
007800
007800
007800
007800
007800
007800
007800
007800
007800
007800
007800
007800
007800
007800
007800
007800
007800
00F800
01F000
3FF000
7FE000
FFC000
3F8000
ENDCHAR
STARTCHAR 01F1
ENCODING 497
SWIDTH 1170 0
DWIDTH 65 0
BBX 59 36 3 0
BITMAP
FFFF80001FFFFFE0
FFFFF0001FFFFFE0
FFFFFC001FFFFFE0
FFFFFE001FFFFFE0
0F00FF00000003E0
0F001F80000007E0
0F000FC0000007C0
0F0007E000000F80
0F0003E000001F00
0F0001F000001F00
0F0000F000003E00
0F0000F800007C00
0F0000F800007C00
0F0000780000F800
0F0000780001F000
0F0000780003F000
0F0000780003E000
0F00007C0007C000
0F00007C000F8000
0F00007C000F8000
0F000078001F0000
0F000078003E0000
0F000078003E0000
0F000078007C0000
0F0000F800F80000
0F0000F001F00000
0F0001F001F00000
0F0003E003E00000
0F0007E007C00000
0F000FC007C00000
0F001F800F800000
0F007F801F000000
FFFFFF001FFFFFE0
FFFFFC001FFFFFE0
FFFFF8001FFFFFE0
FFFFC0001FFFFFE0
ENDCHAR
STARTCHAR 01F2
ENCODING 498
SWIDTH 1026 0
DWIDTH 57 0
BBX 52 36 3 0
BITMAP
FFFF8000000000
FFFFF000000000
FFFFFC00000000
FFFFFE00000000
0F00FF00000000
0F001F80000000
0F000FC0000000
0F0007E0000000
0F0003E0000000
0F0001F0000000
0F0000F0000000
0F0000F81FFFF0
0F0000F81FFFF0
0F0000781FFFF0
0F0000781FFFF0
0F0000780003E0
0F0000780003E0
0F00007C0007C0
0F00007C000F80
0F00007C000F80
0F000078001F00
0F000078003E00
0F000078003E00
0F000078007C00
0F0000F800F800
0F0000F001F000
0F0001F001F000
0F0003E003E000
0F0007E007C000
0F000FC007C000
0F001F800F8000
0F007F801F0000
FFFFFF001FFFF0
FFFFFC001FFFF0
FFFFF8001FFFF0
FFFFC0001FFFF0
ENDCHAR
STARTCHAR 01F3
ENCODING 499
SWIDTH 882 0
DWIDTH 49 0
BBX 44 37 3 -1
BITMAP
000078000000
000078000000
000078000000
000078000000
000078000000
000078000000
000078000000
000078000000
000078000000
000078000000
000078000000
03FE781FFFF0
07FF781FFFF0
0FFFF81FFFF0
1FFFF81FFFF0
3F03F80003E0
7C01F80003E0
7C00F80007C0
F800F8000F80
F00078000F80
F00078001F00
F00078003E00
F00078007C00
F00078007C00
F0007800F800
F0007801F000
F0007801F000
F0007803E000
F800F807C000
7C00F807C000
7C01F80F8000
3E03F81F0000
1FFFF81FFFF0
0FFFF81FFFF0
07FF781FFFF0
03FE781FFFF0
002000000000
ENDCHAR
STARTCHAR 01F4
ENCODING 500
SWIDTH 576 0
DWIDTH 32 0
BBX 27 48 3 -1
BITMAP
0003F000
0003E000
0007C000
00078000
000F0000
000C0000
00180000
00100000
00000000
00000000
00000000
003FE000
00FFF800
01FFFE00
07FFFF00
07E03F80
0F800FC0
1F0007C0
3E0003E0
3E0001C0
7C000180
78000000
78000000
F8000000
F0000000
F0000000
F0000000
F0000000
F007FFE0
F007FFE0
F007FFE0
F007FFE0
F00001E0
F00001E0
F80001E0
780001E0
780001E0
7C0001E0
3C0001E0
3E0003E0
1F0007C0
0F800FC0
0FE01F80
07FFFF00
03FFFE00
00FFFC00
007FF000
00020000
ENDCHAR
STARTCHAR 01F5
ENCODING 501
SWIDTH 504 0
DWIDTH 28 0
BBX 25 47 3 -11
BITMAP
001F0000
001E0000
003C0000
00380000
00700000
00600000
00C00000
00800000
00000000
00000000
00000000
03FE0600
0FFF8F80
1FFFFF80
3FFFFF00
7E03FE00
F800F800
F8007800
F0007800
F0007800
F0007800
F0007800
F8007800
F800F800
7E03F000
3FFFF000
3FFFE000
7FFF8000
7BFE0000
F8000000
F8000000
7C000000
7FC00000
3FFF0000
0FFFE000
00FFF000
0003F800
0000F800
00007800
F0007800
F0007800
F800F800
7C01F800
7FFFF000
3FFFE000
1FFFC000
07FF0000
ENDCHAR
STARTCHAR 01F6
ENCODING 502
SWIDTH 810 0
DWIDTH 45 0
BBX 40 37 3 -1
BITMAP
F0003E0000
F0003E0000
F0003E0000
F0003E0000
F0003E0000
F0003E0000
F0003E0000
F0003E0000
F0003E0000
F0003E0000
F0003E0000
F0003E000F
F0003E000F
F0003E000F
F0003E000F
F0003E000F
FFFFFE000F
FFFFFE000F
FFFFFE000F
FFFFFE000F
F0003E000F
F0003E000F
F0003E000F
F0003E000F
F0003E000F
F0003E000F
F0001E000F
F0001E000F
F0001E001F
F0001F001E
F0000F803E
F0000FC07C
F00007FFFC
F00003FFF8
F00001FFF0
F000007FC0
0000000400
ENDCHAR
STARTCHAR 01F7
ENCODING 503
SWIDTH 432 0
DWIDTH 24 0
BBX 19 47 3 -11
BITMAP
F7F800
FFFE00
FFFF00
FFFF80
FC0FC0
F807C0
F003C0
F003E0
F001E0
F001E0
F001E0
F003C0
F003C0
F007C0
F00F80
F00F80
F01F00
F03E00
F0FC00
F1F800
F3F000
F7E000
FF8000
FF0000
FE0000
FE0000
FC0000
F80000
F80000
F00000
F00000
F00000
F00000
F00000
F00000
F00000
F00000
F00000
F00000
F00000
F00000
F00000
F00000
F00000
F00000
F00000
F00000
ENDCHAR
STARTCHAR 01F8
ENCODING 504
SWIDTH 594 0
DWIDTH 33 0
BBX 28 47 3 0
BITMAP
00F80000
00780000
003C0000
001C0000
000E0000
00060000
00030000
00018000
00000000
00000000
00000000
F00000F0
F80000F0
F80000F0
FC0000F0
FE0000F0
FF0000F0
FF0000F0
FF8000F0
F7C000F0
F7C000F0
F3E000F0
F1F000F0
F1F000F0
F0F800F0
F07C00F0
F03E00F0
F03E00F0
F01F00F0
F00F80F0
F00F80F0
F007C0F0
F003E0F0
F003E0F0
F001F0F0
F000F8F0
F0007CF0
F0007CF0
F0003EF0
F0001FF0
F0001FF0
F0000FF0
F00007F0
F00007F0
F00003F0
F00001F0
F00000F0
ENDCHAR
STARTCHAR 01F9
ENCODING 505
SWIDTH 486 0
DWIDTH 27 0
BBX 21 36 3 0
BITMAP
07C000
03C000
01E000
00E000
007000
003000
001800
000800
000000
000000
000000
F1FF00
F7FF80
FFFFC0
FFFFE0
FF01F0
FE01F0
FC00F0
F800F8
F80078
F00078
F00078
F00078
F00078
F00078
F00078
F00078
F00078
F00078
F00078
F00078
F00078
F00078
F00078
F00078
F00078
ENDCHAR
STARTCHAR 01FA
ENCODING 506
SWIDTH 630 0
DWIDTH 35 0
BBX 30 47 3 0
BITMAP
0000F000
0001E000
0003C000
00038000
00070000
00060000
000C0000
00078000
001FE000
001FE000
00387000
00387000
00387000
001CE000
001FE000
001FE000
001FE000
003FE000
003DF000
003CF000
007CF000
00787800
00787800
00F87C00
00F03C00
00F03C00
01F03E00
01E01E00
03E01E00
03C01F00
03FFFF00
07FFFF80
07FFFF80
07FFFF80
0F8007C0
0F0003C0
0F0003C0
1F0003E0
1E0001E0
3E0001E0
3C0001F0
3C0000F0
7C0000F8
78000078
78000078
F800007C
F000003C
ENDCHAR
STARTCHAR 01FB
ENCODING 507
SWIDTH 396 0
DWIDTH 22 0
BBX 17 46 3 -1
BITMAP
003E00
003C00
007800
00F000
00E000
01C000
018000
030000
000000
03F000
07F800
0F3800
0E1C00
0E1C00
0E3C00
07F800
07F000
01E000
000000
000000
07F000
1FFC00
3FFE00
3FFF00
0C1F00
000F80
000780
000780
000780
000780
07FF80
1FFF80
3FFF80
7FFF80
FC0780
F80780
F00780
F00780
F00780
F00F80
F81F80
7FFF80
3FFF80
1FFF80
0FFF80
008000
ENDCHAR
STARTCHAR 01FC
ENCODING 508
SWIDTH 720 0
DWIDTH 40 0
BBX 35 47 3 0
BITMAP
000007C000
00000F8000
00000F0000
00001E0000
00001C0000
0000380000
0000300000
0000600000
0000000000
0000000000
0000000000
0007FFFFE0
000FFFFFE0
000FFFFFE0
000FFFFFE0
001F3C0000
001E3C0000
003E3C0000
003C3C0000
003C3C0000
007C3C0000
00783C0000
00783C0000
00F83C0000
00F03C0000
00F03C0000
01F03C0000
01FFFFFF00
03FFFFFF00
03FFFFFF00
03FFFFFF00
07C03C0000
07803C0000
07803C0000
0F803C0000
0F003C0000
0F003C0000
1F003C0000
1E003C0000
3E003C0000
3C003C0000
3C003C0000
7C003C0000
78003FFFE0
78003FFFE0
F8003FFFE0
F0003FFFE0
ENDCHAR
STARTCHAR 01FD
ENCODING 509
SWIDTH 720 0
DWIDTH 40 0
BBX 34 37 3 -1
BITMAP
00003E0000
00007C0000
0000780000
0000F00000
0000E00000
0001C00000
0001800000
0003000000
0000000000
0000000000
0000000000
07F01FF000
1FFC3FF800
3FFE7FFE00
3FFFFFFE00
0C1FF01F00
000FE00F80
0007E00780
0007C007C0
0007C003C0
0007FFFFC0
07FFFFFFC0
1FFFFFFFC0
3FFFFFFFC0
7FFF800000
FC07800000
F807800000
F007800000
F007C00600
F007E00780
F00FE00F80
F81FF01F00
7FFFFFFE00
3FFE7FFE00
1FFC3FF800
0FF01FF000
0080030000
ENDCHAR
STARTCHAR 01FE
ENCODING 510
SWIDTH 630 0
DWIDTH 35 0
BBX 30 49 3 -2
BITMAP
0000F800
0001F000
0001E000
0003C000
00038000
00070000
000E0000
000C0000
00000000
00000020
00000078
003FE0F8
00FFF8F8
01FFFFF0
07FFFFE0
07E03FE0
0F800FC0
1F000FC0
3E000FE0
3E001FE0
7C003FF0
78007CF0
78007CF8
F800F878
F001F078
F001F078
F003E078
F007C07C
F007C07C
F00F807C
F01F007C
F03E0078
F03E0078
F07C0078
F8F80078
78F800F8
79F000F0
7FE001F0
3FE001F0
3FC003E0
1F8007C0
1F800FC0
1FE01F80
3FFFFF00
7FFFFE00
7CFFFC00
F87FF000
F0060000
30000000
ENDCHAR
STARTCHAR 01FF
ENCODING 511
SWIDTH 486 0
DWIDTH 27 0
BBX 23 39 2 -3
BITMAP
000FC0
000F80
001F00
001E00
003C00
003000
006000
004000
000008
00001E
00003E
01FF7C
03FFFC
07FFF8
0FFFF0
1F81F0
3E03F8
3E07F8
7C07FC
780FBC
781F3C
783E3C
783E3C
787C3C
78F83C
78F83C
79F03C
7BE03C
7FE07C
3FC078
3F80F8
1F01F0
1FFFE0
3FFFE0
7FFF80
7DFF00
F81000
F00000
300000
ENDCHAR
STARTCHAR 0200
ENCODING 512
SWIDTH 630 0
DWIDTH 35 0
BBX 30 47 3 0
BITMAP
1F1F0000
0F0F8000
07878000
03C3C000
01C1C000
00E0E000
00606000
00303000
00000000
00000000
00000000
00078000
000FC000
000FC000
000FC000
001FE000
001FE000
003FE000
003DF000
003CF000
007CF800
00787800
00787800
00F87C00
00F03C00
00F03C00
01F03E00
01E01E00
03E01E00
03C01F00
03FFFF00
07FFFF80
07FFFF80
07FFFF80
0F8007C0
0F0003C0
0F0003C0
1F0003E0
1E0001E0
3E0001E0
3C0001F0
3C0000F0
7C0000F8
78000078
78000078
F800007C
F000003C
ENDCHAR
STARTCHAR 0201
ENCODING 513
SWIDTH 396 0
DWIDTH 22 0
BBX 19 37 1 -1
BITMAP
F8F800
787800
3C3C00
1C1C00
0E0E00
060600
030300
010100
000000
000000
000000
01FC00
07FF00
0FFF80
0FFFC0
0307C0
0003E0
0001E0
0001E0
0001E0
0001E0
01FFE0
07FFE0
0FFFE0
1FFFE0
3F01E0
3E01E0
3C01E0
3C01E0
3C01E0
3C03E0
3E07E0
1FFFE0
0FFFE0
07FFE0
03FFE0
002000
ENDCHAR
STARTCHAR 0202
ENCODING 514
SWIDTH 630 0
DWIDTH 35 0
BBX 30 47 3 0
BITMAP
00078000
001FE000
003FF000
007FF800
00F03C00
00E01C00
01E01C00
01E01E00
00000000
00000000
00000000
00078000
000FC000
000FC000
000FC000
001FE000
001FE000
003FE000
003DF000
003CF000
007CF800
00787800
00787800
00F87C00
00F03C00
00F03C00
01F03E00
01E01E00
03E01E00
03C01F00
03FFFF00
07FFFF80
07FFFF80
07FFFF80
0F8007C0
0F0003C0
0F0003C0
1F0003E0
1E0001E0
3E0001E0
3C0001F0
3C0000F0
7C0000F8
78000078
78000078
F800007C
F000003C
ENDCHAR
STARTCHAR 0203
ENCODING 515
SWIDTH 396 0
DWIDTH 22 0
BBX 17 37 3 -1
BITMAP
03C000
0FF800
1FFC00
3F7E00
781E00
700F00
700F00
700700
000000
000000
000000
07F000
1FFC00
3FFE00
3FFF00
0C1F00
000F80
000780
000780
000780
000780
07FF80
1FFF80
3FFF80
7FFF80
FC0780
F80780
F00780
F00780
F00780
F00F80
F81F80
7FFF80
3FFF80
1FFF80
0FFF80
008000
ENDCHAR
STARTCHAR 0204
ENCODING 516
SWIDTH 504 0
DWIDTH 28 0
BBX 23 47 3 0
BITMAP
F8F800
787C00
3C3C00
1C1E00
0E0E00
070700
030300
018180
000000
000000
000000
FFFFFE
FFFFFE
FFFFFE
FFFFFE
F00000
F00000
F00000
F00000
F00000
F00000
F00000
F00000
F00000
F00000
F00000
F00000
FFFFE0
FFFFE0
FFFFE0
FFFFE0
F00000
F00000
F00000
F00000
F00000
F00000
F00000
F00000
F00000
F00000
F00000
F00000
FFFFFE
FFFFFE
FFFFFE
FFFFFE
ENDCHAR
STARTCHAR 0205
ENCODING 517
SWIDTH 486 0
DWIDTH 27 0
BBX 21 37 3 -1
BITMAP
3E3E00
1E1F00
0F0F00
070780
038380
01C1C0
00C0C0
006060
000000
000000
000000
03FE00
07FF00
0FFF80
1FFFC0
3E03E0
7C01F0
7C00F0
F800F8
F00078
FFFFF8
FFFFF8
FFFFF8
FFFFF8
F00000
F00000
F00000
F00000
F800C0
7C00F0
7C01F0
3E03E0
1FFFC0
0FFFC0
07FF00
03FE00
002000
ENDCHAR
STARTCHAR 0206
ENCODING 518
SWIDTH 504 0
DWIDTH 28 0
BBX 23 47 3 0
BITMAP
007800
01FE00
03FF00
07FF80
0F03C0
0E01C0
0E01E0
0E01E0
000000
000000
000000
FFFFFE
FFFFFE
FFFFFE
FFFFFE
F00000
F00000
F00000
F00000
F00000
F00000
F00000
F00000
F00000
F00000
F00000
F00000
FFFFE0
FFFFE0
FFFFE0
FFFFE0
F00000
F00000
F00000
F00000
F00000
F00000
F00000
F00000
F00000
F00000
F00000
F00000
FFFFFE
FFFFFE
FFFFFE
FFFFFE
ENDCHAR
STARTCHAR 0207
ENCODING 519
SWIDTH 486 0
DWIDTH 27 0
BBX 21 37 3 -1
BITMAP
00F800
03FE00
07FF00
0FDF80
0F0380
1E03C0
1C01C0
1C01C0
000000
000000
000000
03FE00
07FF00
0FFF80
1FFFC0
3E03E0
7C01F0
7C00F0
F800F8
F00078
FFFFF8
FFFFF8
FFFFF8
FFFFF8
F00000
F00000
F00000
F00000
F800C0
7C00F0
7C01F0
3E03E0
1FFFC0
0FFFC0
07FF00
03FE00
002000
ENDCHAR
STARTCHAR 0208
ENCODING 520
SWIDTH 306 0
DWIDTH 17 0
BBX 17 47 -2 0
BITMAP
F8F800
787C00
3C3C00
1C1E00
0E0E00
070700
030300
018180
000000
000000
000000
07FF80
07FF80
07FF80
07FF80
007800
007800
007800
007800
007800
007800
007800
007800
007800
007800
007800
007800
007800
007800
007800
007800
007800
007800
007800
007800
007800
007800
007800
007800
007800
007800
007800
007800
07FF80
07FF80
07FF80
07FF80
ENDCHAR
STARTCHAR 0209
ENCODING 521
SWIDTH 162 0
DWIDTH 9 0
BBX 16 36 -6 0
BITMAP
F8F8
7878
3C3C
1C1C
0E0E
0606
0303
0101
0000
0000
0000
0078
0078
0078
0078
0078
0078
0078
0078
0078
0078
0078
0078
0078
0078
0078
0078
0078
0078
0078
0078
0078
0078
0078
0078
0078
ENDCHAR
STARTCHAR 020A
ENCODING 522
SWIDTH 306 0
DWIDTH 17 0
BBX 15 47 1 0
BITMAP
0380
0FF0
3FF8
3FFC
781E
700E
F00E
E00E
0000
0000
0000
3FFC
3FFC
3FFC
3FFC
03C0
03C0
03C0
03C0
03C0
03C0
03C0
03C0
03C0
03C0
03C0
03C0
03C0
03C0
03C0
03C0
03C0
03C0
03C0
03C0
03C0
03C0
03C0
03C0
03C0
03C0
03C0
03C0
3FFC
3FFC
3FFC
3FFC
ENDCHAR
STARTCHAR 020B
ENCODING 523
SWIDTH 162 0
DWIDTH 9 0
BBX 15 36 -3 0
BITMAP
03C0
1FF0
3FF8
7EFC
781E
F00E
F00E
E00E
0000
0000
0000
03C0
03C0
03C0
03C0
03C0
03C0
03C0
03C0
03C0
03C0
03C0
03C0
03C0
03C0
03C0
03C0
03C0
03C0
03C0
03C0
03C0
03C0
03C0
03C0
03C0
ENDCHAR
STARTCHAR 020C
ENCODING 524
SWIDTH 630 0
DWIDTH 35 0
BBX 30 48 3 -1
BITMAP
1F1F0000
0F0F8000
07878000
0383C000
01C1C000
00E0E000
00606000
00303000
00000000
00000000
00000000
003FE000
00FFF800
01FFFE00
07FFFF00
07E03F80
0F800FC0
1F0007C0
3E0003E0
3E0001E0
7C0001F0
780000F0
780000F8
F8000078
F0000078
F0000078
F0000078
F0000078
F000007C
F000007C
F000007C
F0000078
F0000078
F0000078
F8000078
780000F8
780000F0
7C0001F0
3C0001F0
3E0003E0
1F0007C0
0F800FC0
0FE01F80
07FFFF00
03FFFE00
00FFFC00
007FF000
00020000
ENDCHAR
STARTCHAR 020D
ENCODING 525
SWIDTH 486 0
DWIDTH 27 0
BBX 21 37 3 -1
BITMAP
F8F800
7C7C00
3C3C00
1E1E00
0E0E00
070700
030300
018180
000000
000000
000000
03FE00
07FF00
0FFF80
1FFFC0
3F03E0
7C01F0
7C00F0
F800F8
F00078
F00078
F00078
F00078
F00078
F00078
F00078
F00078
F00078
F800F8
7C00F0
7C01F0
3E03E0
1FFFC0
0FFFC0
07FF00
03FE00
002000
ENDCHAR
STARTCHAR 020E
ENCODING 526
SWIDTH 630 0
DWIDTH 35 0
BBX 30 48 3 -1
BITMAP
00070000
001FE000
007FF000
00FFF800
00F03800
01E03C00
01C01C00
01C01C00
00000000
00000000
00000000
003FE000
00FFF800
01FFFE00
07FFFF00
07E03F80
0F800FC0
1F0007C0
3E0003E0
3E0001E0
7C0001F0
780000F0
780000F8
F8000078
F0000078
F0000078
F0000078
F0000078
F000007C
F000007C
F000007C
F0000078
F0000078
F0000078
F8000078
780000F8
780000F0
7C0001F0
3C0001F0
3E0003E0
1F0007C0
0F800FC0
0FE01F80
07FFFF00
03FFFE00
00FFFC00
007FF000
00020000
ENDCHAR
STARTCHAR 020F
ENCODING 527
SWIDTH 486 0
DWIDTH 27 0
BBX 21 37 3 -1
BITMAP
00F800
03FE00
07FF00
0FDF80
0F0380
1E03C0
1C01C0
1C01C0
000000
000000
000000
03FE00
07FF00
0FFF80
1FFFC0
3F03E0
7C01F0
7C00F0
F800F8
F00078
F00078
F00078
F00078
F00078
F00078
F00078
F00078
F00078
F800F8
7C00F0
7C01F0
3E03E0
1FFFC0
0FFFC0
07FF00
03FE00
002000
ENDCHAR
STARTCHAR 0210
ENCODING 528
SWIDTH 522 0
DWIDTH 29 0
BBX 26 47 1 0
BITMAP
FC7C0000
7C3C0000
3E1E0000
1E0E0000
0F070000
07030000
03818000
00808000
00000000
00000000
00000000
3FFE0000
3FFFC000
3FFFE000
3FFFF000
3C03F800
3C00FC00
3C003C00
3C003E00
3C001E00
3C001E00
3C001E00
3C001E00
3C001E00
3C003E00
3C007C00
3C00FC00
3FFFF800
3FFFF000
3FFFE000
3FFF8000
3FFF8000
3C07C000
3C03C000
3C03E000
3C01F000
3C01F000
3C00F800
3C007800
3C007C00
3C003C00
3C003E00
3C001F00
3C001F00
3C000F80
3C000780
3C0007C0
ENDCHAR
STARTCHAR 0211
ENCODING 529
SWIDTH 324 0
DWIDTH 18 0
BBX 18 36 -2 0
BITMAP
F8FC00
7C7C00
3C3E00
1E1E00
0E0F00
070300
038180
018080
000000
000000
000000
078FC0
07BFC0
07FFC0
07FF80
07F800
07F000
07E000
07C000
07C000
078000
078000
078000
078000
078000
078000
078000
078000
078000
078000
078000
078000
078000
078000
078000
078000
ENDCHAR
STARTCHAR 0212
ENCODING 530
SWIDTH 522 0
DWIDTH 29 0
BBX 24 47 3 0
BITMAP
00E000
07F800
0FFE00
1FFE00
3C0F00
380700
380780
380380
000000
000000
000000
FFF800
FFFF00
FFFF80
FFFFC0
F00FE0
F003F0
F000F0
F000F8
F00078
F00078
F00078
F00078
F00078
F000F8
F001F0
F003F0
FFFFE0
FFFFC0
FFFF80
FFFE00
FFFE00
F01F00
F00F00
F00F80
F007C0
F007C0
F003E0
F001E0
F001F0
F000F0
F000F8
F0007C
F0007C
F0003E
F0001E
F0001F
ENDCHAR
STARTCHAR 0213
ENCODING 531
SWIDTH 324 0
DWIDTH 18 0
BBX 15 36 2 0
BITMAP
07C0
1FF0
3FF8
7EFC
701C
F01E
E00E
E00E
0000
0000
0000
78FC
7BFC
7FFC
7FF8
7F80
7F00
7E00
7C00
7C00
7800
7800
7800
7800
7800
7800
7800
7800
7800
7800
7800
7800
7800
7800
7800
7800
ENDCHAR
STARTCHAR 0214
ENCODING 532
SWIDTH 576 0
DWIDTH 32 0
BBX 27 48 3 -1
BITMAP
3F1F0000
1F0F0000
0F878000
03838000
01C1C000
00C0C000
00606000
00202000
00000000
00000000
00000000
F00001E0
F00001E0
F00001E0
F00001E0
F00001E0
F00001E0
F00001E0
F00001E0
F00001E0
F00001E0
F00001E0
F00001E0
F00001E0
F00001E0
F00001E0
F00001E0
F00001E0
F00001E0
F00001E0
F00001E0
F00001E0
F00001E0
F00001E0
F00001E0
F00001E0
F00003E0
F00003C0
F80003C0
7C0007C0
7C000F80
3E001F80
1F807F00
0FFFFE00
07FFFC00
03FFF000
00FFE000
00040000
ENDCHAR
STARTCHAR 0215
ENCODING 533
SWIDTH 486 0
DWIDTH 27 0
BBX 21 37 3 -1
BITMAP
F8F800
7C7C00
3C3C00
1E1E00
0E0E00
070700
030300
018180
000000
000000
000000
F00078
F00078
F00078
F00078
F00078
F00078
F00078
F00078
F00078
F00078
F00078
F00078
F00078
F00078
F00078
F00078
F000F8
F800F8
7801F8
7C03F8
7E07F8
3FFFF8
1FFFF8
0FFF78
07FC78
004000
ENDCHAR
STARTCHAR 0216
ENCODING 534
SWIDTH 576 0
DWIDTH 32 0
BBX 27 48 3 -1
BITMAP
000E0000
007F8000
00FFE000
01FFE000
03C0F000
03C07000
03807800
03803800
00000000
00000000
00000000
F00001E0
F00001E0
F00001E0
F00001E0
F00001E0
F00001E0
F00001E0
F00001E0
F00001E0
F00001E0
F00001E0
F00001E0
F00001E0
F00001E0
F00001E0
F00001E0
F00001E0
F00001E0
F00001E0
F00001E0
F00001E0
F00001E0
F00001E0
F00001E0
F00001E0
F00003E0
F00003C0
F80003C0
7C0007C0
7C000F80
3E001F80
1F807F00
0FFFFE00
07FFFC00
03FFF000
00FFE000
00040000
ENDCHAR
STARTCHAR 0217
ENCODING 535
SWIDTH 486 0
DWIDTH 27 0
BBX 21 37 3 -1
BITMAP
00F800
03FE00
07FF00
0FDF80
0F0380
1E03C0
1C01C0
1C01C0
000000
000000
000000
F00078
F00078
F00078
F00078
F00078
F00078
F00078
F00078
F00078
F00078
F00078
F00078
F00078
F00078
F00078
F00078
F000F8
F800F8
7801F8
7C03F8
7E07F8
3FFFF8
1FFFF8
0FFF78
07FC78
004000
ENDCHAR
STARTCHAR 0218
ENCODING 536
SWIDTH 486 0
DWIDTH 27 0
BBX 21 53 3 -17
BITMAP
03FE00
07FF00
0FFF80
1FFFC0
3F07E0
3C01E0
7C01F0
7800F0
7800F0
780000
780000
7C0000
3E0000
3F0000
1F8000
0FE000
07FC00
03FF00
00FF80
001FC0
000FE0
0003F0
0001F8
0000F8
000078
000078
F00078
F00078
F00078
F800F8
7C00F8
7E03F0
3FFFE0
1FFFC0
0FFF80
03FF00
002000
000000
000000
00F000
01F800
01FC00
01FC00
00FE00
006E00
000E00
000C00
000C00
001800
001800
003000
00E000
018000
ENDCHAR
STARTCHAR 0219
ENCODING 537
SWIDTH 378 0
DWIDTH 21 0
BBX 16 42 3 -16
BITMAP
0FF0
1FF8
3FFC
7FFE
783E
F81E
F000
7800
7C00
7F00
3FC0
0FF0
03FC
00FE
003E
001F
000F
F00F
F00F
F01F
F83E
7FFE
7FFC
3FF8
0FF0
0100
0000
0000
07C0
07E0
0FE0
0FF0
07F0
03F0
0030
0030
0060
0060
00C0
0180
0300
0C00
ENDCHAR
STARTCHAR 021A
ENCODING 538
SWIDTH 504 0
DWIDTH 28 0
BBX 23 53 3 -17
BITMAP
FFFFFE
FFFFFE
FFFFFE
FFFFFE
007800
007800
007800
007800
007800
007800
007800
007800
007800
007800
007800
007800
007800
007800
007800
007800
007800
007800
007800
007800
007800
007800
007800
007800
007800
007800
007800
007800
007800
007800
007800
007800
000000
000000
000000
007800
00FC00
00FE00
00FE00
00FE00
003600
000600
000600
000E00
000C00
001800
003000
006000
01C000
ENDCHAR
STARTCHAR 021B
ENCODING 539
SWIDTH 324 0
DWIDTH 18 0
BBX 13 49 3 -17
BITMAP
0080
0180
0780
0780
0780
0780
0780
FFF8
FFF8
FFF8
FFF8
0780
0780
0780
0780
0780
0780
0780
0780
0780
0780
0780
0780
0780
0780
0780
0780
0780
07F8
07F8
07F8
03F8
0000
0000
0000
0F00
1F80
1FC0
1FC0
0FC0
06E0
00C0
00C0
00C0
0180
0180
0300
0E00
3800
ENDCHAR
STARTCHAR 021C
ENCODING 540
SWIDTH 468 0
DWIDTH 26 0
BBX 21 37 3 -1
BITMAP
07FE00
1FFF80
3FFFC0
7FFFE0
FC03F0
F801F0
3000F8
000078
000078
000078
000078
000078
0000F8
0000F0
0001F0
0007E0
000FC0
007FE0
3FFFF0
3FFFF0
3FF8F8
3FC078
000078
000078
000078
000078
0000F8
0000F0
0001F0
0003E0
000FC0
007F80
3FFF00
3FFE00
3FF800
3FC000
200000
ENDCHAR
STARTCHAR 021D
ENCODING 541
SWIDTH 468 0
DWIDTH 26 0
BBX 21 36 3 -10
BITMAP
07FE00
1FFF80
3FFFC0
7FFFE0
FC03F0
F800F0
3000F8
000078
000078
000078
000078
000078
0000F8
0000F0
0001F0
0007E0
001FC0
00FFE0
3FFFF0
3FFDF0
3FF0F8
3F8078
000078
000078
000078
000078
0000F8
0000F0
0001F0
0007E0
000FC0
007F80
3FFF00
3FFE00
3FF000
3FC000
ENDCHAR
STARTCHAR 021E
ENCODING 542
SWIDTH 504 0
DWIDTH 28 0
BBX 23 47 3 0
BITMAP
0C0040
060080
070180
038300
03C700
01FE00
01FE00
00FC00
000000
000000
000000
F0003E
F0003E
F0003E
F0003E
F0003E
F0003E
F0003E
F0003E
F0003E
F0003E
F0003E
F0003E
F0003E
F0003E
F0003E
F0003E
FFFFFE
FFFFFE
FFFFFE
FFFFFE
F0003E
F0003E
F0003E
F0003E
F0003E
F0003E
F0003E
F0003E
F0003E
F0003E
F0003E
F0003E
F0003E
F0003E
F0003E
F0003E
ENDCHAR
STARTCHAR 021F
ENCODING 543
SWIDTH 486 0
DWIDTH 27 0
BBX 21 47 3 0
BITMAP
080080
0C0180
060300
070700
038E00
03DE00
01FC00
01FC00
000000
000000
000000
F00000
F00000
F00000
F00000
F00000
F00000
F00000
F00000
F00000
F00000
F00000
F1FF00
F7FF80
FFFFC0
FFFFE0
FF01F0
FE01F0
FC00F0
F800F8
F80078
F00078
F00078
F00078
F00078
F00078
F00078
F00078
F00078
F00078
F00078
F00078
F00078
F00078
F00078
F00078
F00078
ENDCHAR
STARTCHAR 0220
ENCODING 544
SWIDTH 576 0
DWIDTH 32 0
BBX 27 47 3 -11
BITMAP
F0FFC000
F3FFF000
F7FFFC00
FFFFFE00
FF807F00
FF001F00
FE000F80
FC0007C0
F80003C0
F80003C0
F00003E0
F00001E0
F00001E0
F00001E0
F00001E0
F00001E0
F00001E0
F00001E0
F00001E0
F00001E0
F00001E0
F00001E0
F00001E0
F00001E0
F00001E0
F00001E0
F00001E0
F00001E0
F00001E0
F00001E0
F00001E0
F00001E0
F00001E0
F00001E0
F00001E0
F00001E0
000001E0
000001E0
000001E0
000001E0
000001E0
000001E0
000001E0
000001E0
000001E0
000001E0
000001E0
ENDCHAR
STARTCHAR 0221
ENCODING 545
SWIDTH 684 0
DWIDTH 38 0
BBX 33 47 3 -11
BITMAP
0000780000
0000780000
0000780000
0000780000
0000780000
0000780000
0000780000
0000780000
0000780000
0000780000
0000780000
03FE780000
07FF780000
0FFFF80000
1FFFF80000
3F03F80000
7C01F80000
7C00F80000
F800F80000
F000780000
F000780000
F000780000
F000780000
F000780000
F000780180
F000780780
F000780C80
F000781880
F800F81980
7C00F83180
7C01F83300
3E03FC3700
1FFFFC3E00
0FFFFF7C00
07FF3FF800
03FE0FF000
0030006000
0000006000
0000006000
0000006000
0000006000
0000604000
0000E0C000
0000E0C000
0000E08000
0000730000
00003E0000
ENDCHAR
STARTCHAR 0222
ENCODING 546
SWIDTH 486 0
DWIDTH 27 0
BBX 21 37 3 -1
BITMAP
F00078
F00078
F00078
F00078
F00078
F00078
F800F8
7C00F0
7C01F0
3E03E0
1FFFC0
0FFFC0
07FF00
0FFFC0
1FFFC0
3F03E0
7C01F0
7C00F0
F800F8
F00078
F00078
F00078
F00078
F00078
F00078
F00078
F00078
F00078
F800F8
7C00F0
7C01F0
3E03E0
1FFFC0
0FFFC0
07FF00
03FE00
002000
ENDCHAR
STARTCHAR 0223
ENCODING 547
SWIDTH 432 0
DWIDTH 24 0
BBX 19 37 3 -1
BITMAP
7807C0
F803C0
F003C0
F003E0
F001E0
F001E0
F001E0
F003E0
F003C0
F803C0
7807C0
7C0780
3E0F80
3FFF00
1FFE00
0FFE00
1FFF00
3F3F80
7C0F80
7807C0
F803C0
F003C0
F003E0
F001E0
F001E0
F001E0
F003E0
F003C0
F003C0
F807C0
7C07C0
7E0F80
3FFF00
1FFF00
0FFE00
07F800
004000
ENDCHAR
STARTCHAR 0224
ENCODING 548
SWIDTH 522 0
DWIDTH 29 0
BBX 24 47 3 -11
BITMAP
FFFFFF
FFFFFF
FFFFFF
FFFFFF
00001F
00003E
00003E
00007C
0000F8
0001F0
0001F0
0003E0
0007C0
0007C0
000F80
001F00
001F00
003E00
007C00
00F800
00F800
01F000
03E000
03E000
07C000
0F8000
0F8000
1F0000
3E0000
7C0000
7C0000
F80000
FFFFFF
FFFFFF
FFFFFF
FFFFFF
00000F
00000F
00000F
00000F
00000F
00000F
00001F
0007FE
000FFE
000FFC
0007F0
ENDCHAR
STARTCHAR 0225
ENCODING 549
SWIDTH 396 0
DWIDTH 22 0
BBX 17 36 3 -11
BITMAP
FFFF80
FFFF80
FFFF80
FFFF80
001F00
001F00
003E00
007C00
00F800
00F800
01F000
03E000
03E000
07C000
0F8000
0F8000
1F0000
3E0000
7C0000
7C0000
F80000
FFFF80
FFFF80
FFFF80
FFFF80
000F80
000F80
000F80
000F80
000F00
000F00
001F00
03FF00
07FE00
0FFC00
07F800
ENDCHAR
STARTCHAR 0226
ENCODING 550
SWIDTH 630 0
DWIDTH 35 0
BBX 30 46 3 0
BITMAP
00020000
00078000
000FC000
000FC000
000FC000
00078000
00000000
00000000
00000000
00000000
00078000
000FC000
000FC000
000FC000
001FE000
001FE000
003FE000
003DF000
003CF000
007CF800
00787800
00787800
00F87C00
00F03C00
00F03C00
01F03E00
01E01E00
03E01E00
03C01F00
03FFFF00
07FFFF80
07FFFF80
07FFFF80
0F8007C0
0F0003C0
0F0003C0
1F0003E0
1E0001E0
3E0001E0
3C0001F0
3C0000F0
7C0000F8
78000078
78000078
F800007C
F000003C
ENDCHAR
STARTCHAR 0227
ENCODING 551
SWIDTH 396 0
DWIDTH 22 0
BBX 17 36 3 -1
BITMAP
018000
03E000
07E000
07E000
03E000
03C000
000000
000000
000000
000000
07F000
1FFC00
3FFE00
3FFF00
0C1F00
000F80
000780
000780
000780
000780
07FF80
1FFF80
3FFF80
7FFF80
FC0780
F80780
F00780
F00780
F00780
F00F80
F81F80
7FFF80
3FFF80
1FFF80
0FFF80
008000
ENDCHAR
STARTCHAR 0228
ENCODING 552
SWIDTH 504 0
DWIDTH 28 0
BBX 23 47 3 -11
BITMAP
FFFFFE
FFFFFE
FFFFFE
FFFFFE
F00000
F00000
F00000
F00000
F00000
F00000
F00000
F00000
F00000
F00000
F00000
F00000
FFFFE0
FFFFE0
FFFFE0
FFFFE0
F00000
F00000
F00000
F00000
F00000
F00000
F00000
F00000
F00000
F00000
F00000
F00000
FFFFFE
FFFFFE
FFFFFE
FFFFFE
003800
003800
007E00
007F00
000780
000380
000180
000380
018F80
01FF00
01FC00
ENDCHAR
STARTCHAR 0229
ENCODING 553
SWIDTH 486 0
DWIDTH 27 0
BBX 21 36 3 -10
BITMAP
03FE00
07FF00
0FFF80
1FFFC0
3E03E0
7C01F0
7C00F0
F800F8
F00078
FFFFF8
FFFFF8
FFFFF8
FFFFF8
F00000
F00000
F00000
F00000
F800C0
7C00F0
7C01F0
3E03E0
1FFFC0
0FFFC0
07FF00
03FE00
007000
007000
00FC00
00FE00
000F00
000700
000300
000700
031F00
03FE00
03F800
ENDCHAR
STARTCHAR 022A
ENCODING 554
SWIDTH 630 0
DWIDTH 35 0
BBX 30 48 3 -1
BITMAP
00FFF800
00FFF800
00FFF800
00FFF800
00000000
00F03800
01F87C00
01F8FC00
01F8FC00
01F87C00
00F03800
003FE000
00FFF800
01FFFE00
07FFFF00
07E03F80
0F800FC0
1F0007C0
3E0003E0
3E0001E0
7C0001F0
780000F0
780000F8
F8000078
F0000078
F0000078
F0000078
F0000078
F000007C
F000007C
F000007C
F0000078
F0000078
F0000078
F8000078
780000F8
780000F0
7C0001F0
3C0001F0
3E0003E0
1F0007C0
0F800FC0
0FE01F80
07FFFF00
03FFFE00
00FFFC00
007FF000
00020000
ENDCHAR
STARTCHAR 022B
ENCODING 555
SWIDTH 486 0
DWIDTH 27 0
BBX 21 43 3 -1
BITMAP
0FFF80
0FFF80
0FFF80
0FFF80
000000
000000
000000
060300
0F07C0
1F8FC0
1F8FC0
1F8FC0
0F0780
000000
000000
000000
000000
03FE00
07FF00
0FFF80
1FFFC0
3F03E0
7C01F0
7C00F0
F800F8
F00078
F00078
F00078
F00078
F00078
F00078
F00078
F00078
F00078
F800F8
7C00F0
7C01F0
3E03E0
1FFFC0
0FFFC0
07FF00
03FE00
002000
ENDCHAR
STARTCHAR 022C
ENCODING 556
SWIDTH 630 0
DWIDTH 35 0
BBX 30 48 3 -1
BITMAP
00FFF800
00FFF800
00FFF800
00FFF800
01F80300
03FE0300
03FF0700
070FFE00
0703FE00
0700FC00
00000000
003FE000
00FFF800
01FFFE00
07FFFF00
07E03F80
0F800FC0
1F0007C0
3E0003E0
3E0001E0
7C0001F0
780000F0
780000F8
F8000078
F0000078
F0000078
F0000078
F0000078
F000007C
F000007C
F000007C
F0000078
F0000078
F0000078
F8000078
780000F8
780000F0
7C0001F0
3C0001F0
3E0003E0
1F0007C0
0F800FC0
0FE01F80
07FFFF00
03FFFE00
00FFFC00
007FF000
00020000
ENDCHAR
STARTCHAR 022D
ENCODING 557
SWIDTH 486 0
DWIDTH 27 0
BBX 21 44 3 -1
BITMAP
0FFF80
0FFF80
0FFF80
0FFF80
0FFF80
000000
000000
000000
0F0030
3FC070
3FF070
70FEE0
703FE0
701FC0
600100
000000
000000
000000
03FE00
07FF00
0FFF80
1FFFC0
3F03E0
7C01F0
7C00F0
F800F8
F00078
F00078
F00078
F00078
F00078
F00078
F00078
F00078
F00078
F800F8
7C00F0
7C01F0
3E03E0
1FFFC0
0FFFC0
07FF00
03FE00
002000
ENDCHAR
STARTCHAR 022E
ENCODING 558
SWIDTH 630 0
DWIDTH 35 0
BBX 30 47 3 -1
BITMAP
00020000
000F8000
000FC000
000FC000
000F8000
00078000
00000000
00000000
00000000
00000000
003FE000
00FFF800
01FFFE00
07FFFF00
07E03F80
0F800FC0
1F0007C0
3E0003E0
3E0001E0
7C0001F0
780000F0
780000F8
F8000078
F0000078
F0000078
F0000078
F0000078
F000007C
F000007C
F000007C
F0000078
F0000078
F0000078
F8000078
780000F8
780000F0
7C0001F0
3C0001F0
3E0003E0
1F0007C0
0F800FC0
0FE01F80
07FFFF00
03FFFE00
00FFFC00
007FF000
00020000
ENDCHAR
STARTCHAR 022F
ENCODING 559
SWIDTH 486 0
DWIDTH 27 0
BBX 21 36 3 -1
BITMAP
007000
00F800
00F800
00FC00
00F800
007800
000000
000000
000000
000000
03FE00
07FF00
0FFF80
1FFFC0
3F03E0
7C01F0
7C00F0
F800F8
F00078
F00078
F00078
F00078
F00078
F00078
F00078
F00078
F00078
F800F8
7C00F0
7C01F0
3E03E0
1FFFC0
0FFFC0
07FF00
03FE00
002000
ENDCHAR
STARTCHAR 0230
ENCODING 560
SWIDTH 630 0
DWIDTH 35 0
BBX 30 48 3 -1
BITMAP
00FFF800
00FFF800
00FFF800
00FFF800
00070000
000F8000
000FC000
000FC000
000F8000
00070000
00000000
003FE000
00FFF800
01FFFE00
07FFFF00
07E03F80
0F800FC0
1F0007C0
3E0003E0
3E0001E0
7C0001F0
780000F0
780000F8
F8000078
F0000078
F0000078
F0000078
F0000078
F000007C
F000007C
F000007C
F0000078
F0000078
F0000078
F8000078
780000F8
780000F0
7C0001F0
3C0001F0
3E0003E0
1F0007C0
0F800FC0
0FE01F80
07FFFF00
03FFFE00
00FFFC00
007FF000
00020000
ENDCHAR
STARTCHAR 0231
ENCODING 561
SWIDTH 486 0
DWIDTH 27 0
BBX 21 43 3 -1
BITMAP
0FFF80
0FFF80
0FFF80
0FFF80
000000
000000
000000
007000
00F800
00F800
00FC00
00F800
007800
000000
000000
000000
000000
03FE00
07FF00
0FFF80
1FFFC0
3F03E0
7C01F0
7C00F0
F800F8
F00078
F00078
F00078
F00078
F00078
F00078
F00078
F00078
F00078
F800F8
7C00F0
7C01F0
3E03E0
1FFFC0
0FFFC0
07FF00
03FE00
002000
ENDCHAR
STARTCHAR 0232
ENCODING 562
SWIDTH 630 0
DWIDTH 35 0
BBX 30 44 3 0
BITMAP
00FFFC00
00FFFC00
00FFFC00
00FFFC00
00000000
00000000
00000000
00000000
F800007C
7C0000F8
7C0001F0
3E0003E0
1F0003E0
1F0007C0
0F800F80
07C00F80
03E01F00
03E03E00
01F03E00
00F87C00
00F8F800
007DF000
003FF000
003FE000
001FC000
000FC000
00078000
00078000
00078000
00078000
00078000
00078000
00078000
00078000
00078000
00078000
00078000
00078000
00078000
00078000
00078000
00078000
00078000
00078000
ENDCHAR
STARTCHAR 0233
ENCODING 563
SWIDTH 486 0
DWIDTH 27 0
BBX 22 44 3 -11
BITMAP
0FFFC0
0FFFC0
0FFFC0
0FFFC0
000000
000000
000000
000000
F0003C
F8007C
780078
780078
7C00F8
3C00F0
3C01F0
3E01E0
1E01E0
1E03E0
0F03C0
0F03C0
0F87C0
078780
078780
07CF80
03CF00
03DF00
03FE00
01FE00
01FE00
00FC00
00FC00
00FC00
007800
007800
00F800
00F000
00F000
01E000
01E000
03E000
3FC000
3FC000
3F8000
7E0000
ENDCHAR
STARTCHAR 0234
ENCODING 564
SWIDTH 378 0
DWIDTH 21 0
BBX 18 47 1 -11
BITMAP
3C0000
3C0000
3C0000
3C0000
3C0000
3C0000
3C0000
3C0000
3C0000
3C0000
3C0000
3C0000
3C0000
3C0000
3C0000
3C0000
3C0000
3C0000
3C0000
3C0000
3C0000
3C0000
3C0000
3C0000
3C0080
3C03C0
3C04C0
3C08C0
3C1880
3C1980
3C3180
3C3300
3C3600
3F3E00
1FF800
0FF000
003000
007000
006000
006000
006000
606000
F04000
F0C000
F08000
718000
3E0000
ENDCHAR
STARTCHAR 0235
ENCODING 565
SWIDTH 684 0
DWIDTH 38 0
BBX 33 36 3 -10
BITMAP
F1FF000000
F7FF800000
FFFFC00000
FFFFE00000
FF01F00000
FE01F00000
FC00F00000
F800F80000
F800780000
F000780000
F000780000
F000780000
F000780000
F000780180
F000780780
F000780C80
F000781880
F000781980
F000783180
F000783300
F0007C3700
F0003C3E00
F0003F7C00
F0003FF800
F0000FF000
0000006000
0000006000
0000006000
0000006000
0000006000
0000604000
0000E0C000
0000E0C000
0000E08000
0000730000
00003E0000
ENDCHAR
STARTCHAR 0236
ENCODING 566
SWIDTH 468 0
DWIDTH 26 0
BBX 20 41 3 -11
BITMAP
078000
078000
078000
078000
078000
FFF800
FFF800
FFF800
FFF800
078000
078000
078000
078000
078000
078000
078000
078000
078000
078030
0780F0
078190
078110
078310
078330
078630
078660
0786C0
07E780
03FF00
01FE00
000E00
000E00
000C00
000C00
000C00
0C0C00
1C0800
1E1800
1E1000
0E2000
07C000
ENDCHAR
STARTCHAR 0237
ENCODING 567
SWIDTH 162 0
DWIDTH 9 0
BBX 13 36 -6 -11
BITMAP
0078
0078
0078
0078
0078
0078
0078
0078
0078
0078
0078
0078
0078
0078
0078
0078
0078
0078
0078
0078
0078
0078
0078
0078
0078
0078
0078
0078
0078
0078
00F8
01F0
3FF0
7FE0
FFC0
3F80
ENDCHAR
STARTCHAR 0238
ENCODING 568
SWIDTH 792 0
DWIDTH 44 0
BBX 39 37 3 -1
BITMAP
0000780000
0000780000
0000780000
0000780000
0000780000
0000780000
0000780000
0000780000
0000780000
0000780000
0000780000
03FE78FF00
07FF7BFFC0
0FFFFFFFE0
1FFFFFFFF0
3F03FF81F8
7C01FF00F8
7C00FE007C
F800FE003C
F0007C003E
F0007C001E
F0007C001E
F00078001E
F00078001E
F00078001E
F0007C001E
F0007C001E
F0007C003E
F800FE003C
7C00FE007C
7C01FF00F8
3E03FF81F8
1FFFFFFFF0
0FFFFFFFE0
07FF7BFFC0
03FE78FF80
0020000800
ENDCHAR
STARTCHAR 0239
ENCODING 569
SWIDTH 792 0
DWIDTH 44 0
BBX 39 37 3 -11
BITMAP
03FE78FF00
07FF7BFFC0
0FFFFFFFE0
1FFFFFFFF0
3F03FF81F8
7C01FF00F8
7C00FE007C
F800FE003C
F0007C003E
F0007C001E
F0007C001E
F00078001E
F00078001E
F00078001E
F0007C001E
F0007C001E
F0007C003E
F800FE003C
7C00FE007C
7C01FF00F8
3E03FF81F8
1FFFFFFFF0
0FFFFFFFE0
07FF7BFFC0
03FE78FF80
0020780800
0000780000
0000780000
0000780000
0000780000
0000780000
0000780000
0000780000
0000780000
0000780000
0000180000
0000080000
ENDCHAR
STARTCHAR 023A
ENCODING 570
SWIDTH 630 0
DWIDTH 35 0
BBX 30 40 3 -2
BITMAP
00000030
00000078
0007807C
000FC0F8
000FC1F0
000FC1F0
001FE3E0
001FE7C0
003FE7C0
003DFF80
003CFF00
007CFE00
00787E00
00787C00
00F8FC00
00F0FC00
00F1FC00
01F3FE00
01E3FE00
03E7DE00
03CF9F00
03FFFF00
07FFFF80
07FFFF80
07FFFF80
0FFC07C0
0FF803C0
0FF003C0
1FF003E0
1FE001E0
3FC001E0
3F8001F0
3F8000F0
7F0000F8
7E000078
7E000078
FC00007C
F800003C
78000000
30000000
ENDCHAR
STARTCHAR 023B
ENCODING 571
SWIDTH 576 0
DWIDTH 32 0
BBX 29 40 3 -2
BITMAP
00000020
00000078
003FE0F8
00FFF8F8
01FFFFF0
07FFFFE0
0FE03FE0
0F800FC0
1F000FC0
3E000FE0
3E001FC0
7C003F80
78007C00
78007C00
F800F800
F001F000
F001F000
F003E000
F007C000
F007C000
F00F8000
F01F0000
F03E0000
F03E0000
F07C0000
F0F80000
78F80000
79F00000
7FE00180
3FE001C0
3FC003E0
1F8007C0
1F800FC0
1FE01F80
3FFFFF00
7FFFFE00
7CFFF800
F83FF000
F0020000
30000000
ENDCHAR
STARTCHAR 023C
ENCODING 572
SWIDTH 450 0
DWIDTH 25 0
BBX 23 31 2 -3
BITMAP
000008
00001E
00003E
01FF7C
03FFFC
07FFF8
0FFFF0
1F81F0
3E03F8
3E07F8
7C07E0
780F80
781F00
783E00
783E00
787C00
78F800
78F800
79F000
7BE000
7FE060
3FC078
3F80F8
1F01F0
1FFFE0
3FFFE0
7FFF80
7DFF00
F81000
F00000
300000
ENDCHAR
STARTCHAR 023D
ENCODING 573
SWIDTH 576 0
DWIDTH 32 0
BBX 27 36 3 0
BITMAP
0F000000
0F000000
0F000000
0F000000
0F000000
0F000000
0F000000
0F000000
0F000000
0F000000
0F000000
0F000000
0F000000
0F000000
0F000000
0F000000
FFF80000
FFF80000
FFF80000
FFF80000
0F000000
0F000000
0F000000
0F000000
0F000000
0F000000
0F000000
0F000000
0F000000
0F000000
0F000000
0F000000
0FFFFFE0
0FFFFFE0
0FFFFFE0
0FFFFFE0
ENDCHAR
STARTCHAR 023E
ENCODING 574
SWIDTH 504 0
DWIDTH 28 0
BBX 30 40 -1 -2
BITMAP
00000030
00000038
0FFFFFFC
0FFFFFF8
0FFFFFF8
0FFFFFF0
000783E0
000787C0
000787C0
00078F80
00079F00
00079F00
0007BE00
0007FC00
0007FC00
0007F800
0007F000
0007E000
0007E000
0007C000
000F8000
000F8000
001F8000
003F8000
003F8000
007F8000
00FF8000
01F78000
01F78000
03E78000
07C78000
07C78000
0F878000
1F078000
1F078000
3E078000
7C078000
F8078000
78000000
30000000
ENDCHAR
STARTCHAR 023F
ENCODING 575
SWIDTH 378 0
DWIDTH 21 0
BBX 27 38 3 -13
BITMAP
0FE00000
1FF80000
3FFC0000
7FFE0000
7C3E0000
F81E0000
F01E0000
F8000000
7C000000
7F000000
3FC00000
1FF00000
07FC0000
00FE0000
003E0000
001F0000
000F0000
F00F0000
F00F0000
F01F0000
F83E0000
7FFE0000
7FFC0000
3FF80000
0FFC0000
01FE0000
003E0000
001F0000
001F0000
000F8000
000F8000
0007C000
0007C080
0003E3C0
0003FFE0
0001FFC0
0000FF80
00003F00
ENDCHAR
STARTCHAR 0240
ENCODING 576
SWIDTH 396 0
DWIDTH 22 0
BBX 25 37 3 -12
BITMAP
FFFF8000
FFFF8000
FFFF8000
FFFF8000
001F0000
001F0000
003E0000
007C0000
00F80000
00F80000
01F00000
03E00000
03E00000
07C00000
0F800000
0F800000
1F000000
3E000000
7C000000
7C000000
F8000000
FF800000
FFC00000
FFF00000
FFF00000
00F80000
007C0000
007C0000
003C0000
003E0000
001E0000
001F0000
000F8700
000FFF80
0007FF80
0003FF00
0001FE00
ENDCHAR
STARTCHAR 0241
ENCODING 577
SWIDTH 486 0
DWIDTH 27 0
BBX 21 36 3 0
BITMAP
01FE00
07FF00
0FFF80
1FFFC0
3F07E0
7C01F0
7C01F0
7800F8
F80078
F00078
F00078
F00078
F00078
000078
000078
000078
000078
0000F8
0000F0
0001F0
0003E0
000FE0
007FC0
007F80
007E00
007800
007800
007800
007800
007800
007800
007800
007800
007800
007800
007800
ENDCHAR
STARTCHAR 0242
ENCODING 578
SWIDTH 360 0
DWIDTH 20 0
BBX 15 25 3 0
BITMAP
0FE0
3FF0
7FF8
FFFC
F87C
F03E
F01E
003E
003C
003C
007C
0078
00F8
01F0
03E0
03C0
03C0
07C0
0780
0780
0780
0780
0780
0780
0780
ENDCHAR
STARTCHAR 0243
ENCODING 579
SWIDTH 576 0
DWIDTH 32 0
BBX 27 36 3 0
BITMAP
0FFFC000
0FFFF800
0FFFFC00
0FFFFE00
0F007F00
0F001F00
0F000F80
0F000780
0F000780
0F000780
0F000780
0F000780
0F000F80
0F001F00
0F003F00
0FFFFE00
0FFFFC00
0FFFFE00
0FFFFF00
0F001F80
0F000F80
0F0007C0
0F0003C0
FFF803C0
FFF803E0
FFF803E0
FFF803E0
0F0003C0
0F0003C0
0F0007C0
0F000F80
0F003F80
0FFFFF00
0FFFFE00
0FFFF800
0FFFE000
ENDCHAR
STARTCHAR 0244
ENCODING 580
SWIDTH 666 0
DWIDTH 37 0
BBX 32 37 3 -1
BITMAP
3E00007C
3E00007C
3E00007C
3E00007C
3E00007C
3E00007C
3E00007C
3E00007C
3E00007C
3E00007C
3E00007C
3E00007C
3E00007C
3E00007C
3E00007C
3E00007C
FFFFFFFF
FFFFFFFF
FFFFFFFF
FFFFFFFF
3E00007C
3E00007C
3E00007C
3E00007C
3E000078
1E000078
1E000078
1F0000F8
0F0000F0
0F8001F0
07C003E0
07F00FE0
03FFFFC0
01FFFF80
007FFE00
001FF800
00038000
ENDCHAR
STARTCHAR 0245
ENCODING 581
SWIDTH 630 0
DWIDTH 35 0
BBX 30 36 3 0
BITMAP
00078000
000FC000
000FC000
000FC000
001FE000
001FE000
003FE000
003DF000
003CF000
007CF800
00787800
00787800
00F87C00
00F03C00
00F03C00
01F03E00
01E01E00
03E01E00
03C01F00
03C00F00
07C00F80
07800780
07800780
0F8007C0
0F0003C0
0F0003C0
1F0003E0
1E0001E0
3E0001E0
3C0001F0
3C0000F0
7C0000F8
78000078
78000078
F800007C
F000003C
ENDCHAR
STARTCHAR 0246
ENCODING 582
SWIDTH 504 0
DWIDTH 28 0
BBX 30 40 -1 -2
BITMAP
00000030
00000038
0FFFFFFC
0FFFFFF8
0FFFFFF8
0FFFFFF0
0F0003E0
0F0007C0
0F0007C0
0F000F80
0F001F00
0F001F00
0F003E00
0F007C00
0F007C00
0F00F800
0F01F000
0F03E000
0FFFFE00
0FFFFE00
0FFFFE00
0FFFFE00
0F1F0000
0F3E0000
0F3E0000
0F7C0000
0FF80000
0FF00000
0FF00000
0FE00000
0FC00000
0FC00000
0F800000
1F000000
1FFFFFE0
3FFFFFE0
7FFFFFE0
FFFFFFE0
78000000
30000000
ENDCHAR
STARTCHAR 0247
ENCODING 583
SWIDTH 486 0
DWIDTH 27 0
BBX 23 31 2 -3
BITMAP
000008
00001E
00003E
01FF7C
03FFFC
07FFF8
0FFFF0
1F01F0
3E03F8
3E07F8
7C07FC
780FBC
7FFFFC
7FFFFC
7FFFFC
7FFFFC
78F800
78F800
79F000
7BE000
7FE060
3FC078
3F80F8
1F81F0
1FFFE0
3FFFE0
7FFF80
7DFF00
F81000
F00000
300000
ENDCHAR
STARTCHAR 0248
ENCODING 584
SWIDTH 432 0
DWIDTH 24 0
BBX 19 37 3 -1
BITMAP
001E00
001E00
001E00
001E00
001E00
001E00
001E00
001E00
001E00
001E00
001E00
001E00
001E00
001E00
001E00
001E00
07FFE0
07FFE0
07FFE0
07FFE0
001E00
001E00
001E00
001E00
001E00
001E00
001E00
001E00
001E00
F01E00
F03E00
F83C00
7FFC00
7FF800
3FF800
1FE000
010000
ENDCHAR
STARTCHAR 0249
ENCODING 585
SWIDTH 324 0
DWIDTH 18 0
BBX 16 46 0 -11
BITMAP
0060
00F0
01F8
01F8
01F8
00F0
0000
0000
0000
0000
00F0
00F0
00F0
00F0
00F0
00F0
00F0
00F0
00F0
00F0
1FFF
1FFF
1FFF
1FFF
1FFF
00F0
00F0
00F0
00F0
00F0
00F0
00F0
00F0
00F0
00F0
00F0
00F0
00F0
00F0
00F0
00F0
01F0
7FE0
7FE0
FFC0
7F00
ENDCHAR
STARTCHAR 024A
ENCODING 586
SWIDTH 630 0
DWIDTH 35 0
BBX 38 47 3 -11
BITMAP
003FE07C00
00FFF87C00
01FFFE7C00
07FFFF7C00
07E03FFC00
0F800FFC00
1F0007FC00
3E0003FC00
3E0001FC00
7C0001FC00
780000FC00
780000FC00
F800007C00
F000007C00
F000007C00
F000007C00
F000007C00
F000007C00
F000007C00
F000007C00
F000007C00
F000007C00
F000007C00
F800007C00
780000FC00
780000FC00
7C0001FC00
3C0001FC00
3E0003FC00
1F0007FC00
0F800FFC00
0FE01FFC00
07FFFF7C00
03FFFE7C00
00FFFC7C00
007FF07C00
0002007C00
0000007C00
0000007C00
0000007C00
0000003C00
0000003C00
0000003E00
0000003FF0
0000001FF8
0000000FFC
00000007F8
ENDCHAR
STARTCHAR 024B
ENCODING 587
SWIDTH 486 0
DWIDTH 27 0
BBX 30 36 3 -10
BITMAP
03FE7800
07FF7800
0FFFF800
1FFFF800
3F03F800
7C01F800
7C00F800
F800F800
F0007800
F0007800
F0007800
F0007800
F0007800
F0007800
F0007800
F0007800
F0007800
F800F800
7C00F800
7C01F800
3E03F800
1FFFF800
0FFFF800
07FF7800
03FE7800
00207800
00007800
00007800
00007800
00007800
00007C00
00003E00
00003FF0
00001FF8
00000FFC
000007F8
ENDCHAR
STARTCHAR 024C
ENCODING 588
SWIDTH 594 0
DWIDTH 33 0
BBX 28 36 3 0
BITMAP
0FFF8000
0FFFF000
0FFFF800
0FFFFC00
0F00FE00
0F003F00
0F000F00
0F000F80
0F000780
0F000780
0F000780
0F000780
0F000780
0F000F80
0F001F00
0F003F00
FFFFFE00
FFFFFC00
FFFFF800
FFFFE000
FFFFE000
0F01F000
0F00F000
0F00F800
0F007C00
0F007C00
0F003E00
0F001E00
0F001F00
0F000F00
0F000F80
0F0007C0
0F0007C0
0F0003E0
0F0001E0
0F0001F0
ENDCHAR
STARTCHAR 024D
ENCODING 589
SWIDTH 414 0
DWIDTH 23 0
BBX 17 25 3 1
BITMAP
0F1F80
0F7F80
0FFF80
0FFF00
0FF000
0FE000
0FC000
0F8000
0F8000
0F0000
FFF800
FFF800
FFF800
FFF800
FFF800
0F0000
0F0000
0F0000
0F0000
0F0000
0F0000
0F0000
0F0000
0F0000
0F0000
ENDCHAR
STARTCHAR 024E
ENCODING 590
SWIDTH 630 0
DWIDTH 35 0
BBX 30 36 3 0
BITMAP
F800007C
7C0000F8
7C0001F0
3E0003E0
1F0003E0
1F0007C0
FFFFFFFC
FFFFFFFC
FFFFFFFC
FFFFFFFC
01F03E00
00F87C00
00F8F800
007DF000
003FF000
003FE000
001FC000
000FC000
00078000
00078000
00078000
00078000
00078000
00078000
00078000
00078000
00078000
00078000
00078000
00078000
00078000
00078000
00078000
00078000
00078000
00078000
ENDCHAR
STARTCHAR 024F
ENCODING 591
SWIDTH 486 0
DWIDTH 27 0
BBX 22 36 3 -11
BITMAP
F0003C
F8007C
780078
780078
7C00F8
3C00F0
3C01F0
3E01F0
1E01E0
1F03E0
FFFFFC
FFFFFC
FFFFFC
FFFFFC
FFFFFC
07CF80
03CF00
03DF00
03FE00
01FE00
01FE00
00FC00
00FC00
00FC00
007800
007800
00F800
00F000
00F000
01E000
01E000
03E000
3FC000
3FC000
3F8000
7E0000
ENDCHAR
STARTCHAR 0250
ENCODING 592
SWIDTH 396 0
DWIDTH 22 0
BBX 17 26 3 0
BITMAP
008000
FFF000
FFFC00
FFFE00
FFFF00
F81F00
F00F80
F00780
F00780
F00780
F00F80
F01F00
FFFF00
FFFE00
FFFC00
FFF000
F00000
F00000
F00000
F00000
F00000
F81800
7FFC00
7FFC00
3FF800
0FF000
ENDCHAR
ENDFONT
